<svg width="16" height="16" viewBox="0 0 16 16" fill="none" xmlns="http://www.w3.org/2000/svg">
<path d="M10.654 7.54653C10.7005 7.59296 10.7374 7.64811 10.7625 7.70881C10.7877 7.76951 10.8007 7.83457 10.8007 7.90028C10.8007 7.96599 10.7877 8.03105 10.7625 8.09175C10.7374 8.15245 10.7005 8.20759 10.654 8.25403L5.65402 13.254C5.5602 13.3478 5.43295 13.4006 5.30027 13.4006C5.16758 13.4006 5.04034 13.3478 4.94652 13.254C4.8527 13.1602 4.79999 13.033 4.79999 12.9003C4.79999 12.7676 4.8527 12.6403 4.94652 12.5465L9.59339 7.90028L4.94652 3.25403C4.8527 3.16021 4.79999 3.03296 4.79999 2.90028C4.79999 2.7676 4.8527 2.64035 4.94652 2.54653C5.04034 2.45271 5.16758 2.4 5.30027 2.4C5.43295 2.4 5.5602 2.45271 5.65402 2.54653L10.654 7.54653Z" fill="#1C1C1C"/>
</svg>
