<svg width="14" height="14" viewBox="0 0 14 14" fill="none" xmlns="http://www.w3.org/2000/svg">
<path d="M4.97835 2.89928C4.85713 2.89661 4.7381 2.93175 4.63779 2.99987C4.53748 3.06798 4.46089 3.1657 4.41866 3.27936C4.37643 3.39302 4.37066 3.51699 4.40216 3.63408C4.43366 3.75116 4.50085 3.85548 4.5944 3.93261L8.1639 6.99055L4.5944 10.0474C4.52969 10.095 4.47549 10.1554 4.43521 10.2248C4.39492 10.2943 4.36942 10.3714 4.36029 10.4512C4.35116 10.531 4.3586 10.6118 4.38215 10.6885C4.40571 10.7653 4.44486 10.8364 4.49716 10.8974C4.54946 10.9583 4.61378 11.0078 4.68609 11.0427C4.7584 11.0777 4.83715 11.0973 4.91741 11.1004C4.99766 11.1035 5.07769 11.09 5.15248 11.0608C5.22727 11.0315 5.29521 10.9871 5.35205 10.9304L9.4388 7.43374C9.50298 7.37897 9.55451 7.31099 9.58985 7.23438C9.62519 7.15777 9.64349 7.07438 9.64349 6.99001C9.64349 6.90564 9.62519 6.82225 9.58985 6.74564C9.55451 6.66903 9.50298 6.60098 9.4388 6.54621L5.35205 3.04623C5.24881 2.95453 5.1164 2.90253 4.97835 2.89928Z" fill="white"/>
</svg>
