<svg width="188" height="132" viewBox="0 0 188 132" fill="none" xmlns="http://www.w3.org/2000/svg">
<rect width="187.107" height="131.421" fill="white"/>
<path d="M19.0114 32.3359C18.4397 32.3359 17.9047 32.2175 17.4065 31.9806C16.9083 31.7438 16.4714 31.4171 16.0957 31.0005C15.7281 30.584 15.4382 30.1103 15.2258 29.5794C15.0216 29.0485 14.9196 28.485 14.9196 27.8888C14.9196 27.2926 15.0216 26.7331 15.2258 26.2104C15.4382 25.6877 15.7281 25.2221 16.0957 24.8138C16.4714 24.4054 16.9083 24.0869 17.4065 23.8582C17.9129 23.6295 18.4642 23.5151 19.0604 23.5151C19.8853 23.5151 20.5796 23.6907 21.1431 24.0419C21.7148 24.385 22.1436 24.8423 22.4295 25.4141L21.3759 26.1736C21.1472 25.6999 20.8205 25.3446 20.3958 25.1078C19.9792 24.8709 19.5219 24.7525 19.0237 24.7525C18.6153 24.7525 18.2437 24.8383 17.9088 25.0098C17.574 25.1813 17.284 25.4181 17.039 25.7203C16.8021 26.0144 16.6225 26.3533 16.4999 26.7372C16.3774 27.1129 16.3162 27.509 16.3162 27.9255C16.3162 28.3666 16.3856 28.779 16.5244 29.1629C16.6633 29.5468 16.8593 29.8857 17.1125 30.1797C17.3657 30.4656 17.6638 30.6902 18.0068 30.8535C18.3499 31.0169 18.7215 31.0986 19.1217 31.0986C19.5954 31.0986 20.0446 30.9801 20.4693 30.7433C20.9022 30.4983 21.3064 30.1348 21.6821 29.6529V31.0496C20.9226 31.9071 20.0323 32.3359 19.0114 32.3359ZM21.5474 28.8934H19.722V27.8765H22.699V32.2747H21.5474V28.8934ZM26.506 32.3972C26.0078 32.3972 25.5545 32.3114 25.1461 32.1399C24.7459 31.9602 24.3988 31.7193 24.1048 31.4171C23.8108 31.1067 23.5821 30.7555 23.4187 30.3635C23.2636 29.9633 23.186 29.5386 23.186 29.0894C23.186 28.485 23.3248 27.9337 23.6025 27.4355C23.8802 26.9291 24.2681 26.5248 24.7664 26.2226C25.2646 25.9123 25.8485 25.7571 26.5183 25.7571C27.188 25.7571 27.7638 25.9123 28.2457 26.2226C28.7357 26.5248 29.1155 26.925 29.385 27.4232C29.6545 27.9214 29.7893 28.4564 29.7893 29.0281C29.7893 29.1261 29.7852 29.2201 29.777 29.3099C29.7689 29.3916 29.7607 29.461 29.7525 29.5182H24.6193C24.6438 29.8939 24.7459 30.2246 24.9256 30.5105C25.1135 30.7882 25.3503 31.0087 25.6362 31.1721C25.922 31.3272 26.2283 31.4048 26.555 31.4048C26.9144 31.4048 27.2533 31.315 27.5719 31.1353C27.8985 30.9556 28.1191 30.7188 28.2334 30.4247L29.385 30.7555C29.2462 31.0659 29.0338 31.3477 28.748 31.6008C28.4703 31.8459 28.1395 32.0419 27.7556 32.1889C27.3717 32.3277 26.9552 32.3972 26.506 32.3972ZM24.5826 28.6238H28.4539C28.4294 28.2563 28.3232 27.9337 28.1354 27.656C27.9557 27.3701 27.7229 27.1496 27.4371 26.9944C27.1594 26.8311 26.849 26.7494 26.506 26.7494C26.1711 26.7494 25.8608 26.8311 25.5749 26.9944C25.2972 27.1496 25.0685 27.3701 24.8889 27.656C24.7092 27.9337 24.6071 28.2563 24.5826 28.6238ZM33.9037 31.9439C33.7894 32.0011 33.6465 32.0623 33.475 32.1276C33.3034 32.193 33.1074 32.2502 32.8869 32.2992C32.6745 32.3482 32.454 32.3727 32.2253 32.3727C31.9477 32.3727 31.6904 32.3237 31.4535 32.2257C31.2167 32.1276 31.0247 31.9725 30.8777 31.7601C30.7389 31.5396 30.6695 31.2578 30.6695 30.9148V26.9087H29.8241V25.8673H30.6695V23.7602H32.0171V25.8673H33.4137V26.9087H32.0171V30.486C32.0334 30.7065 32.1028 30.8699 32.2253 30.976C32.356 31.0822 32.5153 31.1353 32.7031 31.1353C32.891 31.1353 33.0707 31.1026 33.2422 31.0373C33.4137 30.972 33.5403 30.9189 33.622 30.878L33.9037 31.9439ZM39.1626 32.3972C38.6236 32.3972 38.1131 32.3114 37.6312 32.1399C37.1493 31.9602 36.7369 31.6948 36.3939 31.3436L36.8962 30.437C37.2637 30.7637 37.6312 31.0005 37.9988 31.1476C38.3745 31.2946 38.7461 31.3681 39.1136 31.3681C39.4893 31.3681 39.7956 31.2987 40.0324 31.1598C40.2693 31.0128 40.3877 30.8004 40.3877 30.5228C40.3877 30.3186 40.3265 30.1675 40.204 30.0695C40.0814 29.9715 39.9018 29.8857 39.6649 29.8122C39.4362 29.7387 39.1585 29.657 38.8318 29.5672C38.3745 29.4283 37.9906 29.2854 37.6802 29.1384C37.3699 28.9832 37.1371 28.7954 36.9819 28.5748C36.8267 28.3543 36.7491 28.0725 36.7491 27.7295C36.7491 27.313 36.8553 26.9577 37.0677 26.6637C37.28 26.3696 37.5741 26.145 37.9498 25.9899C38.3336 25.8347 38.7747 25.7571 39.2729 25.7571C39.7384 25.7571 40.1672 25.8306 40.5592 25.9776C40.9594 26.1165 41.3106 26.337 41.6128 26.6392L41.037 27.5335C40.7512 27.2721 40.4571 27.0802 40.1549 26.9577C39.8609 26.8352 39.5424 26.7739 39.1994 26.7739C39.0033 26.7739 38.8155 26.7984 38.6358 26.8474C38.4561 26.8883 38.305 26.9699 38.1825 27.0925C38.0682 27.2068 38.011 27.3701 38.011 27.5825C38.011 27.754 38.06 27.8929 38.158 27.999C38.256 28.1052 38.403 28.1951 38.5991 28.2686C38.7951 28.3421 39.036 28.4237 39.3219 28.5136C39.8201 28.6606 40.2448 28.8076 40.596 28.9546C40.9472 29.0935 41.2167 29.2772 41.4046 29.5059C41.6006 29.7264 41.6986 30.0327 41.6986 30.4247C41.6986 31.0455 41.4658 31.5314 41.0003 31.8826C40.5429 32.2257 39.9303 32.3972 39.1626 32.3972ZM45.3152 32.3972C44.817 32.3972 44.3637 32.3114 43.9554 32.1399C43.5552 31.9602 43.208 31.7193 42.914 31.4171C42.62 31.1067 42.3913 30.7555 42.228 30.3635C42.0728 29.9633 41.9952 29.5386 41.9952 29.0894C41.9952 28.485 42.134 27.9337 42.4117 27.4355C42.6894 26.9291 43.0774 26.5248 43.5756 26.2226C44.0738 25.9123 44.6578 25.7571 45.3275 25.7571C45.9972 25.7571 46.573 25.9123 47.0549 26.2226C47.5449 26.5248 47.9247 26.925 48.1942 27.4232C48.4638 27.9214 48.5985 28.4564 48.5985 29.0281C48.5985 29.1261 48.5944 29.2201 48.5863 29.3099C48.5781 29.3916 48.5699 29.461 48.5618 29.5182H43.4286C43.4531 29.8939 43.5552 30.2246 43.7348 30.5105C43.9227 30.7882 44.1595 31.0087 44.4454 31.1721C44.7313 31.3272 45.0375 31.4048 45.3642 31.4048C45.7236 31.4048 46.0625 31.315 46.3811 31.1353C46.7078 30.9556 46.9283 30.7188 47.0426 30.4247L48.1942 30.7555C48.0554 31.0659 47.843 31.3477 47.5572 31.6008C47.2795 31.8459 46.9487 32.0419 46.5648 32.1889C46.181 32.3277 45.7644 32.3972 45.3152 32.3972ZM43.3918 28.6238H47.2632C47.2387 28.2563 47.1325 27.9337 46.9446 27.656C46.7649 27.3701 46.5322 27.1496 46.2463 26.9944C45.9686 26.8311 45.6583 26.7494 45.3152 26.7494C44.9804 26.7494 44.67 26.8311 44.3842 26.9944C44.1065 27.1496 43.8778 27.3701 43.6981 27.656C43.5184 27.9337 43.4163 28.2563 43.3918 28.6238ZM54.9535 32.2747H53.6059V28.6851C53.6059 28.0889 53.5078 27.6519 53.3118 27.3742C53.124 27.0965 52.8422 26.9577 52.4665 26.9577C52.2052 26.9577 51.9438 27.023 51.6824 27.1537C51.4292 27.2844 51.2006 27.4641 50.9964 27.6928C50.7922 27.9133 50.6452 28.1705 50.5553 28.4646V32.2747H49.2077V25.8673H50.4328V27.1537C50.5962 26.8679 50.8085 26.6228 51.0699 26.4186C51.3394 26.2063 51.6416 26.0429 51.9765 25.9286C52.3113 25.8143 52.6666 25.7571 53.0423 25.7571C53.4262 25.7571 53.7406 25.8265 53.9856 25.9654C54.2388 26.1042 54.4348 26.2961 54.5737 26.5412C54.7207 26.778 54.8187 27.0557 54.8677 27.3742C54.9249 27.6846 54.9535 28.0154 54.9535 28.3666V32.2747ZM59.5449 31.9439C59.4305 32.0011 59.2876 32.0623 59.1161 32.1276C58.9445 32.193 58.7485 32.2502 58.528 32.2992C58.3157 32.3482 58.0951 32.3727 57.8665 32.3727C57.5888 32.3727 57.3315 32.3237 57.0946 32.2257C56.8578 32.1276 56.6658 31.9725 56.5188 31.7601C56.38 31.5396 56.3106 31.2578 56.3106 30.9148V26.9087H55.4652V25.8673H56.3106V23.7602H57.6582V25.8673H59.0548V26.9087H57.6582V30.486C57.6745 30.7065 57.7439 30.8699 57.8665 30.976C57.9971 31.0822 58.1564 31.1353 58.3442 31.1353C58.5321 31.1353 58.7118 31.1026 58.8833 31.0373C59.0548 30.972 59.1814 30.9189 59.2631 30.878L59.5449 31.9439ZM59.9882 32.2747V25.8673H61.3358V32.2747H59.9882ZM59.9882 24.8138V23.3314H61.3358V24.8138H59.9882ZM72.2661 32.2747H70.9184V28.6851C70.9184 28.0889 70.8204 27.6519 70.6244 27.3742C70.4284 27.0965 70.1425 26.9577 69.7668 26.9577C69.3911 26.9577 69.0399 27.1006 68.7132 27.3865C68.3947 27.6642 68.1701 28.0276 68.0394 28.4768V32.2747H66.6918V28.6851C66.6918 28.0889 66.5938 27.6519 66.3978 27.3742C66.2018 27.0965 65.92 26.9577 65.5525 26.9577C65.1768 26.9577 64.8256 27.0965 64.4989 27.3742C64.1804 27.6519 63.9517 28.0154 63.8128 28.4646V32.2747H62.4652V25.8673H63.6903V27.1537C63.9435 26.7045 64.2743 26.3615 64.6826 26.1246C65.0992 25.8796 65.5729 25.7571 66.1038 25.7571C66.6347 25.7571 67.0512 25.8959 67.3534 26.1736C67.6637 26.4513 67.8557 26.7984 67.9292 27.215C68.2069 26.7413 68.5458 26.3819 68.946 26.1369C69.3544 25.8837 69.8199 25.7571 70.3426 25.7571C70.7183 25.7571 71.0328 25.8265 71.286 25.9654C71.5392 26.1042 71.7352 26.2961 71.874 26.5412C72.0129 26.778 72.1109 27.0557 72.1681 27.3742C72.2334 27.6846 72.2661 28.0154 72.2661 28.3666V32.2747ZM76.2324 32.3972C75.7342 32.3972 75.2809 32.3114 74.8726 32.1399C74.4724 31.9602 74.1253 31.7193 73.8312 31.4171C73.5372 31.1067 73.3085 30.7555 73.1452 30.3635C72.99 29.9633 72.9124 29.5386 72.9124 29.0894C72.9124 28.485 73.0512 27.9337 73.3289 27.4355C73.6066 26.9291 73.9946 26.5248 74.4928 26.2226C74.991 25.9123 75.575 25.7571 76.2447 25.7571C76.9144 25.7571 77.4902 25.9123 77.9721 26.2226C78.4621 26.5248 78.8419 26.925 79.1114 27.4232C79.381 27.9214 79.5157 28.4564 79.5157 29.0281C79.5157 29.1261 79.5116 29.2201 79.5035 29.3099C79.4953 29.3916 79.4871 29.461 79.479 29.5182H74.3458C74.3703 29.8939 74.4724 30.2246 74.6521 30.5105C74.8399 30.7882 75.0768 31.0087 75.3626 31.1721C75.6485 31.3272 75.9548 31.4048 76.2814 31.4048C76.6408 31.4048 76.9798 31.315 77.2983 31.1353C77.625 30.9556 77.8455 30.7188 77.9598 30.4247L79.1114 30.7555C78.9726 31.0659 78.7602 31.3477 78.4744 31.6008C78.1967 31.8459 77.8659 32.0419 77.4821 32.1889C77.0982 32.3277 76.6816 32.3972 76.2324 32.3972ZM74.309 28.6238H78.1804C78.1559 28.2563 78.0497 27.9337 77.8618 27.656C77.6822 27.3701 77.4494 27.1496 77.1635 26.9944C76.8858 26.8311 76.5755 26.7494 76.2324 26.7494C75.8976 26.7494 75.5872 26.8311 75.3014 26.9944C75.0237 27.1496 74.795 27.3701 74.6153 27.656C74.4356 27.9337 74.3335 28.2563 74.309 28.6238ZM85.8707 32.2747H84.5231V28.6851C84.5231 28.0889 84.4251 27.6519 84.229 27.3742C84.0412 27.0965 83.7594 26.9577 83.3837 26.9577C83.1224 26.9577 82.861 27.023 82.5996 27.1537C82.3465 27.2844 82.1178 27.4641 81.9136 27.6928C81.7094 27.9133 81.5624 28.1705 81.4725 28.4646V32.2747H80.1249V25.8673H81.35V27.1537C81.5134 26.8679 81.7257 26.6228 81.9871 26.4186C82.2566 26.2063 82.5588 26.0429 82.8937 25.9286C83.2285 25.8143 83.5838 25.7571 83.9595 25.7571C84.3434 25.7571 84.6578 25.8265 84.9029 25.9654C85.156 26.1042 85.3521 26.2961 85.4909 26.5412C85.6379 26.778 85.7359 27.0557 85.7849 27.3742C85.8421 27.6846 85.8707 28.0154 85.8707 28.3666V32.2747ZM90.4621 31.9439C90.3477 32.0011 90.2048 32.0623 90.0333 32.1276C89.8618 32.193 89.6657 32.2502 89.4452 32.2992C89.2329 32.3482 89.0124 32.3727 88.7837 32.3727C88.506 32.3727 88.2487 32.3237 88.0119 32.2257C87.775 32.1276 87.5831 31.9725 87.4361 31.7601C87.2972 31.5396 87.2278 31.2578 87.2278 30.9148V26.9087H86.3825V25.8673H87.2278V23.7602H88.5754V25.8673H89.972V26.9087H88.5754V30.486C88.5917 30.7065 88.6612 30.8699 88.7837 30.976C88.9143 31.0822 89.0736 31.1353 89.2615 31.1353C89.4493 31.1353 89.629 31.1026 89.8005 31.0373C89.972 30.972 90.0986 30.9189 90.1803 30.878L90.4621 31.9439ZM92.9767 30.4002C92.9767 29.9919 93.091 29.6366 93.3197 29.3344C93.5566 29.024 93.8792 28.7872 94.2876 28.6238C94.6959 28.4523 95.1696 28.3666 95.7087 28.3666C95.9945 28.3666 96.2845 28.387 96.5785 28.4278C96.8807 28.4687 97.1461 28.534 97.3748 28.6238V28.2196C97.3748 27.7703 97.2401 27.4191 96.9705 27.166C96.701 26.9128 96.3131 26.7862 95.8067 26.7862C95.4473 26.7862 95.1084 26.8515 94.7898 26.9822C94.4713 27.1047 94.1324 27.2803 93.773 27.509L93.3197 26.6024C93.7444 26.3166 94.1691 26.1042 94.5938 25.9654C95.0267 25.8265 95.48 25.7571 95.9537 25.7571C96.8113 25.7571 97.4851 25.9858 97.9751 26.4431C98.4733 26.8924 98.7224 27.5335 98.7224 28.3666V30.7555C98.7224 30.9107 98.7469 31.021 98.7959 31.0863C98.8531 31.1516 98.947 31.1884 99.0777 31.1966V32.2747C98.9552 32.2992 98.845 32.3155 98.7469 32.3237C98.6489 32.3318 98.5673 32.3359 98.5019 32.3359C98.2161 32.3359 97.9996 32.2665 97.8526 32.1276C97.7056 31.9888 97.6198 31.8255 97.5953 31.6376L97.5586 31.2701C97.2809 31.6294 96.9256 31.9071 96.4927 32.1031C96.0599 32.2992 95.6229 32.3972 95.1819 32.3972C94.7572 32.3972 94.3774 32.3114 94.0425 32.1399C93.7077 31.9602 93.4463 31.7193 93.2585 31.4171C93.0706 31.1149 92.9767 30.7759 92.9767 30.4002ZM97.0563 30.7923C97.1543 30.6861 97.2319 30.5799 97.2891 30.4738C97.3462 30.3676 97.3748 30.2736 97.3748 30.192V29.4569C97.1461 29.3671 96.9052 29.3017 96.652 29.2609C96.3988 29.2119 96.1497 29.1874 95.9047 29.1874C95.4147 29.1874 95.0145 29.2854 94.7041 29.4814C94.4019 29.6774 94.2508 29.947 94.2508 30.29C94.2508 30.4778 94.2998 30.6575 94.3978 30.829C94.504 31.0005 94.651 31.1394 94.8389 31.2456C95.0349 31.3517 95.2758 31.4048 95.5617 31.4048C95.8557 31.4048 96.1375 31.3477 96.407 31.2333C96.6765 31.119 96.8929 30.972 97.0563 30.7923ZM105.613 32.2747H104.265V28.6851C104.265 28.0889 104.167 27.6519 103.971 27.3742C103.784 27.0965 103.502 26.9577 103.126 26.9577C102.865 26.9577 102.603 27.023 102.342 27.1537C102.089 27.2844 101.86 27.4641 101.656 27.6928C101.452 27.9133 101.305 28.1705 101.215 28.4646V32.2747H99.8673V25.8673H101.092V27.1537C101.256 26.8679 101.468 26.6228 101.73 26.4186C101.999 26.2063 102.301 26.0429 102.636 25.9286C102.971 25.8143 103.326 25.7571 103.702 25.7571C104.086 25.7571 104.4 25.8265 104.645 25.9654C104.898 26.1042 105.094 26.2961 105.233 26.5412C105.38 26.778 105.478 27.0557 105.527 27.3742C105.585 27.6846 105.613 28.0154 105.613 28.3666V32.2747ZM106.222 30.4002C106.222 29.9919 106.336 29.6366 106.565 29.3344C106.802 29.024 107.124 28.7872 107.533 28.6238C107.941 28.4523 108.415 28.3666 108.954 28.3666C109.24 28.3666 109.53 28.387 109.824 28.4278C110.126 28.4687 110.391 28.534 110.62 28.6238V28.2196C110.62 27.7703 110.485 27.4191 110.216 27.166C109.946 26.9128 109.558 26.7862 109.052 26.7862C108.692 26.7862 108.353 26.8515 108.035 26.9822C107.716 27.1047 107.377 27.2803 107.018 27.509L106.565 26.6024C106.989 26.3166 107.414 26.1042 107.839 25.9654C108.272 25.8265 108.725 25.7571 109.199 25.7571C110.056 25.7571 110.73 25.9858 111.22 26.4431C111.718 26.8924 111.967 27.5335 111.967 28.3666V30.7555C111.967 30.9107 111.992 31.021 112.041 31.0863C112.098 31.1516 112.192 31.1884 112.323 31.1966V32.2747C112.2 32.2992 112.09 32.3155 111.992 32.3237C111.894 32.3318 111.812 32.3359 111.747 32.3359C111.461 32.3359 111.245 32.2665 111.098 32.1276C110.951 31.9888 110.865 31.8255 110.84 31.6376L110.804 31.2701C110.526 31.6294 110.171 31.9071 109.738 32.1031C109.305 32.2992 108.868 32.3972 108.427 32.3972C108.002 32.3972 107.622 32.3114 107.288 32.1399C106.953 31.9602 106.691 31.7193 106.504 31.4171C106.316 31.1149 106.222 30.7759 106.222 30.4002ZM110.301 30.7923C110.399 30.6861 110.477 30.5799 110.534 30.4738C110.591 30.3676 110.62 30.2736 110.62 30.192V29.4569C110.391 29.3671 110.15 29.3017 109.897 29.2609C109.644 29.2119 109.395 29.1874 109.15 29.1874C108.66 29.1874 108.259 29.2854 107.949 29.4814C107.647 29.6774 107.496 29.947 107.496 30.29C107.496 30.4778 107.545 30.6575 107.643 30.829C107.749 31.0005 107.896 31.1394 108.084 31.2456C108.28 31.3517 108.521 31.4048 108.807 31.4048C109.101 31.4048 109.383 31.3477 109.652 31.2333C109.922 31.119 110.138 30.972 110.301 30.7923ZM113.125 23.3314H114.472V30.4247C114.472 30.7514 114.521 30.9597 114.619 31.0496C114.717 31.1394 114.84 31.1843 114.987 31.1843C115.15 31.1843 115.301 31.168 115.44 31.1353C115.587 31.1026 115.714 31.0618 115.82 31.0128L116.016 32.0786C115.82 32.1603 115.587 32.2297 115.318 32.2869C115.048 32.3441 114.807 32.3727 114.595 32.3727C114.137 32.3727 113.778 32.2461 113.517 31.9929C113.255 31.7315 113.125 31.3722 113.125 30.9148V23.3314ZM116.253 33.7815C116.375 33.7979 116.494 33.8142 116.608 33.8305C116.73 33.855 116.828 33.8673 116.902 33.8673C117.041 33.8673 117.159 33.8224 117.257 33.7325C117.363 33.6509 117.47 33.4957 117.576 33.267C117.682 33.0383 117.813 32.7075 117.968 32.2747L115.334 25.8673H116.743L118.703 30.9025L120.442 25.8673H121.741L118.838 33.757C118.748 33.9939 118.617 34.2103 118.446 34.4063C118.274 34.6105 118.062 34.7698 117.808 34.8841C117.555 34.9985 117.257 35.0557 116.914 35.0557C116.816 35.0557 116.714 35.0475 116.608 35.0311C116.502 35.0148 116.383 34.9903 116.253 34.9576V33.7815ZM124.353 32.3972C123.814 32.3972 123.304 32.3114 122.822 32.1399C122.34 31.9602 121.927 31.6948 121.584 31.3436L122.087 30.437C122.454 30.7637 122.822 31.0005 123.189 31.1476C123.565 31.2946 123.936 31.3681 124.304 31.3681C124.68 31.3681 124.986 31.2987 125.223 31.1598C125.46 31.0128 125.578 30.8004 125.578 30.5228C125.578 30.3186 125.517 30.1675 125.394 30.0695C125.272 29.9715 125.092 29.8857 124.855 29.8122C124.627 29.7387 124.349 29.657 124.022 29.5672C123.565 29.4283 123.181 29.2854 122.871 29.1384C122.56 28.9832 122.328 28.7954 122.172 28.5748C122.017 28.3543 121.94 28.0725 121.94 27.7295C121.94 27.313 122.046 26.9577 122.258 26.6637C122.47 26.3696 122.764 26.145 123.14 25.9899C123.524 25.8347 123.965 25.7571 124.463 25.7571C124.929 25.7571 125.358 25.8306 125.75 25.9776C126.15 26.1165 126.501 26.337 126.803 26.6392L126.227 27.5335C125.942 27.2721 125.648 27.0802 125.345 26.9577C125.051 26.8352 124.733 26.7739 124.39 26.7739C124.194 26.7739 124.006 26.7984 123.826 26.8474C123.647 26.8883 123.495 26.9699 123.373 27.0925C123.259 27.2068 123.201 27.3701 123.201 27.5825C123.201 27.754 123.25 27.8929 123.348 27.999C123.446 28.1052 123.593 28.1951 123.789 28.2686C123.986 28.3421 124.226 28.4237 124.512 28.5136C125.011 28.6606 125.435 28.8076 125.786 28.9546C126.138 29.0935 126.407 29.2772 126.595 29.5059C126.791 29.7264 126.889 30.0327 126.889 30.4247C126.889 31.0455 126.656 31.5314 126.191 31.8826C125.733 32.2257 125.121 32.3972 124.353 32.3972ZM127.602 32.2747V25.8673H128.95V32.2747H127.602ZM127.602 24.8138V23.3314H128.95V24.8138H127.602ZM132.358 32.3972C131.819 32.3972 131.308 32.3114 130.826 32.1399C130.345 31.9602 129.932 31.6948 129.589 31.3436L130.091 30.437C130.459 30.7637 130.826 31.0005 131.194 31.1476C131.57 31.2946 131.941 31.3681 132.309 31.3681C132.685 31.3681 132.991 31.2987 133.228 31.1598C133.465 31.0128 133.583 30.8004 133.583 30.5228C133.583 30.3186 133.522 30.1675 133.399 30.0695C133.277 29.9715 133.097 29.8857 132.86 29.8122C132.631 29.7387 132.354 29.657 132.027 29.5672C131.57 29.4283 131.186 29.2854 130.875 29.1384C130.565 28.9832 130.332 28.7954 130.177 28.5748C130.022 28.3543 129.944 28.0725 129.944 27.7295C129.944 27.313 130.051 26.9577 130.263 26.6637C130.475 26.3696 130.769 26.145 131.145 25.9899C131.529 25.8347 131.97 25.7571 132.468 25.7571C132.934 25.7571 133.362 25.8306 133.754 25.9776C134.155 26.1165 134.506 26.337 134.808 26.6392L134.232 27.5335C133.946 27.2721 133.652 27.0802 133.35 26.9577C133.056 26.8352 132.738 26.7739 132.395 26.7739C132.199 26.7739 132.011 26.7984 131.831 26.8474C131.651 26.8883 131.5 26.9699 131.378 27.0925C131.263 27.2068 131.206 27.3701 131.206 27.5825C131.206 27.754 131.255 27.8929 131.353 27.999C131.451 28.1052 131.598 28.1951 131.794 28.2686C131.99 28.3421 132.231 28.4237 132.517 28.5136C133.015 28.6606 133.44 28.8076 133.791 28.9546C134.142 29.0935 134.412 29.2772 134.6 29.5059C134.796 29.7264 134.894 30.0327 134.894 30.4247C134.894 31.0455 134.661 31.5314 134.196 31.8826C133.738 32.2257 133.126 32.3972 132.358 32.3972Z" fill="black" fill-opacity="0.8"/>
<rect x="14.4785" y="41.208" width="95.7811" height="5.56867" rx="2.22747" fill="black" fill-opacity="0.1"/>
<rect x="14.4785" y="51.2317" width="105.805" height="5.56867" rx="2.22747" fill="black" fill-opacity="0.1"/>
<rect width="34.5258" height="5.56867" rx="2.22747" transform="matrix(-1 0 0 1 149.24 41.208)" fill="black" fill-opacity="0.2"/>
<rect width="37.867" height="5.56867" rx="2.22747" transform="matrix(-1 0 0 1 163.719 51.2317)" fill="black" fill-opacity="0.2"/>
<rect width="10.0236" height="5.56867" rx="2.22747" transform="matrix(-1 0 0 1 163.719 41.208)" fill="black" fill-opacity="0.4"/>
<path d="M86.8876 71.8859C86.6952 70.6086 85.502 69.7233 84.2359 69.9792C74.0356 72.0416 64.7891 77.4539 57.9883 85.3897C51.1876 93.3256 47.2551 103.292 46.7791 113.688C46.72 114.978 47.7777 116.022 49.0694 116.016V116.016C50.3611 116.011 51.397 114.958 51.4633 113.668C51.9394 104.396 55.4705 95.5164 61.5402 88.4336C67.6099 81.3508 75.8443 76.5015 84.9339 74.6111C86.1985 74.3481 87.08 73.1632 86.8876 71.8859V71.8859Z" fill="#0BAE63"/>
<path d="M137.945 115.828C139.237 115.828 140.29 114.78 140.225 113.49C139.808 105.157 137.169 97.0852 132.583 90.1152C131.873 89.0361 130.404 88.8128 129.362 89.5759V89.5759C128.319 90.339 128.099 91.7992 128.803 92.8822C132.81 99.045 135.133 106.151 135.541 113.49C135.613 114.78 136.653 115.828 137.945 115.828V115.828Z" fill="#D11F00"/>
<path d="M128.279 88.1581C129.29 87.3538 129.462 85.8781 128.608 84.9088C123.894 79.5579 118.012 75.3473 111.405 72.611C104.798 69.8746 97.6612 68.6937 90.5447 69.1453C89.2556 69.2271 88.3336 70.3921 88.4797 71.6755V71.6755C88.6259 72.9589 89.7848 73.874 91.0744 73.7994C97.4018 73.4331 103.741 74.4999 109.615 76.9327C115.489 79.3655 120.727 83.0931 124.943 87.8257C125.802 88.7902 127.268 88.9624 128.279 88.1581V88.1581Z" fill="#D19F00"/>
<path d="M89.1343 101.234C88.2196 101.234 87.4711 101.011 86.889 100.564C86.3173 100.106 85.9275 99.5347 85.7196 98.8486L87.1385 98.7395C87.2632 99.1137 87.4919 99.4048 87.8246 99.6127C88.1572 99.8205 88.5938 99.9245 89.1343 99.9245C90.0595 99.9245 90.7663 99.5555 91.2549 98.8174C91.7538 98.069 92.0085 96.8684 92.0189 95.2156L92.3463 95.278C92.0864 95.9745 91.6862 96.515 91.1457 96.8996C90.6052 97.2738 89.9763 97.4609 89.2591 97.4609C88.5418 97.4609 87.9077 97.2998 87.3568 96.9776C86.8059 96.6553 86.3693 96.2031 86.047 95.621C85.7352 95.0389 85.5793 94.3633 85.5793 93.594C85.5793 92.7832 85.7456 92.0868 86.0782 91.5047C86.4109 90.9122 86.863 90.46 87.4348 90.1481C88.0169 89.8259 88.6821 89.6648 89.4306 89.6648C90.3557 89.6648 91.1093 89.8779 91.6914 90.3041C92.284 90.7303 92.7205 91.328 93.0012 92.0972C93.2819 92.856 93.4222 93.7552 93.4222 94.7946C93.4222 95.7198 93.3494 96.5774 93.2039 97.3674C93.0584 98.147 92.8193 98.8278 92.4867 99.41C92.154 99.9817 91.7122 100.429 91.1613 100.751C90.6208 101.073 89.9451 101.234 89.1343 101.234ZM89.3526 96.1356C89.862 96.1356 90.3089 96.0368 90.6935 95.8393C91.0781 95.6418 91.3796 95.356 91.5979 94.9817C91.8266 94.6075 91.9409 94.1554 91.9409 93.6252C91.9409 93.1159 91.837 92.6637 91.6291 92.2687C91.4316 91.8633 91.1457 91.5462 90.7715 91.3176C90.3973 91.0889 89.9503 90.9745 89.4306 90.9745C88.9212 90.9745 88.4846 91.0889 88.1208 91.3176C87.757 91.5359 87.4763 91.8425 87.2788 92.2375C87.0813 92.6325 86.9826 93.0847 86.9826 93.594C86.9826 94.1138 87.0813 94.566 87.2788 94.9506C87.4867 95.3248 87.7674 95.6158 88.1208 95.8237C88.4742 96.0316 88.8848 96.1356 89.3526 96.1356ZM95.9011 100.985C95.9011 99.8413 96.057 98.7031 96.3689 97.5701C96.6807 96.4266 97.1277 95.3196 97.7098 94.2489C98.3023 93.1782 99.0092 92.1699 99.8304 91.224H93.4375V89.9143H101.296V91.1305C100.371 92.1907 99.6069 93.2406 99.004 94.2801C98.4115 95.3092 97.9749 96.3747 97.6942 97.4765C97.4136 98.568 97.2732 99.7374 97.2732 100.985H95.9011Z" fill="black"/>
<path d="M71.8846 114.805L69.256 107.543H70.2174L72.4676 113.843L74.7076 107.543H75.669L73.0404 114.805H71.8846ZM77.9904 114.927C77.479 114.927 77.0357 114.811 76.6607 114.58C76.2925 114.348 76.0061 114.02 75.8015 113.598C75.6038 113.168 75.5049 112.667 75.5049 112.094C75.5049 111.521 75.6038 111.024 75.8015 110.601C76.0061 110.178 76.2891 109.851 76.6505 109.619C77.0187 109.38 77.4517 109.261 77.9494 109.261C78.4199 109.261 78.8359 109.373 79.1973 109.598C79.5587 109.817 79.8383 110.137 80.036 110.56C80.2406 110.983 80.3428 111.497 80.3428 112.104V112.36H76.405C76.4391 112.94 76.5925 113.376 76.8653 113.669C77.1448 113.962 77.5199 114.109 77.9904 114.109C78.3449 114.109 78.6347 114.027 78.8598 113.864C79.0916 113.693 79.2518 113.471 79.3405 113.199L80.261 113.27C80.1178 113.754 79.8451 114.153 79.4428 114.467C79.0473 114.774 78.5631 114.927 77.9904 114.927ZM76.405 111.603H79.4018C79.3609 111.078 79.2075 110.693 78.9416 110.447C78.6825 110.202 78.3518 110.079 77.9494 110.079C77.5335 110.079 77.1892 110.209 76.9164 110.468C76.6505 110.72 76.48 111.099 76.405 111.603ZM81.0975 114.805V109.384H81.8544L81.8953 110.754L81.8135 110.724C81.8816 110.26 82.0282 109.922 82.2533 109.711C82.4851 109.493 82.792 109.384 83.1738 109.384H83.7057V110.202H83.184C82.9113 110.202 82.6829 110.253 82.4987 110.355C82.3215 110.451 82.1851 110.597 82.0896 110.795C82.001 110.986 81.9567 111.232 81.9567 111.532V114.805H81.0975ZM84.5394 116.339V115.582H85.1633C85.3543 115.582 85.4941 115.551 85.5827 115.49C85.6782 115.435 85.7498 115.343 85.7975 115.214L85.9918 114.702H85.6952L83.7109 109.384H84.6519L86.268 113.904L87.8124 109.384H88.7534L86.5544 115.49C86.4521 115.783 86.2987 115.998 86.0941 116.134C85.8895 116.271 85.6066 116.339 85.2452 116.339H84.5394ZM94.421 114.968C93.7391 114.968 93.1561 114.805 92.6719 114.477C92.1878 114.15 91.8162 113.703 91.5571 113.137C91.3048 112.565 91.1786 111.913 91.1786 111.184C91.1786 110.454 91.3082 109.803 91.5673 109.23C91.8264 108.657 92.198 108.207 92.6822 107.88C93.1731 107.546 93.7595 107.379 94.4414 107.379C95.021 107.379 95.5085 107.485 95.904 107.696C96.3063 107.907 96.6234 108.194 96.8553 108.555C97.0939 108.917 97.2576 109.322 97.3462 109.772L96.4257 109.834C96.337 109.363 96.1393 108.981 95.8324 108.688C95.5256 108.388 95.0619 108.238 94.4414 108.238C93.8891 108.238 93.439 108.374 93.0913 108.647C92.7504 108.92 92.4981 109.281 92.3344 109.731C92.1776 110.175 92.0992 110.659 92.0992 111.184C92.0992 111.736 92.181 112.234 92.3446 112.677C92.5083 113.114 92.764 113.461 93.1117 113.72C93.4595 113.979 93.9027 114.109 94.4414 114.109C94.871 114.109 95.2426 114.014 95.5563 113.823C95.8699 113.625 96.112 113.362 96.2825 113.035C96.4529 112.708 96.5416 112.353 96.5484 111.971H94.4619V111.133H97.3667V114.805H96.7121L96.6507 113.127L96.7734 113.27C96.6916 113.598 96.5348 113.891 96.3029 114.15C96.0711 114.402 95.7915 114.603 95.4642 114.753C95.1437 114.897 94.796 114.968 94.421 114.968ZM100.506 114.927C100.009 114.927 99.5721 114.811 99.1971 114.58C98.8221 114.348 98.5323 114.02 98.3277 113.598C98.1232 113.168 98.0209 112.667 98.0209 112.094C98.0209 111.515 98.1232 111.013 98.3277 110.591C98.5323 110.168 98.8221 109.84 99.1971 109.609C99.5721 109.377 100.009 109.261 100.506 109.261C101.004 109.261 101.437 109.377 101.805 109.609C102.18 109.84 102.47 110.168 102.675 110.591C102.879 111.013 102.982 111.515 102.982 112.094C102.982 112.667 102.879 113.168 102.675 113.598C102.47 114.02 102.18 114.348 101.805 114.58C101.437 114.811 101.004 114.927 100.506 114.927ZM100.506 114.109C101.004 114.109 101.389 113.932 101.662 113.577C101.942 113.216 102.081 112.721 102.081 112.094C102.081 111.467 101.942 110.976 101.662 110.621C101.389 110.26 101.004 110.079 100.506 110.079C100.009 110.079 99.6199 110.26 99.3403 110.621C99.0607 110.976 98.9209 111.467 98.9209 112.094C98.9209 112.721 99.0607 113.216 99.3403 113.577C99.6199 113.932 100.009 114.109 100.506 114.109ZM105.861 114.927C105.363 114.927 104.926 114.811 104.551 114.58C104.176 114.348 103.886 114.02 103.682 113.598C103.477 113.168 103.375 112.667 103.375 112.094C103.375 111.515 103.477 111.013 103.682 110.591C103.886 110.168 104.176 109.84 104.551 109.609C104.926 109.377 105.363 109.261 105.861 109.261C106.358 109.261 106.791 109.377 107.159 109.609C107.535 109.84 107.824 110.168 108.029 110.591C108.233 111.013 108.336 111.515 108.336 112.094C108.336 112.667 108.233 113.168 108.029 113.598C107.824 114.02 107.535 114.348 107.159 114.58C106.791 114.811 106.358 114.927 105.861 114.927ZM105.861 114.109C106.358 114.109 106.744 113.932 107.016 113.577C107.296 113.216 107.436 112.721 107.436 112.094C107.436 111.467 107.296 110.976 107.016 110.621C106.744 110.26 106.358 110.079 105.861 110.079C105.363 110.079 104.974 110.26 104.695 110.621C104.415 110.976 104.275 111.467 104.275 112.094C104.275 112.721 104.415 113.216 104.695 113.577C104.974 113.932 105.363 114.109 105.861 114.109ZM111.02 114.927C110.55 114.927 110.141 114.811 109.793 114.58C109.452 114.348 109.19 114.02 109.005 113.598C108.821 113.175 108.729 112.674 108.729 112.094C108.729 111.515 108.821 111.013 109.005 110.591C109.19 110.168 109.452 109.84 109.793 109.609C110.141 109.377 110.55 109.261 111.02 109.261C111.382 109.261 111.712 109.339 112.013 109.496C112.313 109.646 112.538 109.861 112.688 110.141V107.543H113.547V114.805H112.769L112.739 113.986C112.589 114.28 112.36 114.511 112.053 114.682C111.747 114.845 111.402 114.927 111.02 114.927ZM111.194 114.109C111.515 114.109 111.784 114.027 112.002 113.864C112.227 113.7 112.398 113.468 112.514 113.168C112.63 112.861 112.688 112.503 112.688 112.094C112.688 111.671 112.63 111.31 112.514 111.01C112.398 110.71 112.227 110.481 112.002 110.325C111.784 110.161 111.515 110.079 111.194 110.079C110.717 110.079 110.335 110.26 110.049 110.621C109.769 110.976 109.629 111.467 109.629 112.094C109.629 112.715 109.769 113.206 110.049 113.567C110.335 113.928 110.717 114.109 111.194 114.109Z" fill="#0BAE63"/>
<g filter="url(#filter0_d_2003_1739)">
<circle cx="69.6082" cy="78.5182" r="5.0118" fill="white"/>
</g>
<g filter="url(#filter1_d_2003_1739)">
<circle cx="69.6083" cy="78.5182" r="2.78433" fill="#0BAE63"/>
</g>
<defs>
<filter id="filter0_d_2003_1739" x="61.3666" y="71.3903" width="16.4833" height="16.4833" filterUnits="userSpaceOnUse" color-interpolation-filters="sRGB">
<feFlood flood-opacity="0" result="BackgroundImageFix"/>
<feColorMatrix in="SourceAlpha" type="matrix" values="0 0 0 0 0 0 0 0 0 0 0 0 0 0 0 0 0 0 127 0" result="hardAlpha"/>
<feOffset dy="1.11373"/>
<feGaussianBlur stdDeviation="1.61491"/>
<feComposite in2="hardAlpha" operator="out"/>
<feColorMatrix type="matrix" values="0 0 0 0 0 0 0 0 0 0 0 0 0 0 0 0 0 0 0.51 0"/>
<feBlend mode="normal" in2="BackgroundImageFix" result="effect1_dropShadow_2003_1739"/>
<feBlend mode="normal" in="SourceGraphic" in2="effect1_dropShadow_2003_1739" result="shape"/>
</filter>
<filter id="filter1_d_2003_1739" x="63.5941" y="73.6178" width="12.0283" height="12.0283" filterUnits="userSpaceOnUse" color-interpolation-filters="sRGB">
<feFlood flood-opacity="0" result="BackgroundImageFix"/>
<feColorMatrix in="SourceAlpha" type="matrix" values="0 0 0 0 0 0 0 0 0 0 0 0 0 0 0 0 0 0 127 0" result="hardAlpha"/>
<feOffset dy="1.11373"/>
<feGaussianBlur stdDeviation="1.61491"/>
<feComposite in2="hardAlpha" operator="out"/>
<feColorMatrix type="matrix" values="0 0 0 0 0 0 0 0 0 0 0 0 0 0 0 0 0 0 0.51 0"/>
<feBlend mode="normal" in2="BackgroundImageFix" result="effect1_dropShadow_2003_1739"/>
<feBlend mode="normal" in="SourceGraphic" in2="effect1_dropShadow_2003_1739" result="shape"/>
</filter>
</defs>
</svg>
