<svg width="8" height="8" viewBox="0 0 8 8" fill="none" xmlns="http://www.w3.org/2000/svg">
<g clip-path="url(#clip0_2003_1779)">
<path d="M4.73171 4.00004L7.84837 0.883373C7.89664 0.835321 7.9349 0.778171 7.96094 0.715233C7.98697 0.652294 8.00026 0.584816 8.00004 0.516706C8.00089 0.448753 7.98788 0.381339 7.96181 0.318583C7.93573 0.255827 7.89713 0.199045 7.84837 0.151706C7.80103 0.102948 7.74425 0.0643515 7.6815 0.0382746C7.61874 0.0121978 7.55133 -0.000812191 7.48337 3.92477e-05C7.41526 -0.000182827 7.34779 0.0131077 7.28485 0.0391415C7.22191 0.0651753 7.16476 0.103435 7.11671 0.151706L4.00004 3.26837L0.883373 0.151706C0.835321 0.103435 0.778171 0.0651753 0.715233 0.0391415C0.652294 0.0131077 0.584816 -0.000182827 0.516706 3.92477e-05C0.448753 -0.000812191 0.381339 0.0121978 0.318583 0.0382746C0.255827 0.0643515 0.199045 0.102948 0.151706 0.151706C0.102948 0.199045 0.0643515 0.255827 0.0382746 0.318583C0.0121978 0.381339 -0.000812191 0.448753 3.92477e-05 0.516706C-0.000182827 0.584816 0.0131077 0.652294 0.0391415 0.715233C0.0651753 0.778171 0.103435 0.835321 0.151706 0.883373L3.26837 4.00004L0.151706 7.11671C0.103435 7.16476 0.0651753 7.22191 0.0391415 7.28485C0.0131077 7.34779 -0.000182827 7.41526 3.92477e-05 7.48337C-0.000812191 7.55133 0.0121978 7.61874 0.0382746 7.6815C0.0643515 7.74425 0.102948 7.80103 0.151706 7.84837C0.199045 7.89713 0.255827 7.93573 0.318583 7.96181C0.381339 7.98788 0.448753 8.00089 0.516706 8.00004C0.584816 8.00026 0.652294 7.98697 0.715233 7.96094C0.778171 7.9349 0.835321 7.89664 0.883373 7.84837L4.00004 4.73171L7.11671 7.84837C7.16476 7.89664 7.22191 7.9349 7.28485 7.96094C7.34779 7.98697 7.41526 8.00026 7.48337 8.00004C7.62027 7.9996 7.75143 7.94503 7.84823 7.84823C7.94503 7.75143 7.9996 7.62027 8.00004 7.48337C8.00026 7.41526 7.98697 7.34779 7.96094 7.28485C7.9349 7.22191 7.89664 7.16476 7.84837 7.11671L4.73171 4.00004Z" fill="white"/>
</g>
<defs>
<clipPath id="clip0_2003_1779">
<rect width="8" height="8" fill="white"/>
</clipPath>
</defs>
</svg>
