<svg width="287" height="136" viewBox="0 0 287 136" fill="none" xmlns="http://www.w3.org/2000/svg">
<rect width="286.23" height="135.876" fill="white"/>
<rect x="20.0472" y="20.0471" width="42.3219" height="42.3219" rx="21.1609" fill="white"/>
<rect x="20.7856" y="20.7856" width="40.845" height="40.845" rx="20.4225" stroke="black" stroke-opacity="0.1" stroke-width="1.47687"/>
<rect x="69.0515" y="31.1845" width="103.577" height="7.79614" rx="2.22747" fill="black" fill-opacity="0.1"/>
<rect x="69.0515" y="44.5493" width="95.7811" height="6.6824" rx="2.22747" fill="black" fill-opacity="0.1"/>
<rect width="34.5258" height="6.6824" rx="2.22747" transform="matrix(-1 0 0 1 203.813 44.5493)" fill="black" fill-opacity="0.2"/>
<rect width="10.0236" height="6.6824" rx="2.22747" transform="matrix(-1 0 0 1 218.292 44.5493)" fill="black" fill-opacity="0.4"/>
<rect x="236.112" y="27.8433" width="26.7296" height="26.7296" rx="13.3648" fill="#CEEFFF"/>
<g clip-path="url(#clip0_2003_1678)">
<rect width="13.3648" height="13.3648" transform="translate(242.794 34.5257)" fill="#CEEFFF"/>
<path d="M253.374 35.0826H245.578C244.84 35.0835 244.132 35.3771 243.61 35.8991C243.089 36.421 242.795 37.1287 242.794 37.8669V44.5493C242.795 45.2875 243.089 45.9952 243.61 46.5172C244.132 47.0391 244.84 47.3328 245.578 47.3337H253.374C254.113 47.3328 254.82 47.0391 255.342 46.5172C255.864 45.9952 256.158 45.2875 256.159 44.5493V37.8669C256.158 37.1287 255.864 36.421 255.342 35.8991C254.82 35.3771 254.113 35.0835 253.374 35.0826ZM245.578 36.1963H253.374C253.708 36.197 254.034 36.2974 254.309 36.4847C254.585 36.6719 254.799 36.9375 254.923 37.2471L250.658 41.5122C250.344 41.8247 249.919 42.0002 249.476 42.0002C249.033 42.0002 248.609 41.8247 248.295 41.5122L244.03 37.2471C244.154 36.9375 244.367 36.6719 244.643 36.4847C244.919 36.2974 245.245 36.197 245.578 36.1963ZM253.374 46.2199H245.578C245.135 46.2199 244.71 46.0439 244.397 45.7306C244.084 45.4173 243.908 44.9924 243.908 44.5493V38.7022L247.507 42.2996C248.03 42.8209 248.738 43.1137 249.476 43.1137C250.215 43.1137 250.923 42.8209 251.445 42.2996L255.045 38.7022V44.5493C255.045 44.9924 254.869 45.4173 254.556 45.7306C254.242 46.0439 253.818 46.2199 253.374 46.2199Z" fill="#0052FF"/>
</g>
<path d="M37.2898 29.8472C38.7086 29.2595 40.2293 28.957 41.765 28.957V34.8041C40.9971 34.8041 40.2368 34.9553 39.5274 35.2493C38.818 35.5431 38.1734 35.9737 37.6305 36.5167C37.0875 37.0597 36.6569 37.7042 36.363 38.4136C36.0691 39.123 35.9179 39.8833 35.9179 40.6512H30.0708C30.0708 39.1156 30.3733 37.5948 30.961 36.176C31.5487 34.7572 32.41 33.4681 33.4959 32.3822C34.5819 31.2963 35.871 30.4349 37.2898 29.8472Z" fill="#155EEF"/>
<path d="M30.0708 40.6512C30.0708 42.1869 30.3733 43.7076 30.961 45.1264C31.5487 46.5452 32.41 47.8344 33.4959 48.9203C34.5819 50.0062 35.871 50.8676 37.2898 51.4553C38.7086 52.0429 40.2293 52.3454 41.765 52.3454C43.3007 52.3454 44.8214 52.0429 46.2402 51.4553C47.659 50.8676 48.9481 50.0062 50.0341 48.9203C51.12 47.8344 51.9814 46.5452 52.569 45.1264C53.1567 43.7076 53.4592 42.1869 53.4592 40.6512H47.6121C47.6121 41.4191 47.4609 42.1794 47.167 42.8889C46.8732 43.5982 46.4425 44.2428 45.8996 44.7858C45.3566 45.3288 44.712 45.7594 44.0026 46.0532C43.2932 46.3471 42.5329 46.4983 41.765 46.4983C40.9971 46.4983 40.2368 46.3471 39.5274 46.0532C38.818 45.7594 38.1734 45.3288 37.6305 44.7858C37.0875 44.2428 36.6569 43.5982 36.363 42.8889C36.0691 42.1794 35.9179 41.4191 35.9179 40.6512H30.0708Z" fill="#84ADFF"/>
<path d="M41.7652 36.9302C39.7101 36.9302 38.0443 38.5961 38.0443 40.6512H45.486C45.486 38.5961 43.8201 36.9302 41.7652 36.9302Z" fill="#84ADFF"/>
<path d="M41.7652 44.3722C39.7101 44.3722 38.0443 42.7063 38.0443 40.6512H45.486C45.486 42.7063 43.8201 44.3722 41.7652 44.3722Z" fill="#155EEF"/>
<g opacity="0.5">
<rect x="20.0472" y="71.279" width="42.3219" height="42.3219" rx="21.1609" fill="white"/>
<rect x="20.7856" y="72.0174" width="40.845" height="40.845" rx="20.4225" stroke="black" stroke-opacity="0.1" stroke-width="1.47687"/>
</g>
<rect opacity="0.5" x="69.0515" y="82.4163" width="103.577" height="7.79614" rx="2.22747" fill="black" fill-opacity="0.1"/>
<rect opacity="0.5" x="69.0515" y="95.7811" width="95.7811" height="6.6824" rx="2.22747" fill="black" fill-opacity="0.1"/>
<rect opacity="0.5" width="34.5258" height="6.6824" rx="2.22747" transform="matrix(-1 0 0 1 203.813 95.7811)" fill="black" fill-opacity="0.2"/>
<rect opacity="0.5" width="10.0236" height="6.6824" rx="2.22747" transform="matrix(-1 0 0 1 218.292 95.7811)" fill="black" fill-opacity="0.4"/>
<g opacity="0.5">
<rect x="236.112" y="79.075" width="26.7296" height="26.7296" rx="13.3648" fill="#CEEFFF"/>
<g clip-path="url(#clip1_2003_1678)">
<rect width="13.3648" height="13.3648" transform="translate(242.794 85.7574)" fill="#CEEFFF"/>
<path d="M253.374 86.3143H245.578C244.84 86.3152 244.132 86.6088 243.61 87.1308C243.089 87.6528 242.795 88.3605 242.794 89.0987V95.7811C242.795 96.5193 243.089 97.2269 243.61 97.7489C244.132 98.2709 244.84 98.5645 245.578 98.5654H253.374C254.113 98.5645 254.82 98.2709 255.342 97.7489C255.864 97.2269 256.158 96.5193 256.159 95.7811V89.0987C256.158 88.3605 255.864 87.6528 255.342 87.1308C254.82 86.6088 254.113 86.3152 253.374 86.3143ZM245.578 87.4281H253.374C253.708 87.4287 254.034 87.5291 254.309 87.7164C254.585 87.9037 254.799 88.1692 254.923 88.4789L250.658 92.7439C250.344 93.0565 249.919 93.232 249.476 93.232C249.033 93.232 248.609 93.0565 248.295 92.7439L244.03 88.4789C244.154 88.1692 244.367 87.9037 244.643 87.7164C244.919 87.5291 245.245 87.4287 245.578 87.4281ZM253.374 97.4517H245.578C245.135 97.4517 244.71 97.2757 244.397 96.9624C244.084 96.6491 243.908 96.2241 243.908 95.7811V89.934L247.507 93.5313C248.03 94.0527 248.738 94.3455 249.476 94.3455C250.215 94.3455 250.923 94.0527 251.445 93.5313L255.045 89.934V95.7811C255.045 96.2241 254.869 96.6491 254.556 96.9624C254.242 97.2757 253.818 97.4517 253.374 97.4517Z" fill="#0052FF"/>
</g>
</g>
<g opacity="0.5" clip-path="url(#clip2_2003_1678)">
<path fill-rule="evenodd" clip-rule="evenodd" d="M37.8444 82.7408C36.2031 82.7408 34.6864 83.6165 33.8657 85.0379L30.9186 90.1425C30.0979 91.564 30.0979 93.3153 30.9186 94.7367L33.8657 99.8413C34.6864 101.263 36.2031 102.138 37.8444 102.138H43.7387C45.38 102.138 46.8967 101.263 47.7173 99.8413L50.6645 94.7367C51.4852 93.3153 51.4852 91.564 50.6645 90.1425L47.7173 85.0379C46.8967 83.6165 45.38 82.7408 43.7387 82.7408H37.8444ZM43.7387 85.8036H40.0548C39.4653 85.8036 39.097 86.4416 39.3922 86.9518C40.3028 88.526 41.2157 90.099 42.125 91.6739C42.3985 92.1477 42.3985 92.7315 42.125 93.2053C41.2157 94.7803 40.3028 96.3532 39.3922 97.9274C39.097 98.4376 39.4653 99.0756 40.0548 99.0756H43.7387C44.2858 99.0756 44.7914 98.7837 45.0649 98.3099L48.0121 93.2053C48.2856 92.7315 48.2856 92.1477 48.0121 91.6739L45.0649 86.5693C44.7914 86.0955 44.2858 85.8036 43.7387 85.8036Z" fill="#0A0D12"/>
</g>
<defs>
<clipPath id="clip0_2003_1678">
<rect width="13.3648" height="13.3648" fill="white" transform="translate(242.794 34.5257)"/>
</clipPath>
<clipPath id="clip1_2003_1678">
<rect width="13.3648" height="13.3648" fill="white" transform="translate(242.794 85.7574)"/>
</clipPath>
<clipPath id="clip2_2003_1678">
<rect width="21.4394" height="24.5021" fill="white" transform="translate(30.0708 80.1887)"/>
</clipPath>
</defs>
</svg>
