<svg width="287" height="36" viewBox="0 0 287 36" fill="none" xmlns="http://www.w3.org/2000/svg">
<rect width="286.23" height="35.6395" rx="17.8197" fill="white"/>
<g clip-path="url(#clip0_2003_1672)">
<path d="M17.8195 16.1997V19.6503H22.6146C22.404 20.7599 21.7721 21.6996 20.8245 22.3313L23.7161 24.575C25.4009 23.0199 26.3729 20.7357 26.3729 18.0223C26.3729 17.3905 26.3162 16.7829 26.2109 16.1998L17.8195 16.1997Z" fill="#4285F4"/>
<path d="M12.826 19.5153L12.1739 20.0146L9.86536 21.8127C11.3314 24.7205 14.3363 26.7293 17.8192 26.7293C20.2248 26.7293 22.2416 25.9355 23.7158 24.5748L20.8242 22.3311C20.0304 22.8657 19.0179 23.1897 17.8192 23.1897C15.5026 23.1897 13.5344 21.6265 12.8297 19.5205L12.826 19.5153Z" fill="#34A853"/>
<path d="M9.86557 13.8265C9.25811 15.0252 8.90985 16.3779 8.90985 17.8197C8.90985 19.2614 9.25811 20.6141 9.86557 21.8129C9.86557 21.8209 12.8302 19.5125 12.8302 19.5125C12.652 18.9779 12.5467 18.4109 12.5467 17.8196C12.5467 17.2282 12.652 16.6612 12.8302 16.1267L9.86557 13.8265Z" fill="#FBBC05"/>
<path d="M17.8194 12.4576C19.1316 12.4576 20.2979 12.9112 21.2294 13.786L23.7809 11.2345C22.2338 9.79279 20.2251 8.90985 17.8194 8.90985C14.3364 8.90985 11.3314 10.9105 9.86536 13.8265L12.8299 16.1269C13.5345 14.0209 15.5028 12.4576 17.8194 12.4576Z" fill="#EA4335"/>
</g>
<path d="M38.6669 21.3198V14.2198H43.3969V15.2098H39.7869V17.3298H42.8069V18.2598H39.7869V21.3198H38.6669ZM43.918 21.3198V16.0898H45.018V21.3198H43.918ZM43.918 15.2298V14.0198H45.018V15.2298H43.918ZM50.6298 21.3198H49.5298V18.3898C49.5298 17.9031 49.4498 17.5464 49.2898 17.3198C49.1365 17.0931 48.9065 16.9798 48.5998 16.9798C48.3865 16.9798 48.1732 17.0331 47.9598 17.1398C47.7532 17.2464 47.5665 17.3931 47.3998 17.5798C47.2332 17.7598 47.1132 17.9698 47.0398 18.2098V21.3198H45.9398V16.0898H46.9398V17.1398C47.0732 16.9064 47.2465 16.7064 47.4598 16.5398C47.6798 16.3664 47.9265 16.2331 48.1998 16.1398C48.4732 16.0464 48.7632 15.9998 49.0698 15.9998C49.3832 15.9998 49.6398 16.0564 49.8398 16.1698C50.0465 16.2831 50.2065 16.4398 50.3198 16.6398C50.4398 16.8331 50.5198 17.0598 50.5598 17.3198C50.6065 17.5731 50.6298 17.8431 50.6298 18.1298V21.3198ZM51.1766 18.7098C51.1766 18.2098 51.2766 17.7564 51.4766 17.3498C51.6833 16.9364 51.9633 16.6098 52.3166 16.3698C52.67 16.1231 53.0766 15.9998 53.5366 15.9998C53.9366 15.9998 54.2966 16.1031 54.6166 16.3098C54.9433 16.5164 55.1966 16.7731 55.3766 17.0798V14.0198H56.4766V20.0798C56.4766 20.2064 56.5 20.2964 56.5466 20.3498C56.5933 20.4031 56.67 20.4331 56.7766 20.4398V21.3198C56.57 21.3531 56.41 21.3698 56.2966 21.3698C56.09 21.3698 55.9133 21.3098 55.7666 21.1898C55.6266 21.0698 55.5533 20.9264 55.5466 20.7598L55.5366 20.3698C55.3366 20.7031 55.0666 20.9631 54.7266 21.1498C54.3866 21.3298 54.0333 21.4198 53.6666 21.4198C53.3066 21.4198 52.9733 21.3498 52.6666 21.2098C52.3666 21.0698 52.1033 20.8731 51.8766 20.6198C51.6566 20.3664 51.4833 20.0764 51.3566 19.7498C51.2366 19.4231 51.1766 19.0764 51.1766 18.7098ZM55.3766 19.4398V18.0698C55.3033 17.8564 55.1833 17.6664 55.0166 17.4998C54.8566 17.3264 54.6733 17.1898 54.4666 17.0898C54.2666 16.9898 54.0666 16.9398 53.8666 16.9398C53.6333 16.9398 53.42 16.9898 53.2266 17.0898C53.04 17.1898 52.8766 17.3231 52.7366 17.4898C52.6033 17.6564 52.5 17.8464 52.4266 18.0598C52.3533 18.2731 52.3166 18.4964 52.3166 18.7298C52.3166 18.9698 52.3566 19.1964 52.4366 19.4098C52.5166 19.6164 52.63 19.8031 52.7766 19.9698C52.93 20.1298 53.1033 20.2564 53.2966 20.3498C53.4966 20.4364 53.7133 20.4798 53.9466 20.4798C54.0933 20.4798 54.24 20.4531 54.3866 20.3998C54.54 20.3464 54.6833 20.2731 54.8166 20.1798C54.9566 20.0864 55.0733 19.9764 55.1666 19.8498C55.2666 19.7231 55.3366 19.5864 55.3766 19.4398Z" fill="black" fill-opacity="0.6"/>
<path d="M153.527 21.3198V16.0898H154.627V21.3198H153.527ZM153.527 15.2298V14.0198H154.627V15.2298H153.527ZM160.239 21.3198H159.139V18.3898C159.139 17.9031 159.059 17.5464 158.899 17.3198C158.745 17.0931 158.515 16.9798 158.209 16.9798C157.995 16.9798 157.782 17.0331 157.569 17.1398C157.362 17.2464 157.175 17.3931 157.009 17.5798C156.842 17.7598 156.722 17.9698 156.649 18.2098V21.3198H155.549V16.0898H156.549V17.1398C156.682 16.9064 156.855 16.7064 157.069 16.5398C157.289 16.3664 157.535 16.2331 157.809 16.1398C158.082 16.0464 158.372 15.9998 158.679 15.9998C158.992 15.9998 159.249 16.0564 159.449 16.1698C159.655 16.2831 159.815 16.4398 159.929 16.6398C160.049 16.8331 160.129 17.0598 160.169 17.3198C160.215 17.5731 160.239 17.8431 160.239 18.1298V21.3198ZM165.064 14.2198H166.124L168.884 21.3198H167.704L166.954 19.3898H164.214L163.474 21.3198H162.284L165.064 14.2198ZM166.734 18.5598L165.594 15.4498L164.414 18.5598H166.734ZM173.912 21.3198H172.812V18.3898C172.812 17.9164 172.725 17.5631 172.552 17.3298C172.379 17.0964 172.135 16.9798 171.822 16.9798C171.629 16.9798 171.429 17.0331 171.222 17.1398C171.015 17.2464 170.832 17.3931 170.672 17.5798C170.512 17.7598 170.395 17.9698 170.322 18.2098V21.3198H169.222V14.0198H170.322V17.1398C170.522 16.7864 170.795 16.5098 171.142 16.3098C171.489 16.1031 171.862 15.9998 172.262 15.9998C172.589 15.9998 172.859 16.0564 173.072 16.1698C173.285 16.2831 173.452 16.4398 173.572 16.6398C173.699 16.8331 173.785 17.0598 173.832 17.3198C173.885 17.5731 173.912 17.8431 173.912 18.1298V21.3198ZM182.789 21.3198H181.689V18.3898C181.689 17.9031 181.609 17.5464 181.449 17.3198C181.289 17.0931 181.055 16.9798 180.749 16.9798C180.442 16.9798 180.155 17.0964 179.889 17.3298C179.629 17.5564 179.445 17.8531 179.339 18.2198V21.3198H178.239V18.3898C178.239 17.9031 178.159 17.5464 177.999 17.3198C177.839 17.0931 177.609 16.9798 177.309 16.9798C177.002 16.9798 176.715 17.0931 176.449 17.3198C176.189 17.5464 176.002 17.8431 175.889 18.2098V21.3198H174.789V16.0898H175.789V17.1398C175.995 16.7731 176.265 16.4931 176.599 16.2998C176.939 16.0998 177.325 15.9998 177.759 15.9998C178.192 15.9998 178.532 16.1131 178.779 16.3398C179.032 16.5664 179.189 16.8498 179.249 17.1898C179.475 16.8031 179.752 16.5098 180.079 16.3098C180.412 16.1031 180.792 15.9998 181.219 15.9998C181.525 15.9998 181.782 16.0564 181.989 16.1698C182.195 16.2831 182.355 16.4398 182.469 16.6398C182.582 16.8331 182.662 17.0598 182.709 17.3198C182.762 17.5731 182.789 17.8431 182.789 18.1298V21.3198ZM183.276 19.7898C183.276 19.4564 183.37 19.1664 183.556 18.9198C183.75 18.6664 184.013 18.4731 184.346 18.3398C184.68 18.1998 185.066 18.1298 185.506 18.1298C185.74 18.1298 185.976 18.1464 186.216 18.1798C186.463 18.2131 186.68 18.2664 186.866 18.3398V18.0098C186.866 17.6431 186.756 17.3564 186.536 17.1498C186.316 16.9431 186 16.8398 185.586 16.8398C185.293 16.8398 185.016 16.8931 184.756 16.9998C184.496 17.0998 184.22 17.2431 183.926 17.4298L183.556 16.6898C183.903 16.4564 184.25 16.2831 184.596 16.1698C184.95 16.0564 185.32 15.9998 185.706 15.9998C186.406 15.9998 186.956 16.1864 187.356 16.5598C187.763 16.9264 187.966 17.4498 187.966 18.1298V20.0798C187.966 20.2064 187.986 20.2964 188.026 20.3498C188.073 20.4031 188.15 20.4331 188.256 20.4398V21.3198C188.156 21.3398 188.066 21.3531 187.986 21.3598C187.906 21.3664 187.84 21.3698 187.786 21.3698C187.553 21.3698 187.376 21.3131 187.256 21.1998C187.136 21.0864 187.066 20.9531 187.046 20.7998L187.016 20.4998C186.79 20.7931 186.5 21.0198 186.146 21.1798C185.793 21.3398 185.436 21.4198 185.076 21.4198C184.73 21.4198 184.42 21.3498 184.146 21.2098C183.873 21.0631 183.66 20.8664 183.506 20.6198C183.353 20.3731 183.276 20.0964 183.276 19.7898ZM186.606 20.1098C186.686 20.0231 186.75 19.9364 186.796 19.8498C186.843 19.7631 186.866 19.6864 186.866 19.6198V19.0198C186.68 18.9464 186.483 18.8931 186.276 18.8598C186.07 18.8198 185.866 18.7998 185.666 18.7998C185.266 18.7998 184.94 18.8798 184.686 19.0398C184.44 19.1998 184.316 19.4198 184.316 19.6998C184.316 19.8531 184.356 19.9998 184.436 20.1398C184.523 20.2798 184.643 20.3931 184.796 20.4798C184.956 20.5664 185.153 20.6098 185.386 20.6098C185.626 20.6098 185.856 20.5631 186.076 20.4698C186.296 20.3764 186.473 20.2564 186.606 20.1098ZM188.571 18.7098C188.571 18.2098 188.671 17.7564 188.871 17.3498C189.077 16.9364 189.357 16.6098 189.711 16.3698C190.064 16.1231 190.471 15.9998 190.931 15.9998C191.331 15.9998 191.691 16.1031 192.011 16.3098C192.337 16.5164 192.591 16.7731 192.771 17.0798V14.0198H193.871V20.0798C193.871 20.2064 193.894 20.2964 193.941 20.3498C193.987 20.4031 194.064 20.4331 194.171 20.4398V21.3198C193.964 21.3531 193.804 21.3698 193.691 21.3698C193.484 21.3698 193.307 21.3098 193.161 21.1898C193.021 21.0698 192.947 20.9264 192.941 20.7598L192.931 20.3698C192.731 20.7031 192.461 20.9631 192.121 21.1498C191.781 21.3298 191.427 21.4198 191.061 21.4198C190.701 21.4198 190.367 21.3498 190.061 21.2098C189.761 21.0698 189.497 20.8731 189.271 20.6198C189.051 20.3664 188.877 20.0764 188.751 19.7498C188.631 19.4231 188.571 19.0764 188.571 18.7098ZM192.771 19.4398V18.0698C192.697 17.8564 192.577 17.6664 192.411 17.4998C192.251 17.3264 192.067 17.1898 191.861 17.0898C191.661 16.9898 191.461 16.9398 191.261 16.9398C191.027 16.9398 190.814 16.9898 190.621 17.0898C190.434 17.1898 190.271 17.3231 190.131 17.4898C189.997 17.6564 189.894 17.8464 189.821 18.0598C189.747 18.2731 189.711 18.4964 189.711 18.7298C189.711 18.9698 189.751 19.1964 189.831 19.4098C189.911 19.6164 190.024 19.8031 190.171 19.9698C190.324 20.1298 190.497 20.2564 190.691 20.3498C190.891 20.4364 191.107 20.4798 191.341 20.4798C191.487 20.4798 191.634 20.4531 191.781 20.3998C191.934 20.3464 192.077 20.2731 192.211 20.1798C192.351 20.0864 192.467 19.9764 192.561 19.8498C192.661 19.7231 192.731 19.5864 192.771 19.4398ZM194.488 19.7898C194.488 19.4564 194.581 19.1664 194.768 18.9198C194.961 18.6664 195.225 18.4731 195.558 18.3398C195.891 18.1998 196.278 18.1298 196.718 18.1298C196.951 18.1298 197.188 18.1464 197.428 18.1798C197.675 18.2131 197.891 18.2664 198.078 18.3398V18.0098C198.078 17.6431 197.968 17.3564 197.748 17.1498C197.528 16.9431 197.211 16.8398 196.798 16.8398C196.505 16.8398 196.228 16.8931 195.968 16.9998C195.708 17.0998 195.431 17.2431 195.138 17.4298L194.768 16.6898C195.115 16.4564 195.461 16.2831 195.808 16.1698C196.161 16.0564 196.531 15.9998 196.918 15.9998C197.618 15.9998 198.168 16.1864 198.568 16.5598C198.975 16.9264 199.178 17.4498 199.178 18.1298V20.0798C199.178 20.2064 199.198 20.2964 199.238 20.3498C199.285 20.4031 199.361 20.4331 199.468 20.4398V21.3198C199.368 21.3398 199.278 21.3531 199.198 21.3598C199.118 21.3664 199.051 21.3698 198.998 21.3698C198.765 21.3698 198.588 21.3131 198.468 21.1998C198.348 21.0864 198.278 20.9531 198.258 20.7998L198.228 20.4998C198.001 20.7931 197.711 21.0198 197.358 21.1798C197.005 21.3398 196.648 21.4198 196.288 21.4198C195.941 21.4198 195.631 21.3498 195.358 21.2098C195.085 21.0631 194.871 20.8664 194.718 20.6198C194.565 20.3731 194.488 20.0964 194.488 19.7898ZM197.818 20.1098C197.898 20.0231 197.961 19.9364 198.008 19.8498C198.055 19.7631 198.078 19.6864 198.078 19.6198V19.0198C197.891 18.9464 197.695 18.8931 197.488 18.8598C197.281 18.8198 197.078 18.7998 196.878 18.7998C196.478 18.7998 196.151 18.8798 195.898 19.0398C195.651 19.1998 195.528 19.4198 195.528 19.6998C195.528 19.8531 195.568 19.9998 195.648 20.1398C195.735 20.2798 195.855 20.3931 196.008 20.4798C196.168 20.5664 196.365 20.6098 196.598 20.6098C196.838 20.6098 197.068 20.5631 197.288 20.4698C197.508 20.3764 197.685 20.2564 197.818 20.1098ZM202.932 21.4198C202.532 21.4198 202.169 21.3264 201.842 21.1398C201.522 20.9464 201.269 20.6898 201.082 20.3698V21.3198H200.112V14.0198H201.212V17.0798C201.419 16.7464 201.676 16.4831 201.982 16.2898C202.296 16.0964 202.662 15.9998 203.082 15.9998C203.429 15.9998 203.746 16.0731 204.032 16.2198C204.319 16.3664 204.562 16.5664 204.762 16.8198C204.969 17.0731 205.126 17.3631 205.232 17.6898C205.346 18.0164 205.402 18.3631 205.402 18.7298C205.402 19.0964 205.339 19.4431 205.212 19.7698C205.092 20.0964 204.919 20.3831 204.692 20.6298C204.466 20.8764 204.202 21.0698 203.902 21.2098C203.609 21.3498 203.286 21.4198 202.932 21.4198ZM202.642 20.4798C202.882 20.4798 203.102 20.4331 203.302 20.3398C203.502 20.2398 203.676 20.1098 203.822 19.9498C203.969 19.7898 204.079 19.6031 204.152 19.3898C204.232 19.1764 204.272 18.9564 204.272 18.7298C204.272 18.4164 204.206 18.1231 204.072 17.8498C203.946 17.5764 203.766 17.3564 203.532 17.1898C203.299 17.0231 203.029 16.9398 202.722 16.9398C202.502 16.9398 202.296 16.9931 202.102 17.0998C201.909 17.1998 201.736 17.3364 201.582 17.5098C201.436 17.6764 201.312 17.8631 201.212 18.0698V19.4498C201.252 19.6031 201.322 19.7431 201.422 19.8698C201.522 19.9898 201.639 20.0964 201.772 20.1898C201.906 20.2764 202.049 20.3464 202.202 20.3998C202.356 20.4531 202.502 20.4798 202.642 20.4798ZM205.612 19.7898C205.612 19.4564 205.705 19.1664 205.892 18.9198C206.085 18.6664 206.348 18.4731 206.682 18.3398C207.015 18.1998 207.402 18.1298 207.842 18.1298C208.075 18.1298 208.312 18.1464 208.552 18.1798C208.798 18.2131 209.015 18.2664 209.202 18.3398V18.0098C209.202 17.6431 209.092 17.3564 208.872 17.1498C208.652 16.9431 208.335 16.8398 207.922 16.8398C207.628 16.8398 207.352 16.8931 207.092 16.9998C206.832 17.0998 206.555 17.2431 206.262 17.4298L205.892 16.6898C206.238 16.4564 206.585 16.2831 206.932 16.1698C207.285 16.0564 207.655 15.9998 208.042 15.9998C208.742 15.9998 209.292 16.1864 209.692 16.5598C210.098 16.9264 210.302 17.4498 210.302 18.1298V20.0798C210.302 20.2064 210.322 20.2964 210.362 20.3498C210.408 20.4031 210.485 20.4331 210.592 20.4398V21.3198C210.492 21.3398 210.402 21.3531 210.322 21.3598C210.242 21.3664 210.175 21.3698 210.122 21.3698C209.888 21.3698 209.712 21.3131 209.592 21.1998C209.472 21.0864 209.402 20.9531 209.382 20.7998L209.352 20.4998C209.125 20.7931 208.835 21.0198 208.482 21.1798C208.128 21.3398 207.772 21.4198 207.412 21.4198C207.065 21.4198 206.755 21.3498 206.482 21.2098C206.208 21.0631 205.995 20.8664 205.842 20.6198C205.688 20.3731 205.612 20.0964 205.612 19.7898ZM208.942 20.1098C209.022 20.0231 209.085 19.9364 209.132 19.8498C209.178 19.7631 209.202 19.6864 209.202 19.6198V19.0198C209.015 18.9464 208.818 18.8931 208.612 18.8598C208.405 18.8198 208.202 18.7998 208.002 18.7998C207.602 18.7998 207.275 18.8798 207.022 19.0398C206.775 19.1998 206.652 19.4198 206.652 19.6998C206.652 19.8531 206.692 19.9998 206.772 20.1398C206.858 20.2798 206.978 20.3931 207.132 20.4798C207.292 20.5664 207.488 20.6098 207.722 20.6098C207.962 20.6098 208.192 20.5631 208.412 20.4698C208.632 20.3764 208.808 20.2564 208.942 20.1098ZM210.906 18.7098C210.906 18.2098 211.006 17.7564 211.206 17.3498C211.413 16.9364 211.693 16.6098 212.046 16.3698C212.4 16.1231 212.806 15.9998 213.266 15.9998C213.666 15.9998 214.026 16.1031 214.346 16.3098C214.673 16.5164 214.926 16.7731 215.106 17.0798V14.0198H216.206V20.0798C216.206 20.2064 216.23 20.2964 216.276 20.3498C216.323 20.4031 216.4 20.4331 216.506 20.4398V21.3198C216.3 21.3531 216.14 21.3698 216.026 21.3698C215.82 21.3698 215.643 21.3098 215.496 21.1898C215.356 21.0698 215.283 20.9264 215.276 20.7598L215.266 20.3698C215.066 20.7031 214.796 20.9631 214.456 21.1498C214.116 21.3298 213.763 21.4198 213.396 21.4198C213.036 21.4198 212.703 21.3498 212.396 21.2098C212.096 21.0698 211.833 20.8731 211.606 20.6198C211.386 20.3664 211.213 20.0764 211.086 19.7498C210.966 19.4231 210.906 19.0764 210.906 18.7098ZM215.106 19.4398V18.0698C215.033 17.8564 214.913 17.6664 214.746 17.4998C214.586 17.3264 214.403 17.1898 214.196 17.0898C213.996 16.9898 213.796 16.9398 213.596 16.9398C213.363 16.9398 213.15 16.9898 212.956 17.0898C212.77 17.1898 212.606 17.3231 212.466 17.4898C212.333 17.6564 212.23 17.8464 212.156 18.0598C212.083 18.2731 212.046 18.4964 212.046 18.7298C212.046 18.9698 212.086 19.1964 212.166 19.4098C212.246 19.6164 212.36 19.8031 212.506 19.9698C212.66 20.1298 212.833 20.2564 213.026 20.3498C213.226 20.4364 213.443 20.4798 213.676 20.4798C213.823 20.4798 213.97 20.4531 214.116 20.3998C214.27 20.3464 214.413 20.2731 214.546 20.1798C214.686 20.0864 214.803 19.9764 214.896 19.8498C214.996 19.7231 215.066 19.5864 215.106 19.4398ZM221.644 21.4198C221.238 21.4198 220.868 21.3498 220.534 21.2098C220.208 21.0631 219.924 20.8631 219.684 20.6098C219.444 20.3564 219.258 20.0664 219.124 19.7398C218.998 19.4131 218.934 19.0664 218.934 18.6998C218.934 18.2064 219.044 17.7564 219.264 17.3498C219.491 16.9431 219.804 16.6164 220.204 16.3698C220.611 16.1231 221.091 15.9998 221.644 15.9998C222.178 15.9998 222.641 16.1198 223.034 16.3598C223.434 16.5931 223.728 16.9064 223.914 17.2998L222.844 17.6398C222.724 17.4198 222.554 17.2498 222.334 17.1298C222.121 17.0031 221.884 16.9398 221.624 16.9398C221.331 16.9398 221.064 17.0164 220.824 17.1698C220.591 17.3164 220.404 17.5231 220.264 17.7898C220.131 18.0498 220.064 18.3531 220.064 18.6998C220.064 19.0331 220.134 19.3364 220.274 19.6098C220.414 19.8764 220.601 20.0898 220.834 20.2498C221.074 20.4031 221.341 20.4798 221.634 20.4798C221.814 20.4798 221.988 20.4498 222.154 20.3898C222.328 20.3231 222.478 20.2364 222.604 20.1298C222.731 20.0164 222.821 19.8931 222.874 19.7598L223.954 20.0798C223.841 20.3398 223.671 20.5698 223.444 20.7698C223.224 20.9698 222.961 21.1298 222.654 21.2498C222.354 21.3631 222.018 21.4198 221.644 21.4198ZM226.761 21.4198C226.348 21.4198 225.978 21.3498 225.651 21.2098C225.325 21.0631 225.041 20.8631 224.801 20.6098C224.568 20.3564 224.388 20.0698 224.261 19.7498C224.135 19.4231 224.071 19.0764 224.071 18.7098C224.071 18.3431 224.135 17.9964 224.261 17.6698C224.388 17.3431 224.568 17.0564 224.801 16.8098C225.041 16.5564 225.325 16.3598 225.651 16.2198C225.985 16.0731 226.355 15.9998 226.761 15.9998C227.168 15.9998 227.535 16.0731 227.861 16.2198C228.195 16.3598 228.478 16.5564 228.711 16.8098C228.951 17.0564 229.135 17.3431 229.261 17.6698C229.388 17.9964 229.451 18.3431 229.451 18.7098C229.451 19.0764 229.388 19.4231 229.261 19.7498C229.135 20.0698 228.951 20.3564 228.711 20.6098C228.478 20.8631 228.195 21.0631 227.861 21.2098C227.535 21.3498 227.168 21.4198 226.761 21.4198ZM225.201 18.7198C225.201 19.0531 225.271 19.3531 225.411 19.6198C225.551 19.8864 225.738 20.0964 225.971 20.2498C226.205 20.4031 226.468 20.4798 226.761 20.4798C227.048 20.4798 227.308 20.4031 227.541 20.2498C227.781 20.0898 227.971 19.8764 228.111 19.6098C228.251 19.3364 228.321 19.0364 228.321 18.7098C228.321 18.3764 228.251 18.0764 228.111 17.8098C227.971 17.5431 227.781 17.3331 227.541 17.1798C227.308 17.0198 227.048 16.9398 226.761 16.9398C226.468 16.9398 226.205 17.0198 225.971 17.1798C225.738 17.3398 225.551 17.5531 225.411 17.8198C225.271 18.0798 225.201 18.3798 225.201 18.7198ZM234.717 21.3198H233.617V18.3898C233.617 17.9031 233.537 17.5464 233.377 17.3198C233.224 17.0931 232.994 16.9798 232.687 16.9798C232.474 16.9798 232.26 17.0331 232.047 17.1398C231.84 17.2464 231.654 17.3931 231.487 17.5798C231.32 17.7598 231.2 17.9698 231.127 18.2098V21.3198H230.027V16.0898H231.027V17.1398C231.16 16.9064 231.334 16.7064 231.547 16.5398C231.767 16.3664 232.014 16.2331 232.287 16.1398C232.56 16.0464 232.85 15.9998 233.157 15.9998C233.47 15.9998 233.727 16.0564 233.927 16.1698C234.134 16.2831 234.294 16.4398 234.407 16.6398C234.527 16.8331 234.607 17.0598 234.647 17.3198C234.694 17.5731 234.717 17.8431 234.717 18.1298V21.3198ZM238.465 21.0498C238.371 21.0964 238.255 21.1464 238.115 21.1998C237.975 21.2531 237.815 21.2998 237.635 21.3398C237.461 21.3798 237.281 21.3998 237.095 21.3998C236.868 21.3998 236.658 21.3598 236.465 21.2798C236.271 21.1998 236.115 21.0731 235.995 20.8998C235.881 20.7198 235.825 20.4898 235.825 20.2098V16.9398H235.135V16.0898H235.825V14.3698H236.925V16.0898H238.065V16.9398H236.925V19.8598C236.938 20.0398 236.995 20.1731 237.095 20.2598C237.201 20.3464 237.331 20.3898 237.485 20.3898C237.638 20.3898 237.785 20.3631 237.925 20.3098C238.065 20.2564 238.168 20.2131 238.235 20.1798L238.465 21.0498ZM238.447 19.7898C238.447 19.4564 238.54 19.1664 238.727 18.9198C238.92 18.6664 239.183 18.4731 239.517 18.3398C239.85 18.1998 240.237 18.1298 240.677 18.1298C240.91 18.1298 241.147 18.1464 241.387 18.1798C241.633 18.2131 241.85 18.2664 242.037 18.3398V18.0098C242.037 17.6431 241.927 17.3564 241.707 17.1498C241.487 16.9431 241.17 16.8398 240.757 16.8398C240.463 16.8398 240.187 16.8931 239.927 16.9998C239.667 17.0998 239.39 17.2431 239.097 17.4298L238.727 16.6898C239.073 16.4564 239.42 16.2831 239.767 16.1698C240.12 16.0564 240.49 15.9998 240.877 15.9998C241.577 15.9998 242.127 16.1864 242.527 16.5598C242.933 16.9264 243.137 17.4498 243.137 18.1298V20.0798C243.137 20.2064 243.157 20.2964 243.197 20.3498C243.243 20.4031 243.32 20.4331 243.427 20.4398V21.3198C243.327 21.3398 243.237 21.3531 243.157 21.3598C243.077 21.3664 243.01 21.3698 242.957 21.3698C242.723 21.3698 242.547 21.3131 242.427 21.1998C242.307 21.0864 242.237 20.9531 242.217 20.7998L242.187 20.4998C241.96 20.7931 241.67 21.0198 241.317 21.1798C240.963 21.3398 240.607 21.4198 240.247 21.4198C239.9 21.4198 239.59 21.3498 239.317 21.2098C239.043 21.0631 238.83 20.8664 238.677 20.6198C238.523 20.3731 238.447 20.0964 238.447 19.7898ZM241.777 20.1098C241.857 20.0231 241.92 19.9364 241.967 19.8498C242.013 19.7631 242.037 19.6864 242.037 19.6198V19.0198C241.85 18.9464 241.653 18.8931 241.447 18.8598C241.24 18.8198 241.037 18.7998 240.837 18.7998C240.437 18.7998 240.11 18.8798 239.857 19.0398C239.61 19.1998 239.487 19.4198 239.487 19.6998C239.487 19.8531 239.527 19.9998 239.607 20.1398C239.693 20.2798 239.813 20.3931 239.967 20.4798C240.127 20.5664 240.323 20.6098 240.557 20.6098C240.797 20.6098 241.027 20.5631 241.247 20.4698C241.467 20.3764 241.643 20.2564 241.777 20.1098ZM246.441 21.4198C246.034 21.4198 245.664 21.3498 245.331 21.2098C245.004 21.0631 244.721 20.8631 244.481 20.6098C244.241 20.3564 244.054 20.0664 243.921 19.7398C243.794 19.4131 243.731 19.0664 243.731 18.6998C243.731 18.2064 243.841 17.7564 244.061 17.3498C244.288 16.9431 244.601 16.6164 245.001 16.3698C245.408 16.1231 245.888 15.9998 246.441 15.9998C246.974 15.9998 247.438 16.1198 247.831 16.3598C248.231 16.5931 248.524 16.9064 248.711 17.2998L247.641 17.6398C247.521 17.4198 247.351 17.2498 247.131 17.1298C246.918 17.0031 246.681 16.9398 246.421 16.9398C246.128 16.9398 245.861 17.0164 245.621 17.1698C245.388 17.3164 245.201 17.5231 245.061 17.7898C244.928 18.0498 244.861 18.3531 244.861 18.6998C244.861 19.0331 244.931 19.3364 245.071 19.6098C245.211 19.8764 245.398 20.0898 245.631 20.2498C245.871 20.4031 246.138 20.4798 246.431 20.4798C246.611 20.4798 246.784 20.4498 246.951 20.3898C247.124 20.3231 247.274 20.2364 247.401 20.1298C247.528 20.0164 247.618 19.8931 247.671 19.7598L248.751 20.0798C248.638 20.3398 248.468 20.5698 248.241 20.7698C248.021 20.9698 247.758 21.1298 247.451 21.2498C247.151 21.3631 246.814 21.4198 246.441 21.4198ZM252.167 21.0498C252.074 21.0964 251.957 21.1464 251.817 21.1998C251.677 21.2531 251.517 21.2998 251.337 21.3398C251.164 21.3798 250.984 21.3998 250.797 21.3998C250.57 21.3998 250.36 21.3598 250.167 21.2798C249.974 21.1998 249.817 21.0731 249.697 20.8998C249.584 20.7198 249.527 20.4898 249.527 20.2098V16.9398H248.837V16.0898H249.527V14.3698H250.627V16.0898H251.767V16.9398H250.627V19.8598C250.64 20.0398 250.697 20.1731 250.797 20.2598C250.904 20.3464 251.034 20.3898 251.187 20.3898C251.34 20.3898 251.487 20.3631 251.627 20.3098C251.767 20.2564 251.87 20.2131 251.937 20.1798L252.167 21.0498Z" fill="black" fill-opacity="0.6"/>
<path d="M63.3969 14.0198L63.1869 15.1998H63.5369V16.4398H62.4569V15.1898L62.7869 14.0198H63.3969ZM65.0169 14.0198L64.8069 15.1998H65.1569V16.4398H64.0769V15.1898L64.4069 14.0198H65.0169ZM73.9941 21.3198H72.8941V18.3898C72.8941 17.9031 72.8141 17.5464 72.6541 17.3198C72.4941 17.0931 72.2608 16.9798 71.9541 16.9798C71.6475 16.9798 71.3608 17.0964 71.0941 17.3298C70.8341 17.5564 70.6508 17.8531 70.5441 18.2198V21.3198H69.4441V18.3898C69.4441 17.9031 69.3641 17.5464 69.2041 17.3198C69.0441 17.0931 68.8141 16.9798 68.5141 16.9798C68.2075 16.9798 67.9208 17.0931 67.6541 17.3198C67.3941 17.5464 67.2075 17.8431 67.0941 18.2098V21.3198H65.9941V16.0898H66.9941V17.1398C67.2008 16.7731 67.4708 16.4931 67.8041 16.2998C68.1441 16.0998 68.5308 15.9998 68.9641 15.9998C69.3975 15.9998 69.7375 16.1131 69.9841 16.3398C70.2375 16.5664 70.3941 16.8498 70.4541 17.1898C70.6808 16.8031 70.9575 16.5098 71.2841 16.3098C71.6175 16.1031 71.9975 15.9998 72.4241 15.9998C72.7308 15.9998 72.9875 16.0564 73.1941 16.1698C73.4008 16.2831 73.5608 16.4398 73.6741 16.6398C73.7875 16.8331 73.8675 17.0598 73.9141 17.3198C73.9675 17.5731 73.9941 17.8431 73.9941 18.1298V21.3198ZM74.4817 19.7898C74.4817 19.4564 74.575 19.1664 74.7617 18.9198C74.955 18.6664 75.2184 18.4731 75.5517 18.3398C75.885 18.1998 76.2717 18.1298 76.7117 18.1298C76.945 18.1298 77.1817 18.1464 77.4217 18.1798C77.6684 18.2131 77.885 18.2664 78.0717 18.3398V18.0098C78.0717 17.6431 77.9617 17.3564 77.7417 17.1498C77.5217 16.9431 77.205 16.8398 76.7917 16.8398C76.4984 16.8398 76.2217 16.8931 75.9617 16.9998C75.7017 17.0998 75.425 17.2431 75.1317 17.4298L74.7617 16.6898C75.1084 16.4564 75.455 16.2831 75.8017 16.1698C76.155 16.0564 76.525 15.9998 76.9117 15.9998C77.6117 15.9998 78.1617 16.1864 78.5617 16.5598C78.9684 16.9264 79.1717 17.4498 79.1717 18.1298V20.0798C79.1717 20.2064 79.1917 20.2964 79.2317 20.3498C79.2784 20.4031 79.355 20.4331 79.4617 20.4398V21.3198C79.3617 21.3398 79.2717 21.3531 79.1917 21.3598C79.1117 21.3664 79.045 21.3698 78.9917 21.3698C78.7584 21.3698 78.5817 21.3131 78.4617 21.1998C78.3417 21.0864 78.2717 20.9531 78.2517 20.7998L78.2217 20.4998C77.995 20.7931 77.705 21.0198 77.3517 21.1798C76.9984 21.3398 76.6417 21.4198 76.2817 21.4198C75.935 21.4198 75.625 21.3498 75.3517 21.2098C75.0784 21.0631 74.865 20.8664 74.7117 20.6198C74.5584 20.3731 74.4817 20.0964 74.4817 19.7898ZM77.8117 20.1098C77.8917 20.0231 77.955 19.9364 78.0017 19.8498C78.0484 19.7631 78.0717 19.6864 78.0717 19.6198V19.0198C77.885 18.9464 77.6884 18.8931 77.4817 18.8598C77.275 18.8198 77.0717 18.7998 76.8717 18.7998C76.4717 18.7998 76.145 18.8798 75.8917 19.0398C75.645 19.1998 75.5217 19.4198 75.5217 19.6998C75.5217 19.8531 75.5617 19.9998 75.6417 20.1398C75.7284 20.2798 75.8484 20.3931 76.0017 20.4798C76.1617 20.5664 76.3584 20.6098 76.5917 20.6098C76.8317 20.6098 77.0617 20.5631 77.2817 20.4698C77.5017 20.3764 77.6784 20.2564 77.8117 20.1098ZM83.0462 17.0398C82.6196 17.0464 82.2396 17.1431 81.9062 17.3298C81.5796 17.5164 81.3462 17.7798 81.2062 18.1198V21.3198H80.1062V16.0898H81.1262V17.2598C81.3062 16.8998 81.5429 16.6131 81.8362 16.3998C82.1296 16.1798 82.4396 16.0598 82.7662 16.0398C82.8329 16.0398 82.8862 16.0398 82.9262 16.0398C82.9729 16.0398 83.0129 16.0431 83.0462 16.0498V17.0398ZM87.0865 21.3198L85.4065 18.9098L84.5465 19.7298V21.3198H83.4465V14.0198H84.5465V18.6198L86.9665 16.0998H88.1465L86.1165 18.2898L88.2565 21.3198H87.0865ZM90.6216 21.4198C90.2149 21.4198 89.8449 21.3498 89.5116 21.2098C89.1849 21.0631 88.9016 20.8664 88.6616 20.6198C88.4216 20.3664 88.2349 20.0798 88.1016 19.7598C87.9749 19.4331 87.9116 19.0864 87.9116 18.7198C87.9116 18.2264 88.0249 17.7764 88.2516 17.3698C88.4782 16.9564 88.7949 16.6264 89.2016 16.3798C89.6082 16.1264 90.0849 15.9998 90.6316 15.9998C91.1782 15.9998 91.6482 16.1264 92.0416 16.3798C92.4416 16.6264 92.7516 16.9531 92.9716 17.3598C93.1916 17.7664 93.3016 18.2031 93.3016 18.6698C93.3016 18.7498 93.2982 18.8264 93.2916 18.8998C93.2849 18.9664 93.2782 19.0231 93.2716 19.0698H89.0816C89.1016 19.3764 89.1849 19.6464 89.3316 19.8798C89.4849 20.1064 89.6782 20.2864 89.9116 20.4198C90.1449 20.5464 90.3949 20.6098 90.6616 20.6098C90.9549 20.6098 91.2316 20.5364 91.4916 20.3898C91.7582 20.2431 91.9382 20.0498 92.0316 19.8098L92.9716 20.0798C92.8582 20.3331 92.6849 20.5631 92.4516 20.7698C92.2249 20.9698 91.9549 21.1298 91.6416 21.2498C91.3282 21.3631 90.9882 21.4198 90.6216 21.4198ZM89.0516 18.3398H92.2116C92.1916 18.0398 92.1049 17.7764 91.9516 17.5498C91.8049 17.3164 91.6149 17.1364 91.3816 17.0098C91.1549 16.8764 90.9016 16.8098 90.6216 16.8098C90.3482 16.8098 90.0949 16.8764 89.8616 17.0098C89.6349 17.1364 89.4482 17.3164 89.3016 17.5498C89.1549 17.7764 89.0716 18.0398 89.0516 18.3398ZM96.66 21.0498C96.5667 21.0964 96.45 21.1464 96.31 21.1998C96.17 21.2531 96.01 21.2998 95.83 21.3398C95.6567 21.3798 95.4767 21.3998 95.29 21.3998C95.0633 21.3998 94.8533 21.3598 94.66 21.2798C94.4667 21.1998 94.31 21.0731 94.19 20.8998C94.0767 20.7198 94.02 20.4898 94.02 20.2098V16.9398H93.33V16.0898H94.02V14.3698H95.12V16.0898H96.26V16.9398H95.12V19.8598C95.1333 20.0398 95.19 20.1731 95.29 20.2598C95.3967 20.3464 95.5267 20.3898 95.68 20.3898C95.8333 20.3898 95.98 20.3631 96.12 20.3098C96.26 20.2564 96.3633 20.2131 96.43 20.1798L96.66 21.0498ZM97.0219 21.3198V16.0898H98.1219V21.3198H97.0219ZM97.0219 15.2298V14.0198H98.1219V15.2298H97.0219ZM103.734 21.3198H102.634V18.3898C102.634 17.9031 102.554 17.5464 102.394 17.3198C102.24 17.0931 102.01 16.9798 101.704 16.9798C101.49 16.9798 101.277 17.0331 101.064 17.1398C100.857 17.2464 100.67 17.3931 100.504 17.5798C100.337 17.7598 100.217 17.9698 100.144 18.2098V21.3198H99.0437V16.0898H100.044V17.1398C100.177 16.9064 100.35 16.7064 100.564 16.5398C100.784 16.3664 101.03 16.2331 101.304 16.1398C101.577 16.0464 101.867 15.9998 102.174 15.9998C102.487 15.9998 102.744 16.0564 102.944 16.1698C103.15 16.2831 103.31 16.4398 103.424 16.6398C103.544 16.8331 103.624 17.0598 103.664 17.3198C103.71 17.5731 103.734 17.8431 103.734 18.1298V21.3198ZM106.681 21.3698C106.327 21.3698 106.004 21.2998 105.711 21.1598C105.417 21.0131 105.164 20.8164 104.951 20.5698C104.744 20.3231 104.581 20.0398 104.461 19.7198C104.347 19.3998 104.291 19.0631 104.291 18.7098C104.291 18.3364 104.351 17.9864 104.471 17.6598C104.591 17.3331 104.757 17.0464 104.971 16.7998C105.191 16.5464 105.447 16.3498 105.741 16.2098C106.034 16.0698 106.361 15.9998 106.721 15.9998C107.141 15.9998 107.507 16.0998 107.821 16.2998C108.141 16.4998 108.404 16.7598 108.611 17.0798V16.0898H109.581V21.1698C109.581 21.6764 109.457 22.1064 109.211 22.4598C108.971 22.8131 108.641 23.0831 108.221 23.2698C107.801 23.4564 107.327 23.5498 106.801 23.5498C106.221 23.5498 105.741 23.4498 105.361 23.2498C104.981 23.0498 104.657 22.7764 104.391 22.4298L105.011 21.8498C105.211 22.1298 105.467 22.3431 105.781 22.4898C106.101 22.6364 106.441 22.7098 106.801 22.7098C107.101 22.7098 107.377 22.6531 107.631 22.5398C107.891 22.4331 108.097 22.2631 108.251 22.0298C108.404 21.8031 108.481 21.5164 108.481 21.1698V20.3698C108.294 20.6831 108.037 20.9298 107.711 21.1098C107.384 21.2831 107.041 21.3698 106.681 21.3698ZM107.041 20.4798C107.207 20.4798 107.367 20.4531 107.521 20.3998C107.674 20.3398 107.814 20.2631 107.941 20.1698C108.074 20.0698 108.187 19.9598 108.281 19.8398C108.374 19.7131 108.441 19.5798 108.481 19.4398V18.0698C108.394 17.8431 108.271 17.6464 108.111 17.4798C107.951 17.3064 107.771 17.1731 107.571 17.0798C107.371 16.9864 107.167 16.9398 106.961 16.9398C106.721 16.9398 106.504 16.9931 106.311 17.0998C106.124 17.1998 105.964 17.3364 105.831 17.5098C105.697 17.6764 105.594 17.8664 105.521 18.0798C105.447 18.2931 105.411 18.5131 105.411 18.7398C105.411 18.9798 105.451 19.2031 105.531 19.4098C105.617 19.6164 105.734 19.8031 105.881 19.9698C106.027 20.1298 106.201 20.2564 106.401 20.3498C106.601 20.4364 106.814 20.4798 107.041 20.4798ZM112.19 19.7898C112.19 19.4564 112.284 19.1664 112.47 18.9198C112.664 18.6664 112.927 18.4731 113.26 18.3398C113.594 18.1998 113.98 18.1298 114.42 18.1298C114.654 18.1298 114.89 18.1464 115.13 18.1798C115.377 18.2131 115.594 18.2664 115.78 18.3398V18.0098C115.78 17.6431 115.67 17.3564 115.45 17.1498C115.23 16.9431 114.914 16.8398 114.5 16.8398C114.207 16.8398 113.93 16.8931 113.67 16.9998C113.41 17.0998 113.134 17.2431 112.84 17.4298L112.47 16.6898C112.817 16.4564 113.164 16.2831 113.51 16.1698C113.864 16.0564 114.234 15.9998 114.62 15.9998C115.32 15.9998 115.87 16.1864 116.27 16.5598C116.677 16.9264 116.88 17.4498 116.88 18.1298V20.0798C116.88 20.2064 116.9 20.2964 116.94 20.3498C116.987 20.4031 117.064 20.4331 117.17 20.4398V21.3198C117.07 21.3398 116.98 21.3531 116.9 21.3598C116.82 21.3664 116.754 21.3698 116.7 21.3698C116.467 21.3698 116.29 21.3131 116.17 21.1998C116.05 21.0864 115.98 20.9531 115.96 20.7998L115.93 20.4998C115.704 20.7931 115.414 21.0198 115.06 21.1798C114.707 21.3398 114.35 21.4198 113.99 21.4198C113.644 21.4198 113.334 21.3498 113.06 21.2098C112.787 21.0631 112.574 20.8664 112.42 20.6198C112.267 20.3731 112.19 20.0964 112.19 19.7898ZM115.52 20.1098C115.6 20.0231 115.664 19.9364 115.71 19.8498C115.757 19.7631 115.78 19.6864 115.78 19.6198V19.0198C115.594 18.9464 115.397 18.8931 115.19 18.8598C114.984 18.8198 114.78 18.7998 114.58 18.7998C114.18 18.7998 113.854 18.8798 113.6 19.0398C113.354 19.1998 113.23 19.4198 113.23 19.6998C113.23 19.8531 113.27 19.9998 113.35 20.1398C113.437 20.2798 113.557 20.3931 113.71 20.4798C113.87 20.5664 114.067 20.6098 114.3 20.6098C114.54 20.6098 114.77 20.5631 114.99 20.4698C115.21 20.3764 115.387 20.2564 115.52 20.1098ZM119.885 21.3698C119.532 21.3698 119.208 21.2998 118.915 21.1598C118.622 21.0131 118.368 20.8164 118.155 20.5698C117.948 20.3231 117.785 20.0398 117.665 19.7198C117.552 19.3998 117.495 19.0631 117.495 18.7098C117.495 18.3364 117.555 17.9864 117.675 17.6598C117.795 17.3331 117.962 17.0464 118.175 16.7998C118.395 16.5464 118.652 16.3498 118.945 16.2098C119.238 16.0698 119.565 15.9998 119.925 15.9998C120.345 15.9998 120.712 16.0998 121.025 16.2998C121.345 16.4998 121.608 16.7598 121.815 17.0798V16.0898H122.785V21.1698C122.785 21.6764 122.662 22.1064 122.415 22.4598C122.175 22.8131 121.845 23.0831 121.425 23.2698C121.005 23.4564 120.532 23.5498 120.005 23.5498C119.425 23.5498 118.945 23.4498 118.565 23.2498C118.185 23.0498 117.862 22.7764 117.595 22.4298L118.215 21.8498C118.415 22.1298 118.672 22.3431 118.985 22.4898C119.305 22.6364 119.645 22.7098 120.005 22.7098C120.305 22.7098 120.582 22.6531 120.835 22.5398C121.095 22.4331 121.302 22.2631 121.455 22.0298C121.608 21.8031 121.685 21.5164 121.685 21.1698V20.3698C121.498 20.6831 121.242 20.9298 120.915 21.1098C120.588 21.2831 120.245 21.3698 119.885 21.3698ZM120.245 20.4798C120.412 20.4798 120.572 20.4531 120.725 20.3998C120.878 20.3398 121.018 20.2631 121.145 20.1698C121.278 20.0698 121.392 19.9598 121.485 19.8398C121.578 19.7131 121.645 19.5798 121.685 19.4398V18.0698C121.598 17.8431 121.475 17.6464 121.315 17.4798C121.155 17.3064 120.975 17.1731 120.775 17.0798C120.575 16.9864 120.372 16.9398 120.165 16.9398C119.925 16.9398 119.708 16.9931 119.515 17.0998C119.328 17.1998 119.168 17.3364 119.035 17.5098C118.902 17.6764 118.798 17.8664 118.725 18.0798C118.652 18.2931 118.615 18.5131 118.615 18.7398C118.615 18.9798 118.655 19.2031 118.735 19.4098C118.822 19.6164 118.938 19.8031 119.085 19.9698C119.232 20.1298 119.405 20.2564 119.605 20.3498C119.805 20.4364 120.018 20.4798 120.245 20.4798ZM126.074 21.4198C125.667 21.4198 125.297 21.3498 124.964 21.2098C124.637 21.0631 124.354 20.8664 124.114 20.6198C123.874 20.3664 123.687 20.0798 123.554 19.7598C123.427 19.4331 123.364 19.0864 123.364 18.7198C123.364 18.2264 123.477 17.7764 123.704 17.3698C123.931 16.9564 124.247 16.6264 124.654 16.3798C125.061 16.1264 125.537 15.9998 126.084 15.9998C126.631 15.9998 127.101 16.1264 127.494 16.3798C127.894 16.6264 128.204 16.9531 128.424 17.3598C128.644 17.7664 128.754 18.2031 128.754 18.6698C128.754 18.7498 128.751 18.8264 128.744 18.8998C128.737 18.9664 128.731 19.0231 128.724 19.0698H124.534C124.554 19.3764 124.637 19.6464 124.784 19.8798C124.937 20.1064 125.131 20.2864 125.364 20.4198C125.597 20.5464 125.847 20.6098 126.114 20.6098C126.407 20.6098 126.684 20.5364 126.944 20.3898C127.211 20.2431 127.391 20.0498 127.484 19.8098L128.424 20.0798C128.311 20.3331 128.137 20.5631 127.904 20.7698C127.677 20.9698 127.407 21.1298 127.094 21.2498C126.781 21.3631 126.441 21.4198 126.074 21.4198ZM124.504 18.3398H127.664C127.644 18.0398 127.557 17.7764 127.404 17.5498C127.257 17.3164 127.067 17.1364 126.834 17.0098C126.607 16.8764 126.354 16.8098 126.074 16.8098C125.801 16.8098 125.547 16.8764 125.314 17.0098C125.087 17.1364 124.901 17.3164 124.754 17.5498C124.607 17.7764 124.524 18.0398 124.504 18.3398ZM133.941 21.3198H132.841V18.3898C132.841 17.9031 132.761 17.5464 132.601 17.3198C132.448 17.0931 132.218 16.9798 131.911 16.9798C131.698 16.9798 131.484 17.0331 131.271 17.1398C131.064 17.2464 130.878 17.3931 130.711 17.5798C130.544 17.7598 130.424 17.9698 130.351 18.2098V21.3198H129.251V16.0898H130.251V17.1398C130.384 16.9064 130.558 16.7064 130.771 16.5398C130.991 16.3664 131.238 16.2331 131.511 16.1398C131.784 16.0464 132.074 15.9998 132.381 15.9998C132.694 15.9998 132.951 16.0564 133.151 16.1698C133.358 16.2831 133.518 16.4398 133.631 16.6398C133.751 16.8331 133.831 17.0598 133.871 17.3198C133.918 17.5731 133.941 17.8431 133.941 18.1298V21.3198ZM137.188 21.4198C136.781 21.4198 136.411 21.3498 136.078 21.2098C135.751 21.0631 135.468 20.8631 135.228 20.6098C134.988 20.3564 134.801 20.0664 134.668 19.7398C134.541 19.4131 134.478 19.0664 134.478 18.6998C134.478 18.2064 134.588 17.7564 134.808 17.3498C135.035 16.9431 135.348 16.6164 135.748 16.3698C136.155 16.1231 136.635 15.9998 137.188 15.9998C137.721 15.9998 138.185 16.1198 138.578 16.3598C138.978 16.5931 139.271 16.9064 139.458 17.2998L138.388 17.6398C138.268 17.4198 138.098 17.2498 137.878 17.1298C137.665 17.0031 137.428 16.9398 137.168 16.9398C136.875 16.9398 136.608 17.0164 136.368 17.1698C136.135 17.3164 135.948 17.5231 135.808 17.7898C135.675 18.0498 135.608 18.3531 135.608 18.6998C135.608 19.0331 135.678 19.3364 135.818 19.6098C135.958 19.8764 136.145 20.0898 136.378 20.2498C136.618 20.4031 136.885 20.4798 137.178 20.4798C137.358 20.4798 137.531 20.4498 137.698 20.3898C137.871 20.3231 138.021 20.2364 138.148 20.1298C138.275 20.0164 138.365 19.8931 138.418 19.7598L139.498 20.0798C139.385 20.3398 139.215 20.5698 138.988 20.7698C138.768 20.9698 138.505 21.1298 138.198 21.2498C137.898 21.3631 137.561 21.4198 137.188 21.4198ZM140.086 22.5498C140.186 22.5631 140.283 22.5764 140.376 22.5898C140.476 22.6098 140.556 22.6198 140.616 22.6198C140.73 22.6198 140.826 22.5831 140.906 22.5098C140.993 22.4431 141.08 22.3164 141.166 22.1298C141.253 21.9431 141.36 21.6731 141.486 21.3198L139.336 16.0898H140.486L142.086 20.1998L143.506 16.0898H144.566L142.196 22.5298C142.123 22.7231 142.016 22.8998 141.876 23.0598C141.736 23.2264 141.563 23.3564 141.356 23.4498C141.15 23.5431 140.906 23.5898 140.626 23.5898C140.546 23.5898 140.463 23.5831 140.376 23.5698C140.29 23.5564 140.193 23.5364 140.086 23.5098V22.5498ZM145.025 16.4098L145.235 15.2298H144.885V13.9898H145.965V15.2398L145.635 16.4098H145.025ZM146.645 16.4098L146.855 15.2298H146.505V13.9898H147.585V15.2398L147.255 16.4098H146.645Z" fill="#006DFF"/>
<defs>
<clipPath id="clip0_2003_1672">
<rect width="17.8197" height="17.8197" fill="white" transform="translate(8.90985 8.90985)"/>
</clipPath>
</defs>
</svg>
