<svg width="130" height="26" viewBox="0 0 130 26" fill="none" xmlns="http://www.w3.org/2000/svg">
<path d="M13.103 21.6724C12.8257 21.6724 12.5483 21.5665 12.3366 21.3547L8.00065 17.0188C7.5771 16.5952 7.5771 15.9094 8.00065 15.4859C8.4242 15.0623 9.10999 15.0623 9.53354 15.4859L13.1033 19.0556L25.3451 6.81376C25.7687 6.39021 26.4545 6.39021 26.878 6.81376C27.3016 7.23731 27.3016 7.9231 26.878 8.34665L13.8697 21.355C13.6577 21.5665 13.3804 21.6724 13.103 21.6724ZM19.2898 21.355L26.878 13.7667C27.3016 13.3431 27.3016 12.6573 26.878 12.2338C26.4545 11.8102 25.7687 11.8102 25.3451 12.2338L17.7569 19.8221C17.3333 20.2456 17.3333 20.9314 17.7569 21.355C17.9686 21.5667 18.246 21.6726 18.5233 21.6726C18.8007 21.6724 19.078 21.5665 19.2898 21.355Z" fill="#0BAE63"/>
<path d="M38.0091 19.5V6.72H46.5231V8.502H40.0251V12.318H45.4611V13.992H40.0251V19.5H38.0091ZM47.2989 6.36H49.2789V16.782C49.2789 17.262 49.3509 17.568 49.4949 17.7C49.6389 17.832 49.8189 17.898 50.0349 17.898C50.2749 17.898 50.4969 17.874 50.7009 17.826C50.9169 17.778 51.1029 17.718 51.2589 17.646L51.5469 19.212C51.2589 19.332 50.9169 19.434 50.5209 19.518C50.1249 19.602 49.7709 19.644 49.4589 19.644C48.7869 19.644 48.2589 19.458 47.8749 19.086C47.4909 18.702 47.2989 18.174 47.2989 17.502V6.36ZM56.025 19.68C55.281 19.68 54.615 19.554 54.027 19.302C53.439 19.038 52.929 18.678 52.497 18.222C52.077 17.766 51.753 17.25 51.525 16.674C51.297 16.086 51.183 15.462 51.183 14.802C51.183 14.142 51.297 13.518 51.525 12.93C51.753 12.342 52.077 11.826 52.497 11.382C52.929 10.926 53.439 10.572 54.027 10.32C54.627 10.056 55.293 9.924 56.025 9.924C56.757 9.924 57.417 10.056 58.005 10.32C58.605 10.572 59.115 10.926 59.535 11.382C59.967 11.826 60.297 12.342 60.525 12.93C60.753 13.518 60.867 14.142 60.867 14.802C60.867 15.462 60.753 16.086 60.525 16.674C60.297 17.25 59.967 17.766 59.535 18.222C59.115 18.678 58.605 19.038 58.005 19.302C57.417 19.554 56.757 19.68 56.025 19.68ZM53.217 14.82C53.217 15.42 53.343 15.96 53.595 16.44C53.847 16.92 54.183 17.298 54.603 17.574C55.023 17.85 55.497 17.988 56.025 17.988C56.541 17.988 57.009 17.85 57.429 17.574C57.861 17.286 58.203 16.902 58.455 16.422C58.707 15.93 58.833 15.39 58.833 14.802C58.833 14.202 58.707 13.662 58.455 13.182C58.203 12.702 57.861 12.324 57.429 12.048C57.009 11.76 56.541 11.616 56.025 11.616C55.497 11.616 55.023 11.76 54.603 12.048C54.183 12.336 53.847 12.72 53.595 13.2C53.343 13.668 53.217 14.208 53.217 14.82ZM73.1427 10.086H75.0327L71.0727 19.5H69.3807L67.6887 15.252L65.9967 19.5H64.3047L60.3267 10.086H62.2167L65.2407 17.574L66.5727 14.1L64.9527 10.104H66.6267L67.6887 13.038L68.7327 10.104H70.4067L68.8047 14.1L70.1367 17.574L73.1427 10.086ZM75.9705 19.5V11.85H74.7105V10.32H75.9705V9.942C75.9705 9.174 76.0905 8.508 76.3305 7.944C76.5825 7.38 76.9305 6.948 77.3745 6.648C77.8305 6.336 78.3645 6.18 78.9765 6.18C79.3605 6.18 79.7385 6.234 80.1105 6.342C80.4825 6.438 80.8365 6.576 81.1725 6.756L80.7405 8.232C80.5605 8.112 80.3445 8.022 80.0925 7.962C79.8525 7.89 79.6185 7.854 79.3905 7.854C78.9345 7.854 78.5805 8.028 78.3285 8.376C78.0765 8.724 77.9505 9.228 77.9505 9.888V10.32H80.3625V11.85H77.9505V19.5H75.9705ZM80.8565 15.846V10.086H82.8365V15.45C82.8365 16.29 82.9865 16.926 83.2865 17.358C83.5985 17.778 84.0485 17.988 84.6365 17.988C85.0085 17.988 85.3685 17.91 85.7165 17.754C86.0765 17.598 86.4005 17.37 86.6885 17.07C86.9885 16.758 87.2285 16.386 87.4085 15.954V10.086H89.3885V17.268C89.3885 17.496 89.4305 17.658 89.5145 17.754C89.5985 17.85 89.7365 17.904 89.9285 17.916V19.5C89.7245 19.536 89.5565 19.56 89.4245 19.572C89.2925 19.584 89.1665 19.59 89.0465 19.59C88.6865 19.59 88.3865 19.494 88.1465 19.302C87.9065 19.098 87.7685 18.84 87.7325 18.528L87.6965 17.592C87.2765 18.276 86.7305 18.798 86.0585 19.158C85.3865 19.506 84.6485 19.68 83.8445 19.68C82.8605 19.68 82.1165 19.356 81.6125 18.708C81.1085 18.06 80.8565 17.106 80.8565 15.846ZM99.4573 19.5H97.4773V14.226C97.4773 13.35 97.3333 12.708 97.0453 12.3C96.7693 11.892 96.3553 11.688 95.8033 11.688C95.4193 11.688 95.0353 11.784 94.6513 11.976C94.2793 12.168 93.9433 12.432 93.6433 12.768C93.3433 13.092 93.1273 13.47 92.9953 13.902V19.5H91.0153V10.086H92.8153V11.976C93.0553 11.556 93.3673 11.196 93.7513 10.896C94.1473 10.584 94.5913 10.344 95.0833 10.176C95.5753 10.008 96.0973 9.924 96.6493 9.924C97.2133 9.924 97.6753 10.026 98.0353 10.23C98.4073 10.434 98.6953 10.716 98.8993 11.076C99.1153 11.424 99.2593 11.832 99.3313 12.3C99.4153 12.756 99.4573 13.242 99.4573 13.758V19.5ZM109.298 19.5H107.318V14.226C107.318 13.35 107.174 12.708 106.886 12.3C106.61 11.892 106.196 11.688 105.644 11.688C105.26 11.688 104.876 11.784 104.492 11.976C104.12 12.168 103.784 12.432 103.484 12.768C103.184 13.092 102.968 13.47 102.836 13.902V19.5H100.856V10.086H102.656V11.976C102.896 11.556 103.208 11.196 103.592 10.896C103.988 10.584 104.432 10.344 104.924 10.176C105.416 10.008 105.938 9.924 106.49 9.924C107.054 9.924 107.516 10.026 107.876 10.23C108.248 10.434 108.536 10.716 108.74 11.076C108.956 11.424 109.1 11.832 109.172 12.3C109.256 12.756 109.298 13.242 109.298 13.758V19.5ZM114.962 19.68C114.23 19.68 113.564 19.554 112.964 19.302C112.376 19.038 111.866 18.684 111.434 18.24C111.002 17.784 110.666 17.268 110.426 16.692C110.198 16.104 110.084 15.48 110.084 14.82C110.084 13.932 110.288 13.122 110.696 12.39C111.104 11.646 111.674 11.052 112.406 10.608C113.138 10.152 113.996 9.924 114.98 9.924C115.964 9.924 116.81 10.152 117.518 10.608C118.238 11.052 118.796 11.64 119.192 12.372C119.588 13.104 119.786 13.89 119.786 14.73C119.786 14.874 119.78 15.012 119.768 15.144C119.756 15.264 119.744 15.366 119.732 15.45H112.19C112.226 16.002 112.376 16.488 112.64 16.908C112.916 17.316 113.264 17.64 113.684 17.88C114.104 18.108 114.554 18.222 115.034 18.222C115.562 18.222 116.06 18.09 116.528 17.826C117.008 17.562 117.332 17.214 117.5 16.782L119.192 17.268C118.988 17.724 118.676 18.138 118.256 18.51C117.848 18.87 117.362 19.158 116.798 19.374C116.234 19.578 115.622 19.68 114.962 19.68ZM112.136 14.136H117.824C117.788 13.596 117.632 13.122 117.356 12.714C117.092 12.294 116.75 11.97 116.33 11.742C115.922 11.502 115.466 11.382 114.962 11.382C114.47 11.382 114.014 11.502 113.594 11.742C113.186 11.97 112.85 12.294 112.586 12.714C112.322 13.122 112.172 13.596 112.136 14.136ZM120.519 6.36H122.499V16.782C122.499 17.262 122.571 17.568 122.715 17.7C122.859 17.832 123.039 17.898 123.255 17.898C123.495 17.898 123.717 17.874 123.921 17.826C124.137 17.778 124.323 17.718 124.479 17.646L124.767 19.212C124.479 19.332 124.137 19.434 123.741 19.518C123.345 19.602 122.991 19.644 122.679 19.644C122.007 19.644 121.479 19.458 121.095 19.086C120.711 18.702 120.519 18.174 120.519 17.502V6.36Z" fill="#3D3D3D"/>
</svg>
