<svg width="153" height="31" viewBox="0 0 153 31" fill="none" xmlns="http://www.w3.org/2000/svg">
<rect width="152.381" height="30.5455" rx="15.2727" fill="white"/>
<g clip-path="url(#clip0_2045_799)">
<path d="M15.2727 22.9094C19.4902 22.9094 22.9091 19.4905 22.9091 15.2731C22.9091 11.0556 19.4902 7.63672 15.2727 7.63672C11.0553 7.63672 7.63635 11.0556 7.63635 15.2731C7.63635 19.4905 11.0553 22.9094 15.2727 22.9094Z" fill="#0052FF"/>
<path d="M15.2709 15.6502L11.2457 13.6421V17.6321C11.2463 17.8344 11.3269 18.0282 11.4699 18.1712C11.6129 18.3143 11.8068 18.3949 12.0091 18.3954H18.5364C18.7386 18.3949 18.9325 18.3143 19.0755 18.1712C19.2186 18.0282 19.2992 17.8344 19.2997 17.6321V13.6841L15.2709 15.6502Z" fill="white"/>
<path d="M15.2745 14.8961L19.2997 12.9315V12.9142C19.2992 12.7119 19.2186 12.5181 19.0755 12.3751C18.9325 12.232 18.7386 12.1514 18.5364 12.1509H12.0091C11.8114 12.1513 11.6216 12.2281 11.4793 12.3653C11.3371 12.5024 11.2534 12.6893 11.2457 12.8868L15.2745 14.8961Z" fill="white"/>
</g>
<path d="M35.2402 12.719C35.1896 12.2453 34.9763 11.8765 34.6003 11.6126C34.2279 11.3486 33.7433 11.2166 33.1468 11.2166C32.7273 11.2166 32.3676 11.2799 32.0675 11.4065C31.7674 11.533 31.5378 11.7048 31.3787 11.9217C31.2196 12.1387 31.1382 12.3863 31.1346 12.6647C31.1346 12.8961 31.187 13.0968 31.2919 13.2668C31.4004 13.4367 31.5468 13.5813 31.7312 13.7006C31.9156 13.8163 32.1199 13.914 32.3441 13.9935C32.5682 14.0731 32.7942 14.1399 33.022 14.1942L34.0633 14.4545C34.4828 14.5521 34.8859 14.6841 35.2728 14.8504C35.6633 15.0168 36.0122 15.2265 36.3195 15.4796C36.6305 15.7327 36.8764 16.0382 37.0571 16.3961C37.2379 16.7541 37.3283 17.1735 37.3283 17.6544C37.3283 18.3052 37.162 18.8783 36.8294 19.3737C36.4967 19.8654 36.0158 20.2505 35.3867 20.5289C34.7612 20.8037 34.0037 20.9411 33.1142 20.9411C32.2501 20.9411 31.4998 20.8073 30.8634 20.5397C30.2307 20.2722 29.7353 19.8817 29.3774 19.3682C29.023 18.8548 28.8314 18.2293 28.8025 17.4917H30.7821C30.811 17.8786 30.9303 18.2004 31.14 18.4571C31.3498 18.7138 31.6227 18.9054 31.959 19.032C32.2989 19.1585 32.6785 19.2218 33.0979 19.2218C33.5354 19.2218 33.9187 19.1567 34.2477 19.0266C34.5804 18.8928 34.8407 18.7084 35.0287 18.4734C35.2167 18.2347 35.3126 17.9563 35.3162 17.6381C35.3126 17.3489 35.2276 17.1102 35.0613 16.9222C34.8949 16.7306 34.6617 16.5715 34.3616 16.445C34.0651 16.3148 33.718 16.1991 33.3203 16.0978L32.0566 15.7724C31.1419 15.5374 30.4187 15.1813 29.8872 14.704C29.3593 14.2231 29.0954 13.5849 29.0954 12.7895C29.0954 12.135 29.2725 11.5619 29.6269 11.0702C29.9848 10.5785 30.4711 10.197 31.0858 9.92584C31.7005 9.65105 32.3965 9.51365 33.1739 9.51365C33.9621 9.51365 34.6527 9.65105 35.2457 9.92584C35.8423 10.197 36.3105 10.5749 36.6504 11.0594C36.9902 11.5403 37.1656 12.0935 37.1765 12.719H35.2402ZM42.1125 20.9357C41.2773 20.9357 40.5559 20.7621 39.9485 20.415C39.3447 20.0643 38.88 19.5689 38.5546 18.9289C38.2292 18.2853 38.0665 17.5279 38.0665 16.6565C38.0665 15.7996 38.2292 15.0475 38.5546 14.4003C38.8837 13.7494 39.3429 13.2432 39.9322 12.8817C40.5216 12.5165 41.214 12.3339 42.0094 12.3339C42.5229 12.3339 43.0074 12.4171 43.463 12.5834C43.9221 12.7461 44.3271 12.9992 44.6778 13.3427C45.0322 13.6862 45.3106 14.1237 45.5131 14.6552C45.7155 15.1831 45.8168 15.8122 45.8168 16.5426V17.1446H38.9885V15.8212H43.9348C43.9312 15.4452 43.8498 15.1108 43.6907 14.8179C43.5317 14.5214 43.3093 14.2882 43.0236 14.1182C42.7416 13.9483 42.4126 13.8633 42.0366 13.8633C41.6352 13.8633 41.2827 13.961 40.979 14.1562C40.6752 14.3478 40.4384 14.6009 40.2685 14.9155C40.1022 15.2265 40.0172 15.5681 40.0136 15.9406V17.0958C40.0136 17.5803 40.1022 17.9961 40.2793 18.3432C40.4565 18.6867 40.7042 18.9506 41.0224 19.135C41.3405 19.3158 41.713 19.4062 42.1396 19.4062C42.4252 19.4062 42.6838 19.3664 42.9152 19.2869C43.1466 19.2037 43.3473 19.0826 43.5172 18.9235C43.6871 18.7644 43.8155 18.5674 43.9023 18.3324L45.7354 18.5384C45.6197 19.0229 45.3992 19.446 45.0737 19.8076C44.752 20.1655 44.3398 20.4439 43.8372 20.6428C43.3346 20.838 42.7597 20.9357 42.1125 20.9357ZM48.8302 15.8918V20.7729H46.8668V12.4424H48.7434V13.8579H48.841C49.0326 13.3915 49.3382 13.0209 49.7576 12.7461C50.1806 12.4713 50.7031 12.3339 51.325 12.3339C51.8999 12.3339 52.4007 12.4568 52.8273 12.7027C53.2576 12.9486 53.5902 13.3047 53.8252 13.7711C54.0639 14.2376 54.1814 14.8034 54.1778 15.4687V20.7729H52.2145V15.7724C52.2145 15.2156 52.0698 14.7799 51.7806 14.4654C51.4949 14.1508 51.099 13.9935 50.5928 13.9935C50.2493 13.9935 49.9438 14.0694 49.6762 14.2213C49.4123 14.3695 49.2044 14.5847 49.0525 14.8667C48.9043 15.1487 48.8302 15.4904 48.8302 15.8918ZM58.6542 20.9194C57.9997 20.9194 57.414 20.7513 56.8969 20.415C56.3799 20.0787 55.9713 19.5906 55.6712 18.9506C55.3711 18.3107 55.2211 17.5333 55.2211 16.6185C55.2211 15.6929 55.3729 14.9119 55.6766 14.2755C55.984 13.6356 56.398 13.1529 56.9186 12.8274C57.4393 12.4984 58.0196 12.3339 58.6596 12.3339C59.1477 12.3339 59.549 12.4171 59.8636 12.5834C60.1782 12.7461 60.4277 12.9431 60.6121 13.1746C60.7965 13.4023 60.9393 13.6175 61.0405 13.82H61.1219V9.66551H63.0906V20.7729H61.1598V19.4604H61.0405C60.9393 19.6629 60.7929 19.8781 60.6012 20.1059C60.4096 20.33 60.1565 20.5217 59.8419 20.6807C59.5274 20.8398 59.1314 20.9194 58.6542 20.9194ZM59.2019 19.3086C59.6177 19.3086 59.9721 19.1965 60.265 18.9723C60.5578 18.7445 60.7802 18.4282 60.9321 18.0232C61.0839 17.6182 61.1598 17.1464 61.1598 16.6077C61.1598 16.0689 61.0839 15.6007 60.9321 15.203C60.7838 14.8052 60.5633 14.4961 60.2704 14.2755C59.9811 14.055 59.625 13.9447 59.2019 13.9447C58.7644 13.9447 58.3993 14.0586 58.1064 14.2864C57.8135 14.5142 57.593 14.8287 57.4447 15.2301C57.2965 15.6314 57.2223 16.0906 57.2223 16.6077C57.2223 17.1283 57.2965 17.5929 57.4447 18.0015C57.5966 18.4065 57.8189 18.7265 58.1118 18.9615C58.4083 19.1929 58.7717 19.3086 59.2019 19.3086ZM71.3831 20.9357C70.5515 20.9357 69.8374 20.7531 69.2408 20.3879C68.6478 20.0227 68.1904 19.5183 67.8686 18.8747C67.5504 18.2275 67.3913 17.4827 67.3913 16.6402C67.3913 15.7941 67.5541 15.0475 67.8795 14.4003C68.2049 13.7494 68.6641 13.2432 69.257 12.8817C69.8536 12.5165 70.5587 12.3339 71.3722 12.3339C72.0484 12.3339 72.6468 12.4586 73.1674 12.7081C73.6917 12.954 74.1093 13.3029 74.4203 13.7549C74.7312 14.2032 74.9084 14.7275 74.9518 15.3277H73.0752C72.9993 14.9264 72.8185 14.5919 72.5329 14.3243C72.2509 14.0532 71.873 13.9176 71.3994 13.9176C70.998 13.9176 70.6455 14.026 70.3418 14.243C70.038 14.4563 69.8012 14.7637 69.6313 15.165C69.465 15.5663 69.3818 16.0472 69.3818 16.6077C69.3818 17.1753 69.465 17.6634 69.6313 18.072C69.7976 18.477 70.0308 18.7897 70.3309 19.0103C70.6346 19.2272 70.9908 19.3357 71.3994 19.3357C71.6886 19.3357 71.9471 19.2815 72.1749 19.173C72.4063 19.0609 72.5998 18.9 72.7552 18.6903C72.9107 18.4806 73.0174 18.2257 73.0752 17.9256H74.9518C74.9048 18.5149 74.7312 19.0374 74.4311 19.493C74.131 19.945 73.7224 20.2993 73.2054 20.556C72.6884 20.8091 72.0809 20.9357 71.3831 20.9357ZM79.5868 20.9357C78.7733 20.9357 78.0682 20.7567 77.4716 20.3987C76.875 20.0408 76.4122 19.54 76.0832 18.8964C75.7578 18.2528 75.5951 17.5007 75.5951 16.6402C75.5951 15.7797 75.7578 15.0258 76.0832 14.3786C76.4122 13.7314 76.875 13.2288 77.4716 12.8708C78.0682 12.5129 78.7733 12.3339 79.5868 12.3339C80.4003 12.3339 81.1054 12.5129 81.702 12.8708C82.2986 13.2288 82.7596 13.7314 83.085 14.3786C83.414 15.0258 83.5785 15.7797 83.5785 16.6402C83.5785 17.5007 83.414 18.2528 83.085 18.8964C82.7596 19.54 82.2986 20.0408 81.702 20.3987C81.1054 20.7567 80.4003 20.9357 79.5868 20.9357ZM79.5976 19.3628C80.0388 19.3628 80.4076 19.2417 80.7041 18.9994C81.0005 18.7536 81.2211 18.4246 81.3657 18.0124C81.514 17.6002 81.5881 17.141 81.5881 16.6348C81.5881 16.125 81.514 15.664 81.3657 15.2518C81.2211 14.836 81.0005 14.5051 80.7041 14.2593C80.4076 14.0134 80.0388 13.8905 79.5976 13.8905C79.1457 13.8905 78.7697 14.0134 78.4696 14.2593C78.1731 14.5051 77.9507 14.836 77.8025 15.2518C77.6578 15.664 77.5855 16.125 77.5855 16.6348C77.5855 17.141 77.6578 17.6002 77.8025 18.0124C77.9507 18.4246 78.1731 18.7536 78.4696 18.9994C78.7697 19.2417 79.1457 19.3628 79.5976 19.3628ZM86.5973 9.66551V20.7729H84.634V9.66551H86.5973ZM91.0968 20.9194C90.4423 20.9194 89.8566 20.7513 89.3395 20.415C88.8225 20.0787 88.4139 19.5906 88.1138 18.9506C87.8137 18.3107 87.6637 17.5333 87.6637 16.6185C87.6637 15.6929 87.8155 14.9119 88.1192 14.2755C88.4266 13.6356 88.8406 13.1529 89.3612 12.8274C89.8819 12.4984 90.4622 12.3339 91.1022 12.3339C91.5903 12.3339 91.9917 12.4171 92.3062 12.5834C92.6208 12.7461 92.8703 12.9431 93.0547 13.1746C93.2391 13.4023 93.3819 13.6175 93.4831 13.82H93.5645V9.66551H95.5332V20.7729H93.6025V19.4604H93.4831C93.3819 19.6629 93.2355 19.8781 93.0438 20.1059C92.8522 20.33 92.5991 20.5217 92.2845 20.6807C91.97 20.8398 91.574 20.9194 91.0968 20.9194ZM91.6446 19.3086C92.0604 19.3086 92.4147 19.1965 92.7076 18.9723C93.0004 18.7445 93.2228 18.4282 93.3747 18.0232C93.5265 17.6182 93.6025 17.1464 93.6025 16.6077C93.6025 16.0689 93.5265 15.6007 93.3747 15.203C93.2264 14.8052 93.0059 14.4961 92.713 14.2755C92.4237 14.055 92.0676 13.9447 91.6446 13.9447C91.2071 13.9447 90.8419 14.0586 90.549 14.2864C90.2561 14.5142 90.0356 14.8287 89.8873 15.2301C89.7391 15.6314 89.665 16.0906 89.665 16.6077C89.665 17.1283 89.7391 17.5929 89.8873 18.0015C90.0392 18.4065 90.2615 18.7265 90.5544 18.9615C90.8509 19.1929 91.2143 19.3086 91.6446 19.3086ZM103.88 20.9357C103.045 20.9357 102.323 20.7621 101.716 20.415C101.112 20.0643 100.647 19.5689 100.322 18.9289C99.9967 18.2853 99.834 17.5279 99.834 16.6565C99.834 15.7996 99.9967 15.0475 100.322 14.4003C100.651 13.7494 101.11 13.2432 101.7 12.8817C102.289 12.5165 102.981 12.3339 103.777 12.3339C104.29 12.3339 104.775 12.4171 105.23 12.5834C105.69 12.7461 106.095 12.9992 106.445 13.3427C106.8 13.6862 107.078 14.1237 107.281 14.6552C107.483 15.1831 107.584 15.8122 107.584 16.5426V17.1446H100.756V15.8212H105.702C105.699 15.4452 105.617 15.1108 105.458 14.8179C105.299 14.5214 105.077 14.2882 104.791 14.1182C104.509 13.9483 104.18 13.8633 103.804 13.8633C103.403 13.8633 103.05 13.961 102.746 14.1562C102.443 14.3478 102.206 14.6009 102.036 14.9155C101.87 15.2265 101.785 15.5681 101.781 15.9406V17.0958C101.781 17.5803 101.87 17.9961 102.047 18.3432C102.224 18.6867 102.472 18.9506 102.79 19.135C103.108 19.3158 103.48 19.4062 103.907 19.4062C104.193 19.4062 104.451 19.3664 104.683 19.2869C104.914 19.2037 105.115 19.0826 105.285 18.9235C105.455 18.7644 105.583 18.5674 105.67 18.3324L107.503 18.5384C107.387 19.0229 107.167 19.446 106.841 19.8076C106.519 20.1655 106.107 20.4439 105.605 20.6428C105.102 20.838 104.527 20.9357 103.88 20.9357ZM108.634 20.7729V12.4424H110.511V13.8579H110.608C110.782 13.3806 111.069 13.0082 111.471 12.7407C111.872 12.4695 112.351 12.3339 112.908 12.3339C113.472 12.3339 113.948 12.4713 114.334 12.7461C114.725 13.0173 115 13.3879 115.159 13.8579H115.246C115.43 13.3951 115.741 13.0263 116.178 12.7515C116.62 12.4731 117.142 12.3339 117.746 12.3339C118.512 12.3339 119.138 12.5762 119.622 13.0607C120.107 13.5452 120.349 14.252 120.349 15.1813V20.7729H118.38V15.485C118.38 14.9679 118.243 14.5901 117.968 14.3515C117.693 14.1092 117.357 13.9881 116.959 13.9881C116.486 13.9881 116.115 14.1363 115.848 14.4328C115.584 14.7257 115.452 15.1071 115.452 15.5772V20.7729H113.526V15.4036C113.526 14.9734 113.396 14.6299 113.136 14.3732C112.879 14.1164 112.543 13.9881 112.127 13.9881C111.845 13.9881 111.588 14.0604 111.357 14.205C111.125 14.346 110.941 14.5467 110.804 14.807C110.666 15.0638 110.598 15.3639 110.598 15.7073V20.7729H108.634ZM124.127 20.9411C123.599 20.9411 123.124 20.8471 122.701 20.6591C122.281 20.4674 121.949 20.1854 121.703 19.813C121.461 19.4406 121.34 18.9814 121.34 18.4354C121.34 17.9654 121.426 17.5767 121.6 17.2693C121.773 16.962 122.01 16.7161 122.31 16.5317C122.61 16.3473 122.949 16.2081 123.325 16.1141C123.704 16.0165 124.097 15.946 124.501 15.9026C124.99 15.852 125.386 15.8068 125.689 15.767C125.993 15.7236 126.214 15.6585 126.351 15.5718C126.492 15.4814 126.562 15.3422 126.562 15.1541V15.1216C126.562 14.713 126.441 14.3967 126.199 14.1725C125.957 13.9483 125.608 13.8362 125.152 13.8362C124.671 13.8362 124.29 13.9411 124.008 14.1508C123.73 14.3605 123.542 14.6082 123.444 14.8938L121.611 14.6335C121.755 14.1273 121.994 13.7043 122.327 13.3644C122.659 13.0209 123.066 12.7642 123.547 12.5942C124.028 12.4207 124.559 12.3339 125.141 12.3339C125.543 12.3339 125.942 12.3809 126.34 12.4749C126.738 12.5689 127.101 12.7244 127.43 12.9413C127.759 13.1547 128.023 13.4457 128.222 13.8145C128.425 14.1833 128.526 14.6443 128.526 15.1975V20.7729H126.638V19.6286H126.573C126.454 19.86 126.286 20.0769 126.069 20.2794C125.856 20.4783 125.586 20.6392 125.261 20.7621C124.939 20.8814 124.561 20.9411 124.127 20.9411ZM124.637 19.4984C125.031 19.4984 125.373 19.4207 125.662 19.2652C125.951 19.1061 126.174 18.8964 126.329 18.6361C126.488 18.3757 126.568 18.0919 126.568 17.7846V16.8029C126.506 16.8535 126.402 16.9005 126.253 16.9439C126.109 16.9873 125.946 17.0253 125.765 17.0578C125.584 17.0904 125.405 17.1193 125.228 17.1446C125.051 17.1699 124.897 17.1916 124.767 17.2097C124.474 17.2494 124.212 17.3145 123.981 17.4049C123.749 17.4953 123.567 17.6219 123.433 17.7846C123.299 17.9437 123.232 18.1498 123.232 18.4029C123.232 18.7644 123.364 19.0374 123.628 19.2218C123.892 19.4062 124.228 19.4984 124.637 19.4984ZM129.889 20.7729V12.4424H131.852V20.7729H129.889ZM130.876 11.26C130.565 11.26 130.298 11.157 130.073 10.9509C129.849 10.7412 129.737 10.4899 129.737 10.197C129.737 9.90053 129.849 9.64924 130.073 9.44314C130.298 9.23343 130.565 9.12858 130.876 9.12858C131.191 9.12858 131.458 9.23343 131.679 9.44314C131.903 9.64924 132.015 9.90053 132.015 10.197C132.015 10.4899 131.903 10.7412 131.679 10.9509C131.458 11.157 131.191 11.26 130.876 11.26ZM135.224 9.66551V20.7729H133.26V9.66551H135.224Z" fill="#3D3D3D"/>
<defs>
<clipPath id="clip0_2045_799">
<rect width="15.2727" height="15.2727" fill="white" transform="translate(7.63635 7.63672)"/>
</clipPath>
</defs>
</svg>
