<svg width="12" height="12" viewBox="0 0 12 12" fill="none" xmlns="http://www.w3.org/2000/svg">
<path d="M11.9598 4.49003C11.8616 4.17725 11.6043 3.94987 11.2934 3.9024L8.14303 3.4227L6.73533 0.442012C6.4566 -0.147337 5.53538 -0.147337 5.25665 0.442012L3.84894 3.4227L0.70609 3.9024C0.39598 3.94987 0.13787 4.17805 0.0405736 4.49095C-0.0567232 4.80293 0.0241277 5.14607 0.249214 5.37584L2.52867 7.70407L1.99094 10.9889C1.93818 11.313 2.06521 11.6414 2.31914 11.8349C2.46262 11.9438 2.63254 11.9991 2.80322 11.9991C2.93519 11.9991 3.06715 11.9662 3.18912 11.8997L5.99643 10.3484L8.81272 11.8997C9.08981 12.0544 9.42624 12.0284 9.68119 11.834C9.93436 11.6404 10.0614 11.313 10.0086 10.9888L9.47179 7.70394L11.7512 5.37571C11.9762 5.14686 12.0563 4.80293 11.9598 4.49003Z" fill="#3D3D3D"/>
</svg>
