<svg version="1.2" xmlns="http://www.w3.org/2000/svg" viewBox="0 0 123 26" width="123" height="26"><style>tspan{white-space:pre}.a{fill:#fad400}.b{font-size: 14px;fill: #2d2d2d;font-weight: 400;font-family: "Acme-Regular", "Acme"}</style><path fill-rule="evenodd" class="a" d="m13 0h96.2c7.2 0 13 5.8 13 13 0 7.2-5.8 13-13 13h-96.2c-7.2 0-13-5.8-13-13 0-7.2 5.8-13 13-13z"/><path  d="m17.8 10.5h-6.3v-1.3c0-1.4 1.1-2.6 2.5-2.6 1.1 0 2 0.6 2.4 1.6 0.1 0.3 0.4 0.4 0.6 0.3 0.3-0.1 0.4-0.5 0.3-0.7-0.5-1.4-1.8-2.2-3.3-2.2-1.9 0-3.5 1.6-3.5 3.6v1.3h-0.3c-1.1 0-2.1 0.9-2.1 2.1v5.7c0 1.2 1 2.1 2.1 2.1h7.6c1.2 0 2.1-0.9 2.1-2.1v-5.7c0-1.2-0.9-2.1-2.1-2.1zm1.1 7.8c0 0.6-0.5 1.1-1.1 1.1h-7.6c-0.6 0-1-0.5-1-1.1v-5.7c0-0.6 0.4-1 1-1h7.6c0.6 0 1.1 0.4 1.1 1zm-3.9-3c0 0.4-0.2 0.6-0.5 0.8v1.3c0 0.3-0.2 0.5-0.5 0.5-0.3 0-0.5-0.2-0.5-0.5v-1.3c-0.3-0.2-0.4-0.4-0.4-0.8 0-0.5 0.4-0.9 0.9-0.9 0.5 0 1 0.4 1 0.9z"/><text style="transform:matrix(1,0,0,1,30,18)" ><tspan x="0" y="0" class="b">O</tspan><tspan  y="0" class="b">p</tspan><tspan  y="0" class="b">e</tspan><tspan  y="0" class="b">n</tspan><tspan  y="0" class="b"> </tspan><tspan  y="0" class="b">t</tspan><tspan  y="0" class="b">o</tspan><tspan  y="0" class="b"> </tspan><tspan  y="0" class="b">w</tspan><tspan  y="0" class="b">o</tspan><tspan  y="0" class="b">r</tspan><tspan  y="0" class="b">k
</tspan></text></svg>