<svg width="130" height="26" viewBox="0 0 130 26" fill="none" xmlns="http://www.w3.org/2000/svg">
<g clip-path="url(#clip0_2070_608)">
<path d="M6.12158 20.7014C6.12158 21.3862 6.69256 21.9413 7.39691 21.9413H18.6197C19.3241 21.9413 19.8951 21.3862 19.8951 20.7014V17.4777C19.8951 13.7799 16.8118 10.7822 13.0083 10.7822C9.20488 10.7822 6.12158 13.7799 6.12158 17.4777V20.7014Z" fill="#1570EF"/>
<path opacity="0.5" d="M6.12158 5.32681C6.12158 4.64203 6.69256 4.08691 7.39691 4.08691H18.6197C19.3241 4.08691 19.8951 4.64203 19.8951 5.32681V8.55055C19.8951 12.2484 16.8118 15.246 13.0083 15.246C9.20488 15.246 6.12158 12.2484 6.12158 8.55055V5.32681Z" fill="#53B1FD"/>
</g>
<path d="M30.5466 19.5V6.46109H32.6034V17.6819H39.6003V19.5H30.5466ZM44.3587 19.6836C43.6118 19.6836 42.9323 19.5551 42.3202 19.298C41.7203 19.0286 41.1999 18.6675 40.7592 18.2145C40.3184 17.7492 39.9756 17.2228 39.7308 16.6351C39.4981 16.0352 39.3818 15.3986 39.3818 14.7252C39.3818 13.8192 39.59 12.9928 40.0062 12.246C40.4225 11.4869 41.004 10.8809 41.7509 10.4279C42.4977 9.96262 43.3731 9.73 44.377 9.73C45.381 9.73 46.2441 9.96262 46.9664 10.4279C47.701 10.8809 48.2703 11.4808 48.6744 12.2276C49.0784 12.9744 49.2804 13.7763 49.2804 14.6334C49.2804 14.7803 49.2743 14.9211 49.262 15.0558C49.2498 15.1782 49.2375 15.2822 49.2253 15.368H41.5305C41.5672 15.9311 41.7203 16.427 41.9896 16.8555C42.2712 17.2718 42.6263 17.6023 43.0548 17.8472C43.4833 18.0798 43.9424 18.1961 44.4321 18.1961C44.9708 18.1961 45.4789 18.0614 45.9564 17.7921C46.4461 17.5227 46.7767 17.1677 46.9481 16.7269L48.6744 17.2228C48.4662 17.688 48.1479 18.1104 47.7194 18.4899C47.3031 18.8572 46.8073 19.1511 46.2319 19.3714C45.6564 19.5796 45.032 19.6836 44.3587 19.6836ZM41.4754 14.0273H47.2786C47.2419 13.4764 47.0827 12.9928 46.8012 12.5765C46.5318 12.148 46.1829 11.8174 45.7544 11.5848C45.3381 11.34 44.8729 11.2175 44.3587 11.2175C43.8567 11.2175 43.3914 11.34 42.9629 11.5848C42.5467 11.8174 42.2039 12.148 41.9345 12.5765C41.6652 12.9928 41.5121 13.4764 41.4754 14.0273ZM49.3121 16.6902C49.3121 16.0781 49.4835 15.5455 49.8263 15.0925C50.1814 14.6272 50.665 14.2722 51.2771 14.0273C51.8893 13.7702 52.5994 13.6417 53.4074 13.6417C53.8359 13.6417 54.2705 13.6723 54.7113 13.7335C55.1643 13.7947 55.5622 13.8927 55.905 14.0273V13.4213C55.905 12.7479 55.703 12.2215 55.299 11.8419C54.8949 11.4624 54.3134 11.2726 53.5543 11.2726C53.0156 11.2726 52.5075 11.3706 52.0301 11.5665C51.5526 11.7501 51.0445 12.0133 50.5058 12.3561L49.8263 10.9972C50.4629 10.5687 51.0996 10.2503 51.7362 10.0422C52.3851 9.83407 53.0646 9.73 53.7747 9.73C55.0602 9.73 56.0703 10.0728 56.8049 10.7584C57.5517 11.4318 57.9251 12.3929 57.9251 13.6417V17.2228C57.9251 17.4554 57.9618 17.6207 58.0353 17.7186C58.121 17.8166 58.2618 17.8717 58.4577 17.8839V19.5C58.274 19.5367 58.1088 19.5612 57.9618 19.5735C57.8149 19.5857 57.6925 19.5918 57.5946 19.5918C57.166 19.5918 56.8416 19.4878 56.6212 19.2796C56.4008 19.0715 56.2723 18.8266 56.2356 18.545L56.1805 17.9941C55.7642 18.5328 55.2316 18.9491 54.5827 19.2429C53.9339 19.5367 53.2789 19.6836 52.6177 19.6836C51.9811 19.6836 51.4118 19.5551 50.9098 19.298C50.4078 19.0286 50.0161 18.6675 49.7345 18.2145C49.4529 17.7615 49.3121 17.2534 49.3121 16.6902ZM55.4275 17.2779C55.5744 17.1187 55.6907 16.9596 55.7765 16.8004C55.8622 16.6412 55.905 16.5004 55.905 16.378V15.2761C55.5622 15.1415 55.201 15.0435 54.8215 14.9823C54.442 14.9088 54.0685 14.8721 53.7012 14.8721C52.9667 14.8721 52.3667 15.019 51.9015 15.3129C51.4485 15.6067 51.222 16.0107 51.222 16.5249C51.222 16.8065 51.2955 17.0759 51.4424 17.333C51.6016 17.5901 51.8219 17.7982 52.1035 17.9574C52.3974 18.1165 52.7585 18.1961 53.187 18.1961C53.6278 18.1961 54.0502 18.1104 54.4542 17.939C54.8582 17.7676 55.1827 17.5472 55.4275 17.2779ZM58.8517 14.7068C58.8517 13.7886 59.0353 12.9561 59.4026 12.2092C59.7821 11.4502 60.2964 10.8502 60.9452 10.4095C61.5941 9.9565 62.341 9.73 63.1857 9.73C63.9203 9.73 64.5814 9.91977 65.1691 10.2993C65.769 10.6788 66.2343 11.1502 66.5648 11.7134V6.0938H68.5849V17.2228C68.5849 17.4554 68.6278 17.6207 68.7135 17.7186C68.7992 17.8166 68.94 17.8717 69.1359 17.8839V19.5C68.7563 19.5612 68.4625 19.5918 68.2544 19.5918C67.8748 19.5918 67.5504 19.4816 67.2811 19.2613C67.0239 19.0409 66.8893 18.7777 66.877 18.4716L66.8587 17.7554C66.4914 18.3675 65.9955 18.845 65.3711 19.1878C64.7467 19.5184 64.0978 19.6836 63.4245 19.6836C62.7633 19.6836 62.1512 19.5551 61.588 19.298C61.0371 19.0409 60.5535 18.6797 60.1372 18.2145C59.7332 17.7492 59.4149 17.2167 59.1822 16.6167C58.9619 16.0168 58.8517 15.3802 58.8517 14.7068ZM66.5648 16.0474V13.5315C66.4302 13.1397 66.2098 12.7908 65.9037 12.4847C65.6099 12.1664 65.2732 11.9154 64.8936 11.7317C64.5264 11.5481 64.1591 11.4563 63.7918 11.4563C63.3633 11.4563 62.9715 11.5481 62.6164 11.7317C62.2736 11.9154 61.9737 12.1603 61.7166 12.4663C61.4717 12.7724 61.2819 13.1213 61.1473 13.5131C61.0126 13.9049 60.9452 14.315 60.9452 14.7436C60.9452 15.1843 61.0187 15.6006 61.1656 15.9923C61.3125 16.3719 61.5207 16.7147 61.79 17.0208C62.0716 17.3146 62.3899 17.5472 62.745 17.7186C63.1123 17.8778 63.5102 17.9574 63.9387 17.9574C64.208 17.9574 64.4774 17.9084 64.7467 17.8105C65.0283 17.7125 65.2915 17.5778 65.5364 17.4064C65.7935 17.235 66.0078 17.033 66.1792 16.8004C66.3628 16.5678 66.4914 16.3168 66.5648 16.0474ZM70.4718 19.5V6.46109H72.5286V17.6819H79.5255V19.5H70.4718ZM79.3232 16.6902C79.3232 16.0781 79.4947 15.5455 79.8375 15.0925C80.1925 14.6272 80.6761 14.2722 81.2883 14.0273C81.9004 13.7702 82.6105 13.6417 83.4186 13.6417C83.8471 13.6417 84.2817 13.6723 84.7225 13.7335C85.1755 13.7947 85.5734 13.8927 85.9162 14.0273V13.4213C85.9162 12.7479 85.7141 12.2215 85.3101 11.8419C84.9061 11.4624 84.3246 11.2726 83.5655 11.2726C83.0268 11.2726 82.5187 11.3706 82.0412 11.5665C81.5637 11.7501 81.0556 12.0133 80.5169 12.3561L79.8375 10.9972C80.4741 10.5687 81.1107 10.2503 81.7474 10.0422C82.3963 9.83407 83.0758 9.73 83.7859 9.73C85.0714 9.73 86.0814 10.0728 86.816 10.7584C87.5629 11.4318 87.9363 12.3929 87.9363 13.6417V17.2228C87.9363 17.4554 87.973 17.6207 88.0465 17.7186C88.1322 17.8166 88.273 17.8717 88.4688 17.8839V19.5C88.2852 19.5367 88.1199 19.5612 87.973 19.5735C87.8261 19.5857 87.7037 19.5918 87.6057 19.5918C87.1772 19.5918 86.8528 19.4878 86.6324 19.2796C86.412 19.0715 86.2835 18.8266 86.2467 18.545L86.1916 17.9941C85.7754 18.5328 85.2428 18.9491 84.5939 19.2429C83.945 19.5367 83.29 19.6836 82.6289 19.6836C81.9922 19.6836 81.4229 19.5551 80.921 19.298C80.419 19.0286 80.0272 18.6675 79.7456 18.2145C79.464 17.7615 79.3232 17.2534 79.3232 16.6902ZM85.4387 17.2779C85.5856 17.1187 85.7019 16.9596 85.7876 16.8004C85.8733 16.6412 85.9162 16.5004 85.9162 16.378V15.2761C85.5734 15.1415 85.2122 15.0435 84.8326 14.9823C84.4531 14.9088 84.0797 14.8721 83.7124 14.8721C82.9778 14.8721 82.3779 15.019 81.9127 15.3129C81.4597 15.6067 81.2332 16.0107 81.2332 16.5249C81.2332 16.8065 81.3066 17.0759 81.4535 17.333C81.6127 17.5901 81.8331 17.7982 82.1147 17.9574C82.4085 18.1165 82.7697 18.1961 83.1982 18.1961C83.6389 18.1961 84.0613 18.1104 84.4654 17.939C84.8694 17.7676 85.1938 17.5472 85.4387 17.2779ZM89.377 15.772V9.89528H91.3971V15.368C91.3971 16.225 91.5502 16.8739 91.8563 17.3146C92.1746 17.7431 92.6337 17.9574 93.2336 17.9574C93.6131 17.9574 93.9804 17.8778 94.3355 17.7186C94.7028 17.5595 95.0334 17.3268 95.3272 17.0208C95.6333 16.7024 95.8781 16.3229 96.0618 15.8822V9.89528H98.0819V17.2228C98.0819 17.4554 98.1247 17.6207 98.2104 17.7186C98.2961 17.8166 98.4369 17.8717 98.6328 17.8839V19.5C98.4247 19.5367 98.2533 19.5612 98.1186 19.5735C97.9839 19.5857 97.8554 19.5918 97.733 19.5918C97.3657 19.5918 97.0596 19.4939 96.8147 19.298C96.5699 19.0899 96.4291 18.8266 96.3923 18.5083L96.3556 17.5533C95.9271 18.2512 95.37 18.7838 94.6844 19.1511C93.9988 19.5061 93.2459 19.6836 92.4256 19.6836C91.4216 19.6836 90.6626 19.3531 90.1484 18.692C89.6341 18.0308 89.377 17.0575 89.377 15.772ZM108.355 19.5H106.335V14.1192C106.335 13.2254 106.188 12.5704 105.894 12.1541C105.612 11.7379 105.19 11.5297 104.627 11.5297C104.235 11.5297 103.843 11.6277 103.451 11.8236C103.072 12.0195 102.729 12.2888 102.423 12.6316C102.117 12.9622 101.896 13.3478 101.762 13.7886V19.5H99.7416V9.89528H101.578V11.8236C101.823 11.3951 102.141 11.0278 102.533 10.7217C102.937 10.4034 103.39 10.1585 103.892 9.98711C104.394 9.8157 104.927 9.73 105.49 9.73C106.065 9.73 106.537 9.83407 106.904 10.0422C107.283 10.2503 107.577 10.538 107.785 10.9053C108.006 11.2604 108.153 11.6767 108.226 12.1541C108.312 12.6194 108.355 13.1152 108.355 13.6417V19.5ZM114.134 19.6836C113.387 19.6836 112.707 19.5551 112.095 19.298C111.495 19.0286 110.975 18.6613 110.534 18.1961C110.093 17.7309 109.751 17.1983 109.506 16.5984C109.273 15.9985 109.157 15.3618 109.157 14.6885C109.157 13.7825 109.359 12.9561 109.763 12.2092C110.179 11.4624 110.755 10.8625 111.489 10.4095C112.236 9.9565 113.117 9.73 114.134 9.73C115.113 9.73 115.964 9.95038 116.686 10.3911C117.421 10.8196 117.96 11.3951 118.302 12.1174L116.337 12.7418C116.117 12.3378 115.805 12.0256 115.401 11.8052C115.009 11.5726 114.574 11.4563 114.097 11.4563C113.558 11.4563 113.068 11.5971 112.628 11.8787C112.199 12.148 111.856 12.5276 111.599 13.0173C111.354 13.4948 111.232 14.0518 111.232 14.6885C111.232 15.3006 111.361 15.8577 111.618 16.3596C111.875 16.8494 112.218 17.2411 112.646 17.535C113.087 17.8166 113.577 17.9574 114.115 17.9574C114.446 17.9574 114.764 17.9023 115.07 17.7921C115.389 17.6697 115.664 17.5105 115.897 17.3146C116.129 17.1065 116.295 16.88 116.392 16.6351L118.376 17.2228C118.168 17.7003 117.856 18.1227 117.439 18.4899C117.035 18.8572 116.552 19.1511 115.988 19.3714C115.437 19.5796 114.819 19.6836 114.134 19.6836ZM127.734 19.5H125.714V14.1192C125.714 13.2499 125.555 12.601 125.237 12.1725C124.918 11.744 124.472 11.5297 123.896 11.5297C123.541 11.5297 123.174 11.6277 122.794 11.8236C122.415 12.0195 122.078 12.2888 121.784 12.6316C121.49 12.9622 121.276 13.3478 121.141 13.7886V19.5H119.121V6.0938H121.141V11.8236C121.509 11.1747 122.011 10.6666 122.647 10.2993C123.284 9.91977 123.97 9.73 124.704 9.73C125.304 9.73 125.8 9.83407 126.192 10.0422C126.584 10.2503 126.89 10.538 127.11 10.9053C127.343 11.2604 127.502 11.6767 127.587 12.1541C127.685 12.6194 127.734 13.1152 127.734 13.6417V19.5Z" fill="#3D3D3D"/>
<defs>
<clipPath id="clip0_2070_608">
<rect width="13.7735" height="21.4254" fill="white" transform="translate(6.12158 2.30078)"/>
</clipPath>
</defs>
</svg>
