<svg width="154" height="31" viewBox="0 0 154 31" fill="none" xmlns="http://www.w3.org/2000/svg">
<rect width="153.381" height="30.5455" rx="15.2727" fill="white"/>
<g clip-path="url(#clip0_2045_789)">
<path d="M15.2679 22.3123C19.1586 22.3123 22.3127 19.1583 22.3127 15.2675C22.3127 11.3767 19.1586 8.22266 15.2679 8.22266C11.3771 8.22266 8.22302 11.3767 8.22302 15.2675C8.22302 19.1583 11.3771 22.3123 15.2679 22.3123Z" fill="#0BAE63"/>
<path d="M15.2727 22.909C11.0624 22.909 7.63635 19.4835 7.63635 15.2726C7.63635 11.0622 11.0624 7.63623 15.2727 7.63623C19.4837 7.63623 22.9091 11.0622 22.9091 15.2726C22.9091 19.4835 19.4837 22.909 15.2727 22.909ZM15.2727 8.81924C11.7142 8.81924 8.81936 11.7141 8.81936 15.2726C8.81936 18.8311 11.7142 21.7259 15.2727 21.7259C18.8312 21.7259 21.7261 18.8305 21.7261 15.2726C21.7261 11.7141 18.8312 8.81924 15.2727 8.81924Z" fill="#0BAE63"/>
<path d="M19.5363 12.2183C19.2818 11.9637 18.8999 11.9637 18.6454 12.2183L13.8727 16.991L11.8999 15.0183C11.6454 14.7637 11.2636 14.7637 11.009 15.0183C10.7545 15.2728 10.7545 15.6546 11.009 15.9092L13.4272 18.3273C13.5545 18.4546 13.6818 18.5183 13.8727 18.5183C14.0636 18.5183 14.1908 18.4546 14.3181 18.3273L19.5363 13.1092C19.7908 12.8546 19.7908 12.4728 19.5363 12.2183Z" fill="white"/>
</g>
<path d="M28.7157 11.3517V9.66502H37.5778V11.3517H34.1447V20.7725H32.1488V11.3517H28.7157ZM40.5519 15.8913V20.7725H38.5885V9.66502H40.5085V13.8574H40.6061C40.8013 13.3874 41.1033 13.0168 41.5118 12.7456C41.924 12.4708 42.4483 12.3334 43.0847 12.3334C43.6632 12.3334 44.1676 12.4545 44.5978 12.6968C45.0281 12.939 45.3607 13.2934 45.5958 13.7598C45.8344 14.2262 45.9537 14.7957 45.9537 15.4682V20.7725H43.9904V15.7719C43.9904 15.2115 43.8458 14.7758 43.5565 14.4649C43.2709 14.1503 42.8695 13.993 42.3525 13.993C42.0054 13.993 41.6944 14.0689 41.4196 14.2208C41.1485 14.3691 40.9351 14.5842 40.7796 14.8662C40.6278 15.1482 40.5519 15.4899 40.5519 15.8913ZM49.7413 20.9406C49.2134 20.9406 48.738 20.8466 48.3149 20.6586C47.8955 20.4669 47.5629 20.1849 47.317 19.8125C47.0747 19.4401 46.9536 18.9809 46.9536 18.4349C46.9536 17.9649 47.0404 17.5762 47.2139 17.2688C47.3875 16.9615 47.6243 16.7156 47.9244 16.5312C48.2245 16.3468 48.5626 16.2076 48.9386 16.1136C49.3183 16.016 49.7106 15.9455 50.1155 15.9021C50.6037 15.8515 50.9996 15.8063 51.3033 15.7665C51.607 15.7231 51.8276 15.658 51.965 15.5713C52.106 15.4809 52.1765 15.3417 52.1765 15.1537V15.1211C52.1765 14.7125 52.0554 14.3962 51.8131 14.172C51.5709 13.9478 51.2219 13.8357 50.7664 13.8357C50.2855 13.8357 49.904 13.9406 49.622 14.1503C49.3436 14.36 49.1556 14.6077 49.0579 14.8933L47.2248 14.633C47.3694 14.1268 47.608 13.7038 47.9407 13.3639C48.2733 13.0204 48.6801 12.7637 49.161 12.5937C49.6419 12.4202 50.1734 12.3334 50.7555 12.3334C51.1569 12.3334 51.5564 12.3804 51.9541 12.4744C52.3519 12.5684 52.7152 12.7239 53.0443 12.9408C53.3733 13.1542 53.6372 13.4452 53.8361 13.814C54.0386 14.1828 54.1398 14.6438 54.1398 15.197V20.7725H52.2524V19.6281H52.1873C52.068 19.8595 51.8999 20.0764 51.6829 20.2789C51.4696 20.4778 51.2002 20.6387 50.8748 20.7616C50.553 20.8809 50.1752 20.9406 49.7413 20.9406ZM50.2511 19.4979C50.6452 19.4979 50.9869 19.4202 51.2762 19.2647C51.5654 19.1056 51.7878 18.8959 51.9433 18.6356C52.1024 18.3753 52.1819 18.0914 52.1819 17.7841V16.8024C52.1204 16.853 52.0156 16.9 51.8673 16.9434C51.7227 16.9868 51.56 17.0248 51.3792 17.0573C51.1984 17.0899 51.0195 17.1188 50.8423 17.1441C50.6651 17.1694 50.5115 17.1911 50.3813 17.2092C50.0884 17.249 49.8263 17.314 49.5949 17.4044C49.3635 17.4948 49.1809 17.6214 49.0471 17.7841C48.9133 17.9432 48.8464 18.1493 48.8464 18.4024C48.8464 18.7639 48.9784 19.0369 49.2423 19.2213C49.5063 19.4057 49.8426 19.4979 50.2511 19.4979ZM57.4664 15.8913V20.7725H55.5031V12.4419H57.3796V13.8574H57.4773C57.6689 13.391 57.9744 13.0204 58.3938 12.7456C58.8169 12.4708 59.3393 12.3334 59.9612 12.3334C60.5361 12.3334 61.0369 12.4563 61.4636 12.7022C61.8938 12.9481 62.2265 13.3042 62.4615 13.7707C62.7001 14.2371 62.8176 14.8029 62.814 15.4682V20.7725H60.8507V15.7719C60.8507 15.2151 60.7061 14.7794 60.4168 14.4649C60.1312 14.1503 59.7353 13.993 59.2291 13.993C58.8856 13.993 58.58 14.0689 58.3125 14.2208C58.0485 14.3691 57.8406 14.5842 57.6888 14.8662C57.5405 15.1482 57.4664 15.4899 57.4664 15.8913ZM65.9888 18.1583L65.9833 15.7882H66.2979L69.2917 12.4419H71.5859L67.9033 16.5421H67.4965L65.9888 18.1583ZM64.199 20.7725V9.66502H66.1623V20.7725H64.199ZM69.4273 20.7725L66.7155 16.9814L68.0389 15.5984L71.7757 20.7725H69.4273ZM76.6811 23.8964C76.4136 23.8964 76.1659 23.8747 75.9381 23.8313C75.7139 23.7916 75.535 23.7446 75.4012 23.6903L75.8568 22.1609C76.1424 22.2441 76.3973 22.2838 76.6215 22.2802C76.8456 22.2766 77.0427 22.2061 77.2126 22.0687C77.3862 21.9349 77.5326 21.7107 77.6519 21.3962L77.8201 20.946L74.7992 12.4419H76.8818L78.8017 18.7332H78.8885L80.8139 12.4419H82.9019L79.5665 21.7812C79.411 22.2224 79.2049 22.6002 78.9482 22.9148C78.6915 23.2329 78.3769 23.4752 78.0045 23.6415C77.6357 23.8115 77.1946 23.8964 76.6811 23.8964ZM87 20.9352C86.1865 20.9352 85.4814 20.7562 84.8849 20.3982C84.2883 20.0403 83.8255 19.5395 83.4964 18.8959C83.171 18.2523 83.0083 17.5003 83.0083 16.6397C83.0083 15.7792 83.171 15.0253 83.4964 14.3781C83.8255 13.7309 84.2883 13.2283 84.8849 12.8703C85.4814 12.5124 86.1865 12.3334 87 12.3334C87.8136 12.3334 88.5186 12.5124 89.1152 12.8703C89.7118 13.2283 90.1728 13.7309 90.4982 14.3781C90.8273 15.0253 90.9918 15.7792 90.9918 16.6397C90.9918 17.5003 90.8273 18.2523 90.4982 18.8959C90.1728 19.5395 89.7118 20.0403 89.1152 20.3982C88.5186 20.7562 87.8136 20.9352 87 20.9352ZM87.0109 19.3623C87.452 19.3623 87.8208 19.2412 88.1173 18.999C88.4138 18.7531 88.6343 18.4241 88.779 18.0119C88.9272 17.5997 89.0013 17.1405 89.0013 16.6343C89.0013 16.1245 88.9272 15.6635 88.779 15.2513C88.6343 14.8355 88.4138 14.5046 88.1173 14.2588C87.8208 14.0129 87.452 13.89 87.0109 13.89C86.5589 13.89 86.1829 14.0129 85.8828 14.2588C85.5863 14.5046 85.3639 14.8355 85.2157 15.2513C85.0711 15.6635 84.9987 16.1245 84.9987 16.6343C84.9987 17.1405 85.0711 17.5997 85.2157 18.0119C85.3639 18.4241 85.5863 18.7531 85.8828 18.999C86.1829 19.2412 86.5589 19.3623 87.0109 19.3623ZM97.3569 17.2688V12.4419H99.3202V20.7725H97.4166V19.2918H97.3298C97.1418 19.7583 96.8326 20.1397 96.4024 20.4362C95.9757 20.7327 95.4496 20.8809 94.8241 20.8809C94.2781 20.8809 93.7954 20.7598 93.376 20.5176C92.9602 20.2717 92.6348 19.9155 92.3998 19.4491C92.1648 18.9791 92.0473 18.4114 92.0473 17.7461V12.4419H94.0106V17.4424C94.0106 17.9703 94.1552 18.3897 94.4445 18.7007C94.7337 19.0116 95.1134 19.1671 95.5834 19.1671C95.8727 19.1671 96.1529 19.0966 96.4241 18.9556C96.6952 18.8146 96.9176 18.6048 97.0912 18.3264C97.2683 18.0444 97.3569 17.6919 97.3569 17.2688ZM103.906 23.8964V12.4419H105.836V13.8195H105.95C106.052 13.617 106.194 13.4019 106.379 13.1741C106.563 12.9427 106.813 12.7456 107.127 12.5829C107.442 12.4166 107.843 12.3334 108.331 12.3334C108.975 12.3334 109.555 12.4979 110.072 12.827C110.593 13.1524 111.005 13.6351 111.309 14.275C111.616 14.9114 111.77 15.6924 111.77 16.618C111.77 17.5328 111.62 18.3102 111.32 18.9501C111.02 19.5901 110.611 20.0782 110.094 20.4145C109.577 20.7508 108.991 20.9189 108.337 20.9189C107.859 20.9189 107.464 20.8394 107.149 20.6803C106.834 20.5212 106.581 20.3295 106.39 20.1054C106.202 19.8776 106.055 19.6624 105.95 19.46H105.869V23.8964H103.906ZM105.831 16.6072C105.831 17.1459 105.907 17.6178 106.059 18.0227C106.214 18.4277 106.437 18.7441 106.726 18.9718C107.019 19.196 107.373 19.3081 107.789 19.3081C108.223 19.3081 108.586 19.1924 108.879 18.961C109.172 18.726 109.393 18.406 109.541 18.001C109.693 17.5925 109.769 17.1278 109.769 16.6072C109.769 16.0901 109.694 15.6309 109.546 15.2296C109.398 14.8282 109.177 14.5137 108.885 14.2859C108.592 14.0581 108.226 13.9442 107.789 13.9442C107.37 13.9442 107.013 14.0545 106.721 14.275C106.428 14.4956 106.205 14.8047 106.053 15.2025C105.905 15.6002 105.831 16.0684 105.831 16.6072ZM115.237 20.9406C114.71 20.9406 114.234 20.8466 113.811 20.6586C113.392 20.4669 113.059 20.1849 112.813 19.8125C112.571 19.4401 112.45 18.9809 112.45 18.4349C112.45 17.9649 112.537 17.5762 112.71 17.2688C112.884 16.9615 113.12 16.7156 113.421 16.5312C113.721 16.3468 114.059 16.2076 114.435 16.1136C114.814 16.016 115.207 15.9455 115.612 15.9021C116.1 15.8515 116.496 15.8063 116.799 15.7665C117.103 15.7231 117.324 15.658 117.461 15.5713C117.602 15.4809 117.673 15.3417 117.673 15.1537V15.1211C117.673 14.7125 117.552 14.3962 117.309 14.172C117.067 13.9478 116.718 13.8357 116.263 13.8357C115.782 13.8357 115.4 13.9406 115.118 14.1503C114.84 14.36 114.652 14.6077 114.554 14.8933L112.721 14.633C112.866 14.1268 113.104 13.7038 113.437 13.3639C113.769 13.0204 114.176 12.7637 114.657 12.5937C115.138 12.4202 115.67 12.3334 116.252 12.3334C116.653 12.3334 117.053 12.3804 117.45 12.4744C117.848 12.5684 118.211 12.7239 118.54 12.9408C118.869 13.1542 119.133 13.4452 119.332 13.814C119.535 14.1828 119.636 14.6438 119.636 15.197V20.7725H117.749V19.6281H117.683C117.564 19.8595 117.396 20.0764 117.179 20.2789C116.966 20.4778 116.696 20.6387 116.371 20.7616C116.049 20.8809 115.671 20.9406 115.237 20.9406ZM115.747 19.4979C116.141 19.4979 116.483 19.4202 116.772 19.2647C117.062 19.1056 117.284 18.8959 117.439 18.6356C117.599 18.3753 117.678 18.0914 117.678 17.7841V16.8024C117.617 16.853 117.512 16.9 117.363 16.9434C117.219 16.9868 117.056 17.0248 116.875 17.0573C116.695 17.0899 116.516 17.1188 116.338 17.1441C116.161 17.1694 116.008 17.1911 115.877 17.2092C115.585 17.249 115.322 17.314 115.091 17.4044C114.86 17.4948 114.677 17.6214 114.543 17.7841C114.409 17.9432 114.343 18.1493 114.343 18.4024C114.343 18.7639 114.475 19.0369 114.738 19.2213C115.002 19.4057 115.339 19.4979 115.747 19.4979ZM124.622 24.07C123.917 24.07 123.311 23.9742 122.805 23.7825C122.299 23.5945 121.892 23.3414 121.585 23.0232C121.278 22.7051 121.064 22.3525 120.945 21.9656L122.713 21.5372C122.793 21.6999 122.908 21.8608 123.06 22.0199C123.212 22.1826 123.416 22.3164 123.673 22.4212C123.933 22.5297 124.261 22.5839 124.655 22.5839C125.212 22.5839 125.673 22.4483 126.038 22.1772C126.403 21.9096 126.585 21.4685 126.585 20.8538V19.2756H126.488C126.387 19.478 126.238 19.6859 126.043 19.8993C125.851 20.1126 125.597 20.2916 125.278 20.4362C124.964 20.5808 124.568 20.6531 124.091 20.6531C123.451 20.6531 122.87 20.5031 122.35 20.203C121.833 19.8993 121.42 19.4473 121.113 18.8471C120.809 18.2433 120.658 17.4876 120.658 16.5801C120.658 15.6653 120.809 14.8933 121.113 14.2642C121.42 13.6314 121.834 13.1524 122.355 12.827C122.876 12.4979 123.456 12.3334 124.096 12.3334C124.584 12.3334 124.986 12.4166 125.3 12.5829C125.618 12.7456 125.871 12.9427 126.059 13.1741C126.247 13.4019 126.39 13.617 126.488 13.8195H126.596V12.4419H128.533V20.908C128.533 21.6203 128.363 22.2097 128.023 22.6761C127.683 23.1426 127.218 23.4915 126.629 23.7229C126.04 23.9543 125.371 24.07 124.622 24.07ZM124.638 19.1129C125.054 19.1129 125.409 19.0116 125.701 18.8091C125.994 18.6067 126.217 18.3156 126.369 17.9359C126.52 17.5563 126.596 17.1007 126.596 16.5692C126.596 16.0449 126.52 15.5857 126.369 15.1916C126.22 14.7975 126 14.492 125.707 14.275C125.418 14.0545 125.061 13.9442 124.638 13.9442C124.201 13.9442 123.836 14.0581 123.543 14.2859C123.25 14.5137 123.029 14.8264 122.881 15.2242C122.733 15.6183 122.659 16.0666 122.659 16.5692C122.659 17.079 122.733 17.5256 122.881 17.9088C123.033 18.2885 123.255 18.585 123.548 18.7983C123.845 19.008 124.208 19.1129 124.638 19.1129ZM133.622 20.9352C132.787 20.9352 132.065 20.7616 131.458 20.4145C130.854 20.0638 130.389 19.5684 130.064 18.9285C129.739 18.2849 129.576 17.5274 129.576 16.656C129.576 15.7991 129.739 15.047 130.064 14.3998C130.393 13.749 130.852 13.2428 131.442 12.8812C132.031 12.516 132.723 12.3334 133.519 12.3334C134.032 12.3334 134.517 12.4166 134.972 12.5829C135.431 12.7456 135.836 12.9987 136.187 13.3422C136.541 13.6857 136.82 14.1232 137.022 14.6547C137.225 15.1826 137.326 15.8117 137.326 16.5421V17.1441H130.498V15.8208H135.444C135.44 15.4447 135.359 15.1103 135.2 14.8174C135.041 14.5209 134.819 14.2877 134.533 14.1178C134.251 13.9478 133.922 13.8629 133.546 13.8629C133.145 13.8629 132.792 13.9605 132.488 14.1557C132.185 14.3474 131.948 14.6005 131.778 14.915C131.611 15.226 131.526 15.5677 131.523 15.9401V17.0953C131.523 17.5798 131.611 17.9956 131.789 18.3427C131.966 18.6862 132.213 18.9501 132.532 19.1345C132.85 19.3153 133.222 19.4057 133.649 19.4057C133.935 19.4057 134.193 19.366 134.424 19.2864C134.656 19.2032 134.857 19.0821 135.026 18.923C135.196 18.7639 135.325 18.5669 135.412 18.3319L137.245 18.538C137.129 19.0225 136.908 19.4455 136.583 19.8071C136.261 20.165 135.849 20.4434 135.346 20.6423C134.844 20.8375 134.269 20.9352 133.622 20.9352Z" fill="#3D3D3D"/>
<defs>
<clipPath id="clip0_2045_789">
<rect width="15.2727" height="15.2727" fill="white" transform="translate(7.63635 7.63623)"/>
</clipPath>
</defs>
</svg>
