<svg width="147" height="26" viewBox="0 0 147 26" fill="none" xmlns="http://www.w3.org/2000/svg">
<path d="M12.1474 9.28263C12.1474 9.96936 12.7041 10.5261 13.3909 10.5261C14.0776 10.5261 14.6343 9.96936 14.6343 9.28263V4.30887C14.6343 3.62214 14.0776 3.06543 13.3909 3.06543C12.7041 3.06543 12.1474 3.62214 12.1474 4.30887V9.28263Z" fill="#099250"/>
<path d="M12.1474 21.7172C12.1474 22.4039 12.7041 22.9606 13.3909 22.9606C14.0776 22.9606 14.6343 22.4039 14.6343 21.7172V16.7434C14.6343 16.0567 14.0776 15.5 13.3909 15.5C12.7041 15.5 12.1474 16.0567 12.1474 16.7434V21.7172Z" fill="#099250"/>
<path d="M15.1497 11.2549C14.6641 10.7693 14.6641 9.98199 15.1497 9.4964L18.6666 5.97943C19.1522 5.49384 19.9396 5.49384 20.4252 5.97943C20.9107 6.46504 20.9107 7.25234 20.4252 7.73793L16.9082 11.2549C16.4226 11.7405 15.6353 11.7405 15.1497 11.2549Z" fill="#099250"/>
<path d="M6.35721 18.2884C5.87161 18.774 5.87161 19.5613 6.35721 20.0469C6.8428 20.5325 7.6301 20.5325 8.11569 20.0469L11.6327 16.5299C12.1183 16.0443 12.1183 15.257 11.6327 14.7714C11.1471 14.2858 10.3598 14.2858 9.8742 14.7714L6.35721 18.2884Z" fill="#099250"/>
<path d="M15.1495 14.7715C15.6351 14.2858 16.4224 14.2858 16.908 14.7715L20.425 18.2884C20.9106 18.774 20.9106 19.5613 20.425 20.0469C19.9394 20.5325 19.1521 20.5325 18.6665 20.0469L15.1495 16.5299C14.6639 16.0443 14.6639 15.257 15.1495 14.7715Z" fill="#099250"/>
<path d="M8.11554 5.97943C7.62995 5.49384 6.84265 5.49384 6.35705 5.97943C5.87146 6.46502 5.87146 7.25232 6.35705 7.73791L9.87404 11.2549C10.3596 11.7405 11.1469 11.7405 11.6325 11.2549C12.1181 10.7693 12.1181 9.98202 11.6325 9.49643L8.11554 5.97943Z" fill="#099250"/>
<path d="M15.8777 13.013C15.8777 12.3262 16.4345 11.7695 17.1212 11.7695H22.0949C22.7817 11.7695 23.3384 12.3262 23.3384 13.013C23.3384 13.6997 22.7817 14.2564 22.0949 14.2564H17.1212C16.4345 14.2564 15.8777 13.6997 15.8777 13.013Z" fill="#099250"/>
<path d="M4.6868 11.7695C4.00007 11.7695 3.44336 12.3262 3.44336 13.013C3.44336 13.6997 4.00007 14.2564 4.6868 14.2564H9.66056C10.3473 14.2564 10.904 13.6997 10.904 13.013C10.904 12.3262 10.3473 11.7695 9.66056 11.7695H4.6868Z" fill="#099250"/>
<path d="M38.2597 9.52799C38.1373 9.39331 37.9598 9.25252 37.7271 9.1056C37.4945 8.94644 37.2191 8.79952 36.9007 8.66485C36.5824 8.53018 36.2396 8.41999 35.8723 8.33429C35.505 8.24858 35.1255 8.20573 34.7337 8.20573C33.8767 8.20573 33.24 8.36489 32.8238 8.68321C32.4075 9.00154 32.1994 9.44229 32.1994 10.0055C32.1994 10.4217 32.3157 10.7523 32.5483 10.9972C32.7809 11.2298 33.136 11.4257 33.6135 11.5848C34.0909 11.744 34.6909 11.9154 35.4132 12.099C36.2947 12.3072 37.0599 12.5582 37.7088 12.852C38.3577 13.1336 38.8535 13.5131 39.1963 13.9906C39.5391 14.4681 39.7105 15.0986 39.7105 15.8822C39.7105 16.5433 39.5881 17.1126 39.3432 17.5901C39.0984 18.0676 38.7556 18.4593 38.3148 18.7654C37.8741 19.0592 37.366 19.2796 36.7906 19.4265C36.2151 19.5612 35.5968 19.6286 34.9357 19.6286C34.2868 19.6286 33.6379 19.5612 32.9891 19.4265C32.3524 19.2919 31.7403 19.096 31.1526 18.8389C30.5772 18.5695 30.0446 18.2451 29.5549 17.8655L30.4915 16.1025C30.6506 16.2617 30.8771 16.4392 31.171 16.6351C31.477 16.8188 31.826 16.9963 32.2177 17.1677C32.6218 17.3391 33.0564 17.486 33.5216 17.6084C33.9991 17.7186 34.4827 17.7737 34.9724 17.7737C35.7927 17.7737 36.4171 17.6329 36.8456 17.3513C37.2864 17.0575 37.5068 16.6412 37.5068 16.1025C37.5068 15.6618 37.366 15.3129 37.0844 15.0558C36.8028 14.7864 36.3926 14.5599 35.854 14.3763C35.3153 14.1926 34.6725 14.009 33.9257 13.8253C33.0686 13.5927 32.3524 13.3417 31.777 13.0724C31.2016 12.7908 30.7669 12.4357 30.4731 12.0072C30.1915 11.5665 30.0507 11.0094 30.0507 10.336C30.0507 9.47902 30.2589 8.75667 30.6751 8.169C31.0914 7.56909 31.6546 7.12222 32.3647 6.82838C33.087 6.52231 33.8951 6.36927 34.7888 6.36927C35.3765 6.36927 35.9335 6.4366 36.46 6.57128C36.9864 6.69371 37.4762 6.86511 37.9292 7.08549C38.3944 7.30586 38.8168 7.55685 39.1963 7.83844L38.2597 9.52799ZM49.7988 17.6819V19.5H40.8552V6.46109H49.6335V8.27919H42.912V11.9889H48.7336V13.6968H42.912V17.6819H49.7988ZM56.1868 19.5918C55.2441 19.5918 54.3932 19.4082 53.6341 19.0409C52.875 18.6736 52.22 18.1777 51.6691 17.5533C51.1181 16.9167 50.6896 16.2066 50.3836 15.423C50.0897 14.6272 49.9428 13.8131 49.9428 12.9805C49.9428 12.1113 50.102 11.2849 50.4203 10.5013C50.7386 9.70551 51.1794 9.00154 51.7425 8.38938C52.3057 7.76498 52.9668 7.27526 53.7259 6.92021C54.4972 6.55291 55.3298 6.36927 56.2235 6.36927C57.154 6.36927 57.9988 6.55904 58.7578 6.93857C59.5292 7.31811 60.1842 7.8262 60.7229 8.46284C61.2738 9.09948 61.6962 9.80958 61.99 10.5931C62.2961 11.3767 62.4491 12.1786 62.4491 12.9989C62.4491 13.8682 62.29 14.7007 61.9717 15.4965C61.6656 16.2801 61.2309 16.984 60.6678 17.6084C60.1046 18.2206 59.4373 18.7042 58.666 19.0592C57.9069 19.4143 57.0805 19.5918 56.1868 19.5918ZM52.0364 12.9805C52.0364 13.5927 52.1343 14.1865 52.3302 14.7619C52.5261 15.3373 52.8016 15.8516 53.1566 16.3045C53.5239 16.7453 53.9647 17.0942 54.4789 17.3513C54.9931 17.6084 55.5685 17.737 56.2052 17.737C56.8663 17.737 57.4539 17.6023 57.9682 17.333C58.4824 17.0636 58.9109 16.7025 59.2537 16.2495C59.6087 15.7842 59.8781 15.27 60.0617 14.7068C60.2454 14.1314 60.3372 13.556 60.3372 12.9805C60.3372 12.3684 60.2393 11.7807 60.0434 11.2175C59.8597 10.6421 59.5842 10.134 59.217 9.69327C58.8497 9.24028 58.4089 8.88523 57.8947 8.62812C57.3927 8.37102 56.8296 8.24246 56.2052 8.24246C55.544 8.24246 54.9564 8.37714 54.4421 8.64649C53.9279 8.91583 53.4933 9.27701 53.1383 9.73C52.7832 10.183 52.5077 10.6911 52.3118 11.2543C52.1282 11.8174 52.0364 12.3929 52.0364 12.9805ZM74.9926 9.52799C74.8702 9.39331 74.6927 9.25252 74.4601 9.1056C74.2274 8.94644 73.952 8.79952 73.6336 8.66485C73.3153 8.53018 72.9725 8.41999 72.6052 8.33429C72.2379 8.24858 71.8584 8.20573 71.4666 8.20573C70.6096 8.20573 69.973 8.36489 69.5567 8.68321C69.1404 9.00154 68.9323 9.44229 68.9323 10.0055C68.9323 10.4217 69.0486 10.7523 69.2812 10.9972C69.5138 11.2298 69.8689 11.4257 70.3464 11.5848C70.8239 11.744 71.4238 11.9154 72.1461 12.099C73.0276 12.3072 73.7928 12.5582 74.4417 12.852C75.0906 13.1336 75.5864 13.5131 75.9292 13.9906C76.272 14.4681 76.4434 15.0986 76.4434 15.8822C76.4434 16.5433 76.321 17.1126 76.0761 17.5901C75.8313 18.0676 75.4885 18.4593 75.0477 18.7654C74.607 19.0592 74.0989 19.2796 73.5235 19.4265C72.948 19.5612 72.3298 19.6286 71.6686 19.6286C71.0197 19.6286 70.3709 19.5612 69.722 19.4265C69.0853 19.2919 68.4732 19.096 67.8855 18.8389C67.3101 18.5695 66.7775 18.2451 66.2878 17.8655L67.2244 16.1025C67.3835 16.2617 67.61 16.4392 67.9039 16.6351C68.2099 16.8188 68.5589 16.9963 68.9507 17.1677C69.3547 17.3391 69.7893 17.486 70.2545 17.6084C70.732 17.7186 71.2156 17.7737 71.7054 17.7737C72.5256 17.7737 73.15 17.6329 73.5786 17.3513C74.0193 17.0575 74.2397 16.6412 74.2397 16.1025C74.2397 15.6618 74.0989 15.3129 73.8173 15.0558C73.5357 14.7864 73.1256 14.5599 72.5869 14.3763C72.0482 14.1926 71.4054 14.009 70.6586 13.8253C69.8016 13.5927 69.0853 13.3417 68.5099 13.0724C67.9345 12.7908 67.4998 12.4357 67.206 12.0072C66.9244 11.5665 66.7836 11.0094 66.7836 10.336C66.7836 9.47902 66.9918 8.75667 67.408 8.169C67.8243 7.56909 68.3875 7.12222 69.0976 6.82838C69.8199 6.52231 70.628 6.36927 71.5217 6.36927C72.1094 6.36927 72.6664 6.4366 73.1929 6.57128C73.7193 6.69371 74.2091 6.86511 74.6621 7.08549C75.1273 7.30586 75.5497 7.55685 75.9292 7.83844L74.9926 9.52799ZM77.331 19.5V9.89528H79.3511V19.5H77.331ZM77.331 8.31592V6.0938H79.3511V8.31592H77.331ZM95.5522 19.5H93.532V14.1192C93.532 13.2254 93.3851 12.5704 93.0913 12.1541C92.7975 11.7379 92.3689 11.5297 91.8058 11.5297C91.2426 11.5297 90.7161 11.744 90.2264 12.1725C89.7489 12.5888 89.4122 13.1336 89.2163 13.807V19.5H87.1962V14.1192C87.1962 13.2254 87.0493 12.5704 86.7555 12.1541C86.4616 11.7379 86.0393 11.5297 85.4883 11.5297C84.9251 11.5297 84.3987 11.7379 83.909 12.1541C83.4315 12.5704 83.0887 13.1152 82.8805 13.7886V19.5H80.8604V9.89528H82.6969V11.8236C83.0764 11.1502 83.5723 10.636 84.1844 10.2809C84.8088 9.91365 85.5189 9.73 86.3147 9.73C87.1105 9.73 87.7349 9.93813 88.1879 10.3544C88.6532 10.7707 88.9409 11.291 89.0511 11.9154C89.4673 11.2053 89.9754 10.6666 90.5753 10.2993C91.1875 9.91977 91.8853 9.73 92.6689 9.73C93.2321 9.73 93.7034 9.83407 94.083 10.0422C94.4625 10.2503 94.7564 10.538 94.9645 10.9053C95.1726 11.2604 95.3195 11.6767 95.4052 12.1541C95.5032 12.6194 95.5522 13.1152 95.5522 13.6417V19.5ZM102.416 19.6836C101.645 19.6836 100.965 19.5 100.378 19.1327C99.7899 18.7654 99.3247 18.2879 98.9819 17.7003V23.4117H96.9618V9.89528H98.7432V11.6216C99.1105 11.0461 99.5879 10.587 100.176 10.2442C100.763 9.9014 101.418 9.73 102.141 9.73C102.802 9.73 103.408 9.86467 103.959 10.134C104.51 10.3911 104.987 10.7523 105.391 11.2175C105.795 11.6828 106.107 12.2154 106.328 12.8153C106.56 13.4029 106.677 14.0273 106.677 14.6885C106.677 15.6067 106.493 16.4453 106.126 17.2044C105.771 17.9635 105.269 18.5695 104.62 19.0225C103.983 19.4633 103.249 19.6836 102.416 19.6836ZM101.755 17.9574C102.183 17.9574 102.569 17.8655 102.912 17.6819C103.267 17.4983 103.567 17.2534 103.812 16.9473C104.069 16.6412 104.265 16.2923 104.399 15.9005C104.534 15.5087 104.601 15.1047 104.601 14.6885C104.601 14.2477 104.528 13.8314 104.381 13.4397C104.234 13.0479 104.02 12.7051 103.738 12.4112C103.469 12.1174 103.151 11.8848 102.783 11.7134C102.428 11.542 102.037 11.4563 101.608 11.4563C101.351 11.4563 101.082 11.5053 100.8 11.6032C100.518 11.7011 100.255 11.8358 100.01 12.0072C99.7655 12.1786 99.5512 12.3806 99.3676 12.6133C99.1839 12.8459 99.0554 13.0907 98.9819 13.3478V15.8638C99.1533 16.2556 99.3798 16.6106 99.6614 16.9289C99.943 17.235 100.267 17.486 100.635 17.6819C101.002 17.8655 101.375 17.9574 101.755 17.9574ZM107.594 6.0938H109.614V16.7269C109.614 17.2167 109.687 17.5289 109.834 17.6635C109.981 17.7982 110.165 17.8655 110.385 17.8655C110.63 17.8655 110.856 17.8411 111.065 17.7921C111.285 17.7431 111.475 17.6819 111.634 17.6084L111.928 19.2062C111.634 19.3286 111.285 19.4327 110.881 19.5184C110.477 19.6041 110.116 19.6469 109.797 19.6469C109.112 19.6469 108.573 19.4571 108.181 19.0776C107.79 18.6858 107.594 18.1471 107.594 17.4615V6.0938ZM112.181 19.5V9.89528H114.201V19.5H112.181ZM112.181 8.31592V6.0938H114.201V8.31592H112.181ZM116.261 11.695H114.976V10.134H116.261V9.74837C116.261 9.2464 116.341 8.76892 116.5 8.31592C116.659 7.85068 116.898 7.44054 117.216 7.08549C117.534 6.7182 117.92 6.43048 118.373 6.22235C118.838 6.01422 119.377 5.91015 119.989 5.91015C120.442 5.91015 120.865 5.95912 121.256 6.05707C121.66 6.15501 122.028 6.28969 122.358 6.46109C122.701 6.62025 123.001 6.79165 123.258 6.9753L122.432 8.4812C122.162 8.23634 121.82 8.03433 121.403 7.87517C120.987 7.71601 120.559 7.63643 120.118 7.63643C119.701 7.63643 119.353 7.73437 119.071 7.93026C118.802 8.12615 118.6 8.38326 118.465 8.70158C118.343 9.0199 118.281 9.35046 118.281 9.69327V10.134H123.313V19.5H121.293V11.695H118.281V19.5H116.261V11.695ZM129.17 19.6836C128.423 19.6836 127.743 19.5551 127.131 19.298C126.531 19.0286 126.011 18.6675 125.57 18.2145C125.129 17.7492 124.787 17.2228 124.542 16.6351C124.309 16.0352 124.193 15.3986 124.193 14.7252C124.193 13.8192 124.401 12.9928 124.817 12.246C125.234 11.4869 125.815 10.8809 126.562 10.4279C127.309 9.96262 128.184 9.73 129.188 9.73C130.192 9.73 131.055 9.96262 131.777 10.4279C132.512 10.8809 133.081 11.4808 133.485 12.2276C133.889 12.9744 134.091 13.7763 134.091 14.6334C134.091 14.7803 134.085 14.9211 134.073 15.0558C134.061 15.1782 134.049 15.2822 134.036 15.368H126.342C126.378 15.9311 126.531 16.427 126.801 16.8555C127.082 17.2718 127.437 17.6023 127.866 17.8472C128.294 18.0798 128.753 18.1961 129.243 18.1961C129.782 18.1961 130.29 18.0614 130.767 17.7921C131.257 17.5227 131.588 17.1677 131.759 16.7269L133.485 17.2228C133.277 17.688 132.959 18.1104 132.53 18.4899C132.114 18.8572 131.618 19.1511 131.043 19.3714C130.467 19.5796 129.843 19.6836 129.17 19.6836ZM126.286 14.0273H132.09C132.053 13.4764 131.894 12.9928 131.612 12.5765C131.343 12.148 130.994 11.8174 130.565 11.5848C130.149 11.34 129.684 11.2175 129.17 11.2175C128.668 11.2175 128.202 11.34 127.774 11.5848C127.358 11.8174 127.015 12.148 126.746 12.5765C126.476 12.9928 126.323 13.4764 126.286 14.0273ZM134.215 14.7068C134.215 13.7886 134.399 12.9561 134.766 12.2092C135.145 11.4502 135.66 10.8502 136.308 10.4095C136.957 9.9565 137.704 9.73 138.549 9.73C139.284 9.73 139.945 9.91977 140.532 10.2993C141.132 10.6788 141.598 11.1502 141.928 11.7134V6.0938H143.948V17.2228C143.948 17.4554 143.991 17.6207 144.077 17.7186C144.162 17.8166 144.303 17.8717 144.499 17.8839V19.5C144.12 19.5612 143.826 19.5918 143.618 19.5918C143.238 19.5918 142.914 19.4816 142.644 19.2613C142.387 19.0409 142.253 18.7777 142.24 18.4716L142.222 17.7554C141.855 18.3675 141.359 18.845 140.734 19.1878C140.11 19.5184 139.461 19.6836 138.788 19.6836C138.127 19.6836 137.514 19.5551 136.951 19.298C136.4 19.0409 135.917 18.6797 135.5 18.2145C135.096 17.7492 134.778 17.2167 134.545 16.6167C134.325 16.0168 134.215 15.3802 134.215 14.7068ZM141.928 16.0474V13.5315C141.793 13.1397 141.573 12.7908 141.267 12.4847C140.973 12.1664 140.636 11.9154 140.257 11.7317C139.89 11.5481 139.522 11.4563 139.155 11.4563C138.727 11.4563 138.335 11.5481 137.98 11.7317C137.637 11.9154 137.337 12.1603 137.08 12.4663C136.835 12.7724 136.645 13.1213 136.511 13.5131C136.376 13.9049 136.308 14.315 136.308 14.7436C136.308 15.1843 136.382 15.6006 136.529 15.9923C136.676 16.3719 136.884 16.7147 137.153 17.0208C137.435 17.3146 137.753 17.5472 138.108 17.7186C138.476 17.8778 138.873 17.9574 139.302 17.9574C139.571 17.9574 139.841 17.9084 140.11 17.8105C140.392 17.7125 140.655 17.5778 140.9 17.4064C141.157 17.235 141.371 17.033 141.542 16.8004C141.726 16.5678 141.855 16.3168 141.928 16.0474Z" fill="#3D3D3D"/>
</svg>
