<svg width="105" height="26" viewBox="0 0 105 26" fill="none" xmlns="http://www.w3.org/2000/svg">
<path fill-rule="evenodd" clip-rule="evenodd" d="M19.8812 5.58959L15.2625 4.352C14.9436 4.26656 14.6852 4.4649 14.6852 4.79501V9.57671C14.6852 9.9068 14.9436 10.2437 15.2625 10.3291L19.8812 11.5667C20.2001 11.6521 20.4586 11.4538 20.4586 11.1237V6.342C20.4586 6.01189 20.2001 5.67503 19.8812 5.58959ZM15.2625 2.55887C13.9871 2.21712 12.9531 3.01049 12.9531 4.33092V9.11258C12.9531 10.433 13.9871 11.7805 15.2625 12.1222L19.8812 13.3598C21.1566 13.7016 22.1906 12.9082 22.1906 11.5877V6.80611C22.1906 5.48567 21.1566 4.13821 19.8812 3.79646L15.2625 2.55887Z" fill="#8098F9"/>
<path fill-rule="evenodd" clip-rule="evenodd" d="M16.2548 9.48588L10.4814 7.93892C10.1625 7.85347 9.90401 8.05183 9.90401 8.38192V14.359C9.90401 14.6891 10.1625 15.026 10.4814 15.1114L16.2548 16.6584C16.5737 16.7439 16.8321 16.5455 16.8321 16.2154V10.2383C16.8321 9.90819 16.5737 9.57132 16.2548 9.48588ZM10.4814 6.14578C9.20596 5.80404 8.172 6.59742 8.172 7.91784V13.8949C8.172 15.2154 9.20596 16.5628 10.4814 16.9046L16.2548 18.4516C17.5302 18.7933 18.5641 17.9999 18.5641 16.6795V10.7024C18.5641 9.38198 17.5302 8.03452 16.2548 7.69279L10.4814 6.14578Z" fill="#6172F3"/>
<path fill-rule="evenodd" clip-rule="evenodd" d="M12.6275 13.3803L5.69933 11.5239C5.38047 11.4384 5.12198 11.6368 5.12198 11.9669V19.1394C5.12198 19.4695 5.38047 19.8064 5.69933 19.8918L12.6275 21.7482C12.9463 21.8336 13.2048 21.6353 13.2048 21.3052V14.1327C13.2048 13.8026 12.9463 13.4657 12.6275 13.3803ZM5.69933 9.73074C4.42389 9.38901 3.38995 10.1824 3.38995 11.5028V18.6753C3.38995 19.9957 4.42389 21.3432 5.69933 21.685L12.6275 23.5413C13.9029 23.8831 14.9368 23.0897 14.9368 21.7693V14.5968C14.9368 13.2763 13.9029 11.9289 12.6275 11.5871L5.69933 9.73074Z" fill="#444CE7"/>
<path d="M40.1146 8.27919H35.7805V19.5H33.7053V8.27919H29.3529V6.46109H40.1146V8.27919ZM44.8674 11.6399C44.0839 11.6522 43.386 11.8297 42.7738 12.1725C42.1739 12.5153 41.7454 12.9989 41.4883 13.6233V19.5H39.4682V9.89528H41.3414V12.0439C41.672 11.3828 42.1066 10.8564 42.6453 10.4646C43.184 10.0606 43.7533 9.84019 44.3532 9.80346C44.4756 9.80346 44.5736 9.80346 44.647 9.80346C44.7327 9.80346 44.8062 9.80958 44.8674 9.82182V11.6399ZM44.703 16.6902C44.703 16.0781 44.8744 15.5455 45.2172 15.0925C45.5723 14.6272 46.0559 14.2722 46.668 14.0273C47.2802 13.7702 47.9903 13.6417 48.7983 13.6417C49.2268 13.6417 49.6615 13.6723 50.1022 13.7335C50.5552 13.7947 50.9531 13.8927 51.2959 14.0273V13.4213C51.2959 12.7479 51.0939 12.2215 50.6899 11.8419C50.2858 11.4624 49.7043 11.2726 48.9452 11.2726C48.4065 11.2726 47.8984 11.3706 47.421 11.5665C46.9435 11.7501 46.4354 12.0133 45.8967 12.3561L45.2172 10.9972C45.8538 10.5687 46.4905 10.2503 47.1271 10.0422C47.776 9.83407 48.4555 9.73 49.1656 9.73C50.4511 9.73 51.4612 10.0728 52.1958 10.7584C52.9426 11.4318 53.316 12.3929 53.316 13.6417V17.2228C53.316 17.4554 53.3527 17.6207 53.4262 17.7186C53.5119 17.8166 53.6527 17.8717 53.8486 17.8839V19.5C53.6649 19.5367 53.4997 19.5612 53.3527 19.5735C53.2058 19.5857 53.0834 19.5918 52.9855 19.5918C52.5569 19.5918 52.2325 19.4878 52.0121 19.2796C51.7918 19.0715 51.6632 18.8266 51.6265 18.545L51.5714 17.9941C51.1551 18.5328 50.6225 18.9491 49.9737 19.2429C49.3248 19.5367 48.6698 19.6836 48.0086 19.6836C47.372 19.6836 46.8027 19.5551 46.3007 19.298C45.7988 19.0286 45.407 18.6675 45.1254 18.2145C44.8438 17.7615 44.703 17.2534 44.703 16.6902ZM50.8184 17.2779C50.9653 17.1187 51.0817 16.9596 51.1674 16.8004C51.2531 16.6412 51.2959 16.5004 51.2959 16.378V15.2761C50.9531 15.1415 50.5919 15.0435 50.2124 14.9823C49.8329 14.9088 49.4594 14.8721 49.0921 14.8721C48.3576 14.8721 47.7576 15.019 47.2924 15.3129C46.8394 15.6067 46.6129 16.0107 46.6129 16.5249C46.6129 16.8065 46.6864 17.0759 46.8333 17.333C46.9925 17.5901 47.2128 17.7982 47.4944 17.9574C47.7883 18.1165 48.1494 18.1961 48.5779 18.1961C49.0187 18.1961 49.4411 18.1104 49.8451 17.939C50.2491 17.7676 50.5736 17.5472 50.8184 17.2779ZM55.3457 19.5V11.695H54.0602V10.134H55.3457V9.98711C55.3457 9.37495 55.4743 8.81177 55.7314 8.29756C55.9885 7.78335 56.3558 7.3732 56.8333 7.06712C57.323 6.7488 57.8984 6.58964 58.5596 6.58964C59.0126 6.58964 59.4288 6.64474 59.8084 6.75493C60.1879 6.86511 60.5613 7.00591 60.9286 7.17731L60.4511 8.73831C60.1818 8.57915 59.9247 8.46896 59.6798 8.40774C59.4472 8.34653 59.2084 8.31592 58.9636 8.31592C58.6942 8.31592 58.4616 8.36489 58.2657 8.46284C58.0698 8.54854 57.9046 8.67097 57.7699 8.83013C57.6352 8.97705 57.5311 9.14845 57.4577 9.34434C57.3965 9.52799 57.3659 9.71776 57.3659 9.91365V10.134H59.8267V11.695H57.3659V19.5H55.3457ZM59.9553 11.695H58.6697V10.134H59.9553V9.74837C59.9553 9.2464 60.0349 8.76892 60.194 8.31592C60.3532 7.85068 60.5919 7.44054 60.9102 7.08549C61.2286 6.7182 61.6142 6.43048 62.0672 6.22235C62.5324 6.01422 63.0711 5.91015 63.6833 5.91015C64.1363 5.91015 64.5587 5.95912 64.9505 6.05707C65.3422 6.15501 65.7034 6.28969 66.034 6.46109C66.3768 6.62025 66.6829 6.79165 66.9522 6.9753L66.1258 8.4812C65.8442 8.23634 65.4953 8.03433 65.079 7.87517C64.675 7.71601 64.2465 7.63643 63.7935 7.63643C63.3895 7.63643 63.0467 7.73437 62.7651 7.93026C62.4957 8.12615 62.2937 8.38326 62.159 8.70158C62.0366 9.0199 61.9754 9.35046 61.9754 9.69327V10.134H67.0073V19.5H64.9872V11.695H61.9754V19.5H59.9553V11.695ZM72.8454 19.6836C72.0986 19.6836 71.4191 19.5551 70.8069 19.298C70.207 19.0286 69.6867 18.6613 69.2459 18.1961C68.8052 17.7309 68.4624 17.1983 68.2175 16.5984C67.9849 15.9985 67.8686 15.3618 67.8686 14.6885C67.8686 13.7825 68.0706 12.9561 68.4746 12.2092C68.8909 11.4624 69.4663 10.8625 70.2009 10.4095C70.9477 9.9565 71.8292 9.73 72.8454 9.73C73.8248 9.73 74.6757 9.95038 75.3981 10.3911C76.1327 10.8196 76.6714 11.3951 77.0142 12.1174L75.0492 12.7418C74.8288 12.3378 74.5166 12.0256 74.1126 11.8052C73.7208 11.5726 73.2862 11.4563 72.8087 11.4563C72.27 11.4563 71.7802 11.5971 71.3395 11.8787C70.911 12.148 70.5682 12.5276 70.3111 13.0173C70.0662 13.4948 69.9438 14.0518 69.9438 14.6885C69.9438 15.3006 70.0723 15.8577 70.3294 16.3596C70.5865 16.8494 70.9294 17.2411 71.3579 17.535C71.7986 17.8166 72.2883 17.9574 72.827 17.9574C73.1576 17.9574 73.4759 17.9023 73.782 17.7921C74.1003 17.6697 74.3758 17.5105 74.6084 17.3146C74.841 17.1065 75.0063 16.88 75.1043 16.6351L77.0876 17.2228C76.8795 17.7003 76.5673 18.1227 76.151 18.4899C75.747 18.8572 75.2634 19.1511 74.7002 19.3714C74.1493 19.5796 73.531 19.6836 72.8454 19.6836ZM78.0902 19.5V6.46109H83.5629C84.1506 6.46109 84.6893 6.58352 85.179 6.82838C85.6687 7.07325 86.0972 7.39769 86.4645 7.80171C86.8318 8.20573 87.1134 8.65873 87.3093 9.1607C87.5052 9.66266 87.6031 10.1769 87.6031 10.7033C87.6031 11.4257 87.4378 12.1174 87.1073 12.7785C86.789 13.4274 86.3298 13.9539 85.7299 14.3579C85.1423 14.7619 84.4566 14.9639 83.6731 14.9639H80.1471V19.5H78.0902ZM80.1471 13.1458H83.5445C83.9363 13.1458 84.2791 13.0418 84.573 12.8336C84.8668 12.6133 85.0933 12.3194 85.2525 11.9521C85.4239 11.5848 85.5096 11.1686 85.5096 10.7033C85.5096 10.2258 85.4116 9.80346 85.2157 9.43617C85.0198 9.06887 84.7627 8.78728 84.4444 8.59139C84.1383 8.38326 83.8016 8.27919 83.4343 8.27919H80.1471V13.1458ZM93.7561 11.6399C92.9726 11.6522 92.2747 11.8297 91.6626 12.1725C91.0627 12.5153 90.6342 12.9989 90.3771 13.6233V19.5H88.3569V9.89528H90.2301V12.0439C90.5607 11.3828 90.9953 10.8564 91.534 10.4646C92.0727 10.0606 92.642 9.84019 93.2419 9.80346C93.3644 9.80346 93.4623 9.80346 93.5358 9.80346C93.6215 9.80346 93.6949 9.80958 93.7561 9.82182V11.6399ZM98.4618 19.6836C97.7027 19.6836 97.0232 19.5551 96.4233 19.298C95.8234 19.0286 95.3031 18.6613 94.8623 18.1961C94.4338 17.7309 94.1033 17.2044 93.8706 16.6167C93.638 16.0168 93.5217 15.3802 93.5217 14.7068C93.5217 14.0335 93.638 13.3968 93.8706 12.7969C94.1033 12.197 94.4338 11.6705 94.8623 11.2175C95.3031 10.7523 95.8234 10.3911 96.4233 10.134C97.0355 9.86467 97.715 9.73 98.4618 9.73C99.2086 9.73 99.882 9.86467 100.482 10.134C101.094 10.3911 101.614 10.7523 102.043 11.2175C102.484 11.6705 102.82 12.197 103.053 12.7969C103.286 13.3968 103.402 14.0335 103.402 14.7068C103.402 15.3802 103.286 16.0168 103.053 16.6167C102.82 17.2044 102.484 17.7309 102.043 18.1961C101.614 18.6613 101.094 19.0286 100.482 19.298C99.882 19.5551 99.2086 19.6836 98.4618 19.6836ZM95.5969 14.7252C95.5969 15.3373 95.7255 15.8883 95.9826 16.378C96.2397 16.8677 96.5825 17.2534 97.011 17.535C97.4395 17.8166 97.9231 17.9574 98.4618 17.9574C98.9883 17.9574 99.4657 17.8166 99.8943 17.535C100.335 17.2411 100.684 16.8494 100.941 16.3596C101.198 15.8577 101.327 15.3067 101.327 14.7068C101.327 14.0947 101.198 13.5437 100.941 13.054C100.684 12.5643 100.335 12.1786 99.8943 11.897C99.4657 11.6032 98.9883 11.4563 98.4618 11.4563C97.9231 11.4563 97.4395 11.6032 97.011 11.897C96.5825 12.1909 96.2397 12.5826 95.9826 13.0724C95.7255 13.5498 95.5969 14.1008 95.5969 14.7252Z" fill="#3D3D3D"/>
</svg>
