<svg version="1.2" xmlns="http://www.w3.org/2000/svg" viewBox="0 0 109 26" width="109" height="26"><style>tspan{white-space:pre}.a{fill:#4285f4}.b{fill:#fff}.c{font-size: 14px;fill: #ffffff;font-weight: 400;font-family: "Acme-Regular", "Acme"}</style><path fill-rule="evenodd" class="a" d="m13 0h82.5c7.1 0 13 5.8 13 13 0 7.2-5.9 13-13 13h-82.5c-7.2 0-13-5.8-13-13 0-7.2 5.8-13 13-13z"/><path class="b" d="m17.8 10.5h-6.3v-1.3c0-1.4 1.1-2.6 2.5-2.6 1.1 0 2 0.6 2.4 1.6 0.1 0.2 0.4 0.4 0.6 0.3 0.3-0.2 0.4-0.5 0.3-0.7-0.5-1.4-1.8-2.2-3.3-2.2-1.9 0-3.5 1.6-3.5 3.6v1.3h-0.3c-1.1 0-2.1 0.9-2.1 2.1v5.7c0 1.2 1 2.1 2.1 2.1h7.6c1.2 0 2.1-0.9 2.1-2.1v-5.7c0-1.2-0.9-2.1-2.1-2.1zm1.1 7.8c0 0.6-0.5 1-1.1 1h-7.6c-0.6 0-1-0.4-1-1v-5.7c0-0.6 0.4-1.1 1-1.1h7.6c0.6 0 1.1 0.5 1.1 1.1zm-3.9-3c0 0.3-0.2 0.6-0.5 0.8v1.3c0 0.3-0.2 0.5-0.5 0.5-0.3 0-0.5-0.2-0.5-0.5v-1.3c-0.3-0.2-0.4-0.5-0.4-0.8 0-0.5 0.4-0.9 0.9-0.9 0.5 0 1 0.4 1 0.9z"/><text style="transform:matrix(1,0,0,1,22,18)" ></text><text style="transform:matrix(1,0,0,1,26,17)" ><tspan x="0" y="0" class="c">O</tspan><tspan  y="0" class="c">p</tspan><tspan  y="0" class="c">e</tspan><tspan  y="0" class="c">n</tspan><tspan  y="0" class="c"> </tspan><tspan  y="0" class="c">t</tspan><tspan  y="0" class="c">o</tspan><tspan  y="0" class="c"> </tspan><tspan  y="0" class="c">w</tspan><tspan  y="0" class="c">o</tspan><tspan  y="0" class="c">r</tspan><tspan  y="0" class="c">k
</tspan></text></svg>