<svg width="59" height="59" viewBox="0 0 59 59" fill="none" xmlns="http://www.w3.org/2000/svg">
<rect width="59" height="59" rx="29.5" fill="#EA4335"/>
<path d="M36.3929 24.9421H24.9593V22.5127C24.9593 19.9869 27.0127 17.9335 29.5385 17.9335C31.3895 17.9335 33.038 19.0325 33.761 20.7292C33.9731 21.2209 34.5323 21.4522 35.0239 21.2401C35.5156 21.0377 35.747 20.4689 35.5349 19.9772C34.513 17.5671 32.1607 16.0054 29.5385 16.0054C25.9523 16.0054 23.0312 18.9264 23.0312 22.5127V24.9421H22.607C20.4765 24.9421 18.7509 26.6677 18.7509 28.7982V39.1424C18.7509 41.273 20.4765 42.9986 22.607 42.9986H36.3929C38.5234 42.9986 40.249 41.273 40.249 39.1424V28.7982C40.249 26.6773 38.5234 24.9421 36.3929 24.9421ZM38.321 39.1424C38.321 40.2029 37.4533 41.0705 36.3929 41.0705H22.607C21.5466 41.0705 20.6789 40.2029 20.6789 39.1424V28.7982C20.6789 27.7378 21.5466 26.8702 22.607 26.8702H36.3929C37.4533 26.8702 38.321 27.7378 38.321 28.7982V39.1424ZM31.2352 33.6956C31.2352 34.2933 30.9267 34.8332 30.464 35.1417V37.5036C30.464 38.0338 30.0302 38.4676 29.4999 38.4676C28.9697 38.4676 28.5359 38.0338 28.5359 37.5036V35.1417C28.0732 34.8332 27.7647 34.2933 27.7647 33.6956C27.7647 32.7412 28.5455 31.9603 29.4999 31.9603C30.4544 31.9603 31.2352 32.7315 31.2352 33.6956Z" fill="white"/>
</svg>
