<svg width="30" height="30" viewBox="0 0 30 30" fill="none" xmlns="http://www.w3.org/2000/svg">
<rect width="30" height="30" rx="15" fill="white"/>
<g clip-path="url(#clip0_2058_905)">
<path d="M16.7 6.5H13.3V11.6269C13.2857 12.5534 12.5301 13.3 11.6002 13.3H6.5V16.7H10.1917C11.0934 16.7 11.9582 16.3418 12.5958 15.7042L15.7042 12.5958C16.3418 11.9582 16.7 11.0934 16.7 10.1917V6.5Z" fill="url(#paint0_linear_2058_905)"/>
<path d="M13.3 23.4998H16.7V18.3729C16.7144 17.4464 17.4699 16.6998 18.3998 16.6998H23.5V13.2998H19.8084C18.9066 13.2998 18.0418 13.658 17.4042 14.2956L14.2959 17.404C13.6583 18.0416 13.3 18.9064 13.3 19.8081V23.4998Z" fill="url(#paint1_linear_2058_905)"/>
</g>
<defs>
<linearGradient id="paint0_linear_2058_905" x1="15" y1="6.07623" x2="15" y2="20.8621" gradientUnits="userSpaceOnUse">
<stop stop-color="#75D8FC"/>
<stop offset="1" stop-color="#0072E5"/>
</linearGradient>
<linearGradient id="paint1_linear_2058_905" x1="15" y1="6.07604" x2="15" y2="20.8619" gradientUnits="userSpaceOnUse">
<stop stop-color="#75D8FC"/>
<stop offset="1" stop-color="#0072E5"/>
</linearGradient>
<clipPath id="clip0_2058_905">
<rect width="17" height="17" fill="white" transform="translate(6.5 6.5)"/>
</clipPath>
</defs>
</svg>
