<svg width="288" height="40" viewBox="0 0 288 40" fill="none" xmlns="http://www.w3.org/2000/svg">
<rect x="0.5" y="0.5" width="287" height="39" rx="19.5" fill="white"/>
<rect x="0.5" y="0.5" width="287" height="39" rx="19.5" stroke="#EEEEEE"/>
<g clip-path="url(#clip0_2045_816)">
<path d="M19.9999 18.3638V21.8492H24.8435C24.6308 22.9701 23.9925 23.9193 23.0353 24.5574L25.9562 26.8238C27.658 25.253 28.6398 22.9457 28.6398 20.2048C28.6398 19.5666 28.5826 18.9529 28.4762 18.3639L19.9999 18.3638Z" fill="#4285F4"/>
<path d="M14.956 21.7129L14.2972 22.2172L11.9653 24.0335C13.4462 26.9708 16.4815 28.9999 19.9996 28.9999C22.4296 28.9999 24.4668 28.1981 25.9559 26.8235L23.035 24.5572C22.2332 25.0972 21.2105 25.4245 19.9996 25.4245C17.6596 25.4245 15.6715 23.8454 14.9596 21.7181L14.956 21.7129Z" fill="#34A853"/>
<path d="M11.9654 15.9663C11.3518 17.1772 11 18.5436 11 19.9999C11 21.4562 11.3518 22.8226 11.9654 24.0335C11.9654 24.0416 14.96 21.7098 14.96 21.7098C14.78 21.1698 14.6736 20.5971 14.6736 19.9998C14.6736 19.4024 14.78 18.8298 14.96 18.2898L11.9654 15.9663Z" fill="#FBBC05"/>
<path d="M19.9998 14.5836C21.3253 14.5836 22.5034 15.0418 23.4443 15.9255L26.0216 13.3482C24.4589 11.8919 22.4298 11 19.9998 11C16.4817 11 13.4462 13.0209 11.9653 15.9664L14.9598 18.29C15.6716 16.1627 17.6598 14.5836 19.9998 14.5836Z" fill="#EA4335"/>
</g>
<path d="M37.96 24.5V15.98H43.636V17.168H39.304V19.712H42.928V20.828H39.304V24.5H37.96ZM44.2612 24.5V18.224H45.5812V24.5H44.2612ZM44.2612 17.192V15.74H45.5812V17.192H44.2612ZM52.3155 24.5H50.9955V20.984C50.9955 20.4 50.8995 19.972 50.7075 19.7C50.5235 19.428 50.2475 19.292 49.8795 19.292C49.6235 19.292 49.3675 19.356 49.1115 19.484C48.8635 19.612 48.6395 19.788 48.4395 20.012C48.2395 20.228 48.0955 20.48 48.0075 20.768V24.5H46.6875V18.224H47.8875V19.484C48.0475 19.204 48.2555 18.964 48.5115 18.764C48.7755 18.556 49.0715 18.396 49.3995 18.284C49.7275 18.172 50.0755 18.116 50.4435 18.116C50.8195 18.116 51.1275 18.184 51.3675 18.32C51.6155 18.456 51.8075 18.644 51.9435 18.884C52.0875 19.116 52.1835 19.388 52.2315 19.7C52.2875 20.004 52.3155 20.328 52.3155 20.672V24.5ZM52.9716 21.368C52.9716 20.768 53.0916 20.224 53.3316 19.736C53.5796 19.24 53.9156 18.848 54.3396 18.56C54.7636 18.264 55.2516 18.116 55.8036 18.116C56.2836 18.116 56.7156 18.24 57.0996 18.488C57.4916 18.736 57.7956 19.044 58.0116 19.412V15.74H59.3316V23.012C59.3316 23.164 59.3596 23.272 59.4156 23.336C59.4716 23.4 59.5636 23.436 59.6916 23.444V24.5C59.4436 24.54 59.2516 24.56 59.1156 24.56C58.8676 24.56 58.6556 24.488 58.4796 24.344C58.3116 24.2 58.2236 24.028 58.2156 23.828L58.2036 23.36C57.9636 23.76 57.6396 24.072 57.2316 24.296C56.8236 24.512 56.3996 24.62 55.9596 24.62C55.5276 24.62 55.1276 24.536 54.7596 24.368C54.3996 24.2 54.0836 23.964 53.8116 23.66C53.5476 23.356 53.3396 23.008 53.1876 22.616C53.0436 22.224 52.9716 21.808 52.9716 21.368ZM58.0116 22.244V20.6C57.9236 20.344 57.7796 20.116 57.5796 19.916C57.3876 19.708 57.1676 19.544 56.9196 19.424C56.6796 19.304 56.4396 19.244 56.1996 19.244C55.9196 19.244 55.6636 19.304 55.4316 19.424C55.2076 19.544 55.0116 19.704 54.8436 19.904C54.6836 20.104 54.5596 20.332 54.4716 20.588C54.3836 20.844 54.3396 21.112 54.3396 21.392C54.3396 21.68 54.3876 21.952 54.4836 22.208C54.5796 22.456 54.7156 22.68 54.8916 22.88C55.0756 23.072 55.2836 23.224 55.5156 23.336C55.7556 23.44 56.0156 23.492 56.2956 23.492C56.4716 23.492 56.6476 23.46 56.8236 23.396C57.0076 23.332 57.1796 23.244 57.3396 23.132C57.5076 23.02 57.6476 22.888 57.7596 22.736C57.8796 22.584 57.9636 22.42 58.0116 22.244ZM66.3971 24.62C65.9171 24.62 65.4811 24.508 65.0891 24.284C64.7051 24.052 64.4011 23.744 64.1771 23.36V24.5H63.0131V15.74H64.3331V19.412C64.5811 19.012 64.8891 18.696 65.2571 18.464C65.6331 18.232 66.0731 18.116 66.5771 18.116C66.9931 18.116 67.3731 18.204 67.7171 18.38C68.0611 18.556 68.3531 18.796 68.5931 19.1C68.8411 19.404 69.0291 19.752 69.1571 20.144C69.2931 20.536 69.3611 20.952 69.3611 21.392C69.3611 21.832 69.2851 22.248 69.1331 22.64C68.9891 23.032 68.7811 23.376 68.5091 23.672C68.2371 23.968 67.9211 24.2 67.5611 24.368C67.2091 24.536 66.8211 24.62 66.3971 24.62ZM66.0491 23.492C66.3371 23.492 66.6011 23.436 66.8411 23.324C67.0811 23.204 67.2891 23.048 67.4651 22.856C67.6411 22.664 67.7731 22.44 67.8611 22.184C67.9571 21.928 68.0051 21.664 68.0051 21.392C68.0051 21.016 67.9251 20.664 67.7651 20.336C67.6131 20.008 67.3971 19.744 67.1171 19.544C66.8371 19.344 66.5131 19.244 66.1451 19.244C65.8811 19.244 65.6331 19.308 65.4011 19.436C65.1691 19.556 64.9611 19.72 64.7771 19.928C64.6011 20.128 64.4531 20.352 64.3331 20.6V22.256C64.3811 22.44 64.4651 22.608 64.5851 22.76C64.7051 22.904 64.8451 23.032 65.0051 23.144C65.1651 23.248 65.3371 23.332 65.5211 23.396C65.7051 23.46 65.8811 23.492 66.0491 23.492ZM72.9122 24.62C72.4242 24.62 71.9802 24.536 71.5802 24.368C71.1882 24.192 70.8482 23.956 70.5602 23.66C70.2722 23.356 70.0482 23.012 69.8882 22.628C69.7362 22.236 69.6602 21.82 69.6602 21.38C69.6602 20.788 69.7962 20.248 70.0682 19.76C70.3402 19.264 70.7202 18.868 71.2082 18.572C71.6962 18.268 72.2682 18.116 72.9242 18.116C73.5802 18.116 74.1442 18.268 74.6162 18.572C75.0962 18.868 75.4682 19.26 75.7322 19.748C75.9962 20.236 76.1282 20.76 76.1282 21.32C76.1282 21.416 76.1242 21.508 76.1162 21.596C76.1082 21.676 76.1002 21.744 76.0922 21.8H71.0642C71.0882 22.168 71.1882 22.492 71.3642 22.772C71.5482 23.044 71.7802 23.26 72.0602 23.42C72.3402 23.572 72.6402 23.648 72.9602 23.648C73.3122 23.648 73.6442 23.56 73.9562 23.384C74.2762 23.208 74.4922 22.976 74.6042 22.688L75.7322 23.012C75.5962 23.316 75.3882 23.592 75.1082 23.84C74.8362 24.08 74.5122 24.272 74.1362 24.416C73.7602 24.552 73.3522 24.62 72.9122 24.62ZM71.0282 20.924H74.8202C74.7962 20.564 74.6922 20.248 74.5082 19.976C74.3322 19.696 74.1042 19.48 73.8242 19.328C73.5522 19.168 73.2482 19.088 72.9122 19.088C72.5842 19.088 72.2802 19.168 72.0002 19.328C71.7282 19.48 71.5042 19.696 71.3282 19.976C71.1522 20.248 71.0522 20.564 71.0282 20.924ZM78.957 24.62C78.429 24.62 77.929 24.536 77.457 24.368C76.985 24.192 76.581 23.932 76.245 23.588L76.737 22.7C77.097 23.02 77.457 23.252 77.817 23.396C78.185 23.54 78.549 23.612 78.909 23.612C79.277 23.612 79.577 23.544 79.809 23.408C80.041 23.264 80.157 23.056 80.157 22.784C80.157 22.584 80.097 22.436 79.977 22.34C79.857 22.244 79.681 22.16 79.449 22.088C79.225 22.016 78.953 21.936 78.633 21.848C78.185 21.712 77.809 21.572 77.505 21.428C77.201 21.276 76.973 21.092 76.821 20.876C76.669 20.66 76.593 20.384 76.593 20.048C76.593 19.64 76.697 19.292 76.905 19.004C77.113 18.716 77.401 18.496 77.769 18.344C78.145 18.192 78.577 18.116 79.065 18.116C79.521 18.116 79.941 18.188 80.325 18.332C80.717 18.468 81.061 18.684 81.357 18.98L80.793 19.856C80.513 19.6 80.225 19.412 79.929 19.292C79.641 19.172 79.329 19.112 78.993 19.112C78.801 19.112 78.617 19.136 78.441 19.184C78.265 19.224 78.117 19.304 77.997 19.424C77.885 19.536 77.829 19.696 77.829 19.904C77.829 20.072 77.877 20.208 77.973 20.312C78.069 20.416 78.213 20.504 78.405 20.576C78.597 20.648 78.833 20.728 79.113 20.816C79.601 20.96 80.017 21.104 80.361 21.248C80.705 21.384 80.969 21.564 81.153 21.788C81.345 22.004 81.441 22.304 81.441 22.688C81.441 23.296 81.213 23.772 80.757 24.116C80.309 24.452 79.709 24.62 78.957 24.62ZM85.6198 24.176C85.5078 24.232 85.3678 24.292 85.1998 24.356C85.0318 24.42 84.8398 24.476 84.6238 24.524C84.4158 24.572 84.1998 24.596 83.9758 24.596C83.7038 24.596 83.4518 24.548 83.2198 24.452C82.9878 24.356 82.7998 24.204 82.6558 23.996C82.5198 23.78 82.4518 23.504 82.4518 23.168V19.244H81.6238V18.224H82.4518V16.16H83.7718V18.224H85.1398V19.244H83.7718V22.748C83.7878 22.964 83.8558 23.124 83.9758 23.228C84.1038 23.332 84.2598 23.384 84.4438 23.384C84.6278 23.384 84.8038 23.352 84.9718 23.288C85.1398 23.224 85.2638 23.172 85.3438 23.132L85.6198 24.176Z" fill="black" fill-opacity="0.6"/>
<path d="M89.96 24.5V15.98H92.984C93.904 15.98 94.672 16.172 95.288 16.556C95.904 16.932 96.364 17.444 96.668 18.092C96.98 18.732 97.136 19.444 97.136 20.228C97.136 21.092 96.964 21.844 96.62 22.484C96.284 23.124 95.804 23.62 95.18 23.972C94.556 24.324 93.824 24.5 92.984 24.5H89.96ZM95.768 20.228C95.768 19.628 95.656 19.1 95.432 18.644C95.216 18.18 94.9 17.82 94.484 17.564C94.076 17.3 93.576 17.168 92.984 17.168H91.304V23.312H92.984C93.584 23.312 94.088 23.176 94.496 22.904C94.912 22.632 95.228 22.264 95.444 21.8C95.66 21.336 95.768 20.812 95.768 20.228ZM97.8901 24.5V18.224H99.2101V24.5H97.8901ZM97.8901 17.192V15.74H99.2101V17.192H97.8901ZM102.8 24.56C102.376 24.56 101.988 24.476 101.636 24.308C101.284 24.132 100.98 23.896 100.724 23.6C100.476 23.304 100.28 22.964 100.136 22.58C100 22.196 99.9324 21.792 99.9324 21.368C99.9324 20.92 100.004 20.5 100.148 20.108C100.292 19.716 100.492 19.372 100.748 19.076C101.012 18.772 101.32 18.536 101.672 18.368C102.024 18.2 102.416 18.116 102.848 18.116C103.352 18.116 103.792 18.236 104.168 18.476C104.552 18.716 104.868 19.028 105.116 19.412V18.224H106.28V24.32C106.28 24.928 106.132 25.444 105.836 25.868C105.548 26.292 105.152 26.616 104.648 26.84C104.144 27.064 103.576 27.176 102.944 27.176C102.248 27.176 101.672 27.056 101.216 26.816C100.76 26.576 100.372 26.248 100.052 25.832L100.796 25.136C101.036 25.472 101.344 25.728 101.72 25.904C102.104 26.08 102.512 26.168 102.944 26.168C103.304 26.168 103.636 26.1 103.94 25.964C104.252 25.836 104.5 25.632 104.684 25.352C104.868 25.08 104.96 24.736 104.96 24.32V23.36C104.736 23.736 104.428 24.032 104.036 24.248C103.644 24.456 103.232 24.56 102.8 24.56ZM103.232 23.492C103.432 23.492 103.624 23.46 103.808 23.396C103.992 23.324 104.16 23.232 104.312 23.12C104.472 23 104.608 22.868 104.72 22.724C104.832 22.572 104.912 22.412 104.96 22.244V20.6C104.856 20.328 104.708 20.092 104.516 19.892C104.324 19.684 104.108 19.524 103.868 19.412C103.628 19.3 103.384 19.244 103.136 19.244C102.848 19.244 102.588 19.308 102.356 19.436C102.132 19.556 101.94 19.72 101.78 19.928C101.62 20.128 101.496 20.356 101.408 20.612C101.32 20.868 101.276 21.132 101.276 21.404C101.276 21.692 101.324 21.96 101.42 22.208C101.524 22.456 101.664 22.68 101.84 22.88C102.016 23.072 102.224 23.224 102.464 23.336C102.704 23.44 102.96 23.492 103.232 23.492ZM107.383 24.5V18.224H108.703V24.5H107.383ZM107.383 17.192V15.74H108.703V17.192H107.383ZM113.302 24.176C113.19 24.232 113.05 24.292 112.882 24.356C112.714 24.42 112.522 24.476 112.306 24.524C112.098 24.572 111.882 24.596 111.658 24.596C111.386 24.596 111.133 24.548 110.901 24.452C110.669 24.356 110.481 24.204 110.338 23.996C110.201 23.78 110.133 23.504 110.133 23.168V19.244H109.305V18.224H110.133V16.16H111.454V18.224H112.821V19.244H111.454V22.748C111.47 22.964 111.538 23.124 111.658 23.228C111.786 23.332 111.942 23.384 112.125 23.384C112.309 23.384 112.485 23.352 112.653 23.288C112.821 23.224 112.946 23.172 113.026 23.132L113.302 24.176ZM113.28 22.664C113.28 22.264 113.392 21.916 113.616 21.62C113.848 21.316 114.164 21.084 114.564 20.924C114.964 20.756 115.428 20.672 115.956 20.672C116.236 20.672 116.52 20.692 116.808 20.732C117.104 20.772 117.364 20.836 117.588 20.924V20.528C117.588 20.088 117.456 19.744 117.192 19.496C116.928 19.248 116.548 19.124 116.052 19.124C115.7 19.124 115.368 19.188 115.056 19.316C114.744 19.436 114.412 19.608 114.06 19.832L113.616 18.944C114.032 18.664 114.448 18.456 114.864 18.32C115.288 18.184 115.732 18.116 116.196 18.116C117.036 18.116 117.696 18.34 118.176 18.788C118.664 19.228 118.908 19.856 118.908 20.672V23.012C118.908 23.164 118.932 23.272 118.98 23.336C119.036 23.4 119.128 23.436 119.256 23.444V24.5C119.136 24.524 119.028 24.54 118.932 24.548C118.836 24.556 118.756 24.56 118.692 24.56C118.412 24.56 118.2 24.492 118.056 24.356C117.912 24.22 117.828 24.06 117.804 23.876L117.768 23.516C117.496 23.868 117.148 24.14 116.724 24.332C116.3 24.524 115.872 24.62 115.44 24.62C115.024 24.62 114.652 24.536 114.324 24.368C113.996 24.192 113.74 23.956 113.556 23.66C113.372 23.364 113.28 23.032 113.28 22.664ZM117.276 23.048C117.372 22.944 117.448 22.84 117.504 22.736C117.56 22.632 117.588 22.54 117.588 22.46V21.74C117.364 21.652 117.128 21.588 116.88 21.548C116.632 21.5 116.388 21.476 116.148 21.476C115.668 21.476 115.276 21.572 114.972 21.764C114.676 21.956 114.528 22.22 114.528 22.556C114.528 22.74 114.576 22.916 114.672 23.084C114.776 23.252 114.92 23.388 115.104 23.492C115.296 23.596 115.532 23.648 115.812 23.648C116.1 23.648 116.376 23.592 116.64 23.48C116.904 23.368 117.116 23.224 117.276 23.048ZM120.041 15.74H121.361V22.688C121.361 23.008 121.409 23.212 121.505 23.3C121.601 23.388 121.721 23.432 121.865 23.432C122.025 23.432 122.173 23.416 122.309 23.384C122.453 23.352 122.577 23.312 122.681 23.264L122.873 24.308C122.681 24.388 122.453 24.456 122.189 24.512C121.925 24.568 121.689 24.596 121.481 24.596C121.033 24.596 120.681 24.472 120.425 24.224C120.169 23.968 120.041 23.616 120.041 23.168V15.74ZM132.636 24.5V18.428L130.128 23.036H129.336L126.816 18.428V24.5H125.472V15.98H126.912L129.732 21.188L132.552 15.98H133.992V24.5H132.636ZM134.739 22.664C134.739 22.264 134.851 21.916 135.075 21.62C135.307 21.316 135.623 21.084 136.023 20.924C136.423 20.756 136.887 20.672 137.415 20.672C137.695 20.672 137.979 20.692 138.267 20.732C138.563 20.772 138.823 20.836 139.047 20.924V20.528C139.047 20.088 138.915 19.744 138.651 19.496C138.387 19.248 138.007 19.124 137.511 19.124C137.159 19.124 136.827 19.188 136.515 19.316C136.203 19.436 135.871 19.608 135.519 19.832L135.075 18.944C135.491 18.664 135.907 18.456 136.323 18.32C136.747 18.184 137.191 18.116 137.655 18.116C138.495 18.116 139.155 18.34 139.635 18.788C140.123 19.228 140.367 19.856 140.367 20.672V23.012C140.367 23.164 140.391 23.272 140.439 23.336C140.495 23.4 140.587 23.436 140.715 23.444V24.5C140.595 24.524 140.487 24.54 140.391 24.548C140.295 24.556 140.215 24.56 140.151 24.56C139.871 24.56 139.659 24.492 139.515 24.356C139.371 24.22 139.287 24.06 139.263 23.876L139.227 23.516C138.955 23.868 138.607 24.14 138.183 24.332C137.759 24.524 137.331 24.62 136.899 24.62C136.483 24.62 136.111 24.536 135.783 24.368C135.455 24.192 135.199 23.956 135.015 23.66C134.831 23.364 134.739 23.032 134.739 22.664ZM138.735 23.048C138.831 22.944 138.907 22.84 138.963 22.736C139.019 22.632 139.047 22.54 139.047 22.46V21.74C138.823 21.652 138.587 21.588 138.339 21.548C138.091 21.5 137.847 21.476 137.607 21.476C137.127 21.476 136.735 21.572 136.431 21.764C136.135 21.956 135.987 22.22 135.987 22.556C135.987 22.74 136.035 22.916 136.131 23.084C136.235 23.252 136.379 23.388 136.563 23.492C136.755 23.596 136.991 23.648 137.271 23.648C137.559 23.648 137.835 23.592 138.099 23.48C138.363 23.368 138.575 23.224 138.735 23.048ZM145.016 19.364C144.504 19.372 144.048 19.488 143.648 19.712C143.256 19.936 142.976 20.252 142.808 20.66V24.5H141.488V18.224H142.712V19.628C142.928 19.196 143.212 18.852 143.564 18.596C143.916 18.332 144.288 18.188 144.68 18.164C144.76 18.164 144.824 18.164 144.872 18.164C144.928 18.164 144.976 18.168 145.016 18.176V19.364ZM149.864 24.5L147.848 21.608L146.816 22.592V24.5H145.496V15.74H146.816V21.26L149.72 18.236H151.136L148.7 20.864L151.268 24.5H149.864ZM154.106 24.62C153.618 24.62 153.174 24.536 152.774 24.368C152.382 24.192 152.042 23.956 151.754 23.66C151.466 23.356 151.242 23.012 151.082 22.628C150.93 22.236 150.854 21.82 150.854 21.38C150.854 20.788 150.99 20.248 151.262 19.76C151.534 19.264 151.914 18.868 152.402 18.572C152.89 18.268 153.462 18.116 154.118 18.116C154.774 18.116 155.338 18.268 155.81 18.572C156.29 18.868 156.662 19.26 156.926 19.748C157.19 20.236 157.322 20.76 157.322 21.32C157.322 21.416 157.318 21.508 157.31 21.596C157.302 21.676 157.294 21.744 157.286 21.8H152.258C152.282 22.168 152.382 22.492 152.558 22.772C152.742 23.044 152.974 23.26 153.254 23.42C153.534 23.572 153.834 23.648 154.154 23.648C154.506 23.648 154.838 23.56 155.15 23.384C155.47 23.208 155.686 22.976 155.798 22.688L156.926 23.012C156.79 23.316 156.582 23.592 156.302 23.84C156.03 24.08 155.706 24.272 155.33 24.416C154.954 24.552 154.546 24.62 154.106 24.62ZM152.222 20.924H156.014C155.99 20.564 155.886 20.248 155.702 19.976C155.526 19.696 155.298 19.48 155.018 19.328C154.746 19.168 154.442 19.088 154.106 19.088C153.778 19.088 153.474 19.168 153.194 19.328C152.922 19.48 152.698 19.696 152.522 19.976C152.346 20.248 152.246 20.564 152.222 20.924ZM161.353 24.176C161.241 24.232 161.101 24.292 160.933 24.356C160.765 24.42 160.573 24.476 160.357 24.524C160.149 24.572 159.933 24.596 159.709 24.596C159.437 24.596 159.185 24.548 158.953 24.452C158.721 24.356 158.533 24.204 158.389 23.996C158.253 23.78 158.185 23.504 158.185 23.168V19.244H157.357V18.224H158.185V16.16H159.505V18.224H160.873V19.244H159.505V22.748C159.521 22.964 159.589 23.124 159.709 23.228C159.837 23.332 159.993 23.384 160.177 23.384C160.361 23.384 160.537 23.352 160.705 23.288C160.873 23.224 160.997 23.172 161.077 23.132L161.353 24.176ZM161.787 24.5V18.224H163.107V24.5H161.787ZM161.787 17.192V15.74H163.107V17.192H161.787ZM169.841 24.5H168.521V20.984C168.521 20.4 168.425 19.972 168.233 19.7C168.049 19.428 167.773 19.292 167.405 19.292C167.149 19.292 166.893 19.356 166.637 19.484C166.389 19.612 166.165 19.788 165.965 20.012C165.765 20.228 165.621 20.48 165.533 20.768V24.5H164.213V18.224H165.413V19.484C165.573 19.204 165.781 18.964 166.037 18.764C166.301 18.556 166.597 18.396 166.925 18.284C167.253 18.172 167.601 18.116 167.969 18.116C168.345 18.116 168.653 18.184 168.893 18.32C169.141 18.456 169.333 18.644 169.469 18.884C169.613 19.116 169.709 19.388 169.757 19.7C169.813 20.004 169.841 20.328 169.841 20.672V24.5ZM173.377 24.56C172.953 24.56 172.565 24.476 172.213 24.308C171.861 24.132 171.557 23.896 171.301 23.6C171.053 23.304 170.857 22.964 170.713 22.58C170.577 22.196 170.509 21.792 170.509 21.368C170.509 20.92 170.581 20.5 170.725 20.108C170.869 19.716 171.069 19.372 171.325 19.076C171.589 18.772 171.897 18.536 172.249 18.368C172.601 18.2 172.993 18.116 173.425 18.116C173.929 18.116 174.369 18.236 174.745 18.476C175.129 18.716 175.445 19.028 175.693 19.412V18.224H176.857V24.32C176.857 24.928 176.709 25.444 176.413 25.868C176.125 26.292 175.729 26.616 175.225 26.84C174.721 27.064 174.153 27.176 173.521 27.176C172.825 27.176 172.249 27.056 171.793 26.816C171.337 26.576 170.949 26.248 170.629 25.832L171.373 25.136C171.613 25.472 171.921 25.728 172.297 25.904C172.681 26.08 173.089 26.168 173.521 26.168C173.881 26.168 174.213 26.1 174.517 25.964C174.829 25.836 175.077 25.632 175.261 25.352C175.445 25.08 175.537 24.736 175.537 24.32V23.36C175.313 23.736 175.005 24.032 174.613 24.248C174.221 24.456 173.809 24.56 173.377 24.56ZM173.809 23.492C174.009 23.492 174.201 23.46 174.385 23.396C174.569 23.324 174.737 23.232 174.889 23.12C175.049 23 175.185 22.868 175.297 22.724C175.409 22.572 175.489 22.412 175.537 22.244V20.6C175.433 20.328 175.285 20.092 175.093 19.892C174.901 19.684 174.685 19.524 174.445 19.412C174.205 19.3 173.961 19.244 173.713 19.244C173.425 19.244 173.165 19.308 172.933 19.436C172.709 19.556 172.517 19.72 172.357 19.928C172.197 20.128 172.073 20.356 171.985 20.612C171.897 20.868 171.853 21.132 171.853 21.404C171.853 21.692 171.901 21.96 171.997 22.208C172.101 22.456 172.241 22.68 172.417 22.88C172.593 23.072 172.801 23.224 173.041 23.336C173.281 23.44 173.537 23.492 173.809 23.492Z" fill="#006DFF"/>
<path d="M181.42 20.18C181.42 19.66 181.512 19.152 181.696 18.656C181.88 18.152 182.148 17.696 182.5 17.288C182.86 16.872 183.296 16.544 183.808 16.304C184.32 16.056 184.9 15.932 185.548 15.932C186.316 15.932 186.98 16.108 187.54 16.46C188.1 16.804 188.516 17.248 188.788 17.792L187.732 18.5C187.572 18.156 187.368 17.884 187.12 17.684C186.88 17.484 186.616 17.344 186.328 17.264C186.048 17.184 185.772 17.144 185.5 17.144C185.052 17.144 184.66 17.236 184.324 17.42C183.988 17.596 183.704 17.832 183.472 18.128C183.248 18.424 183.076 18.756 182.956 19.124C182.844 19.492 182.788 19.86 182.788 20.228C182.788 20.636 182.856 21.032 182.992 21.416C183.128 21.792 183.316 22.128 183.556 22.424C183.804 22.712 184.096 22.94 184.432 23.108C184.768 23.276 185.136 23.36 185.536 23.36C185.808 23.36 186.092 23.312 186.388 23.216C186.684 23.12 186.956 22.972 187.204 22.772C187.46 22.564 187.66 22.292 187.804 21.956L188.92 22.592C188.744 23.016 188.468 23.376 188.092 23.672C187.724 23.968 187.308 24.192 186.844 24.344C186.388 24.496 185.936 24.572 185.488 24.572C184.888 24.572 184.34 24.448 183.844 24.2C183.348 23.944 182.92 23.608 182.56 23.192C182.2 22.768 181.92 22.296 181.72 21.776C181.52 21.248 181.42 20.716 181.42 20.18ZM192.323 24.62C191.827 24.62 191.383 24.536 190.991 24.368C190.599 24.192 190.259 23.952 189.971 23.648C189.691 23.344 189.475 23 189.323 22.616C189.171 22.224 189.095 21.808 189.095 21.368C189.095 20.928 189.171 20.512 189.323 20.12C189.475 19.728 189.691 19.384 189.971 19.088C190.259 18.784 190.599 18.548 190.991 18.38C191.391 18.204 191.835 18.116 192.323 18.116C192.811 18.116 193.251 18.204 193.643 18.38C194.043 18.548 194.383 18.784 194.663 19.088C194.951 19.384 195.171 19.728 195.323 20.12C195.475 20.512 195.551 20.928 195.551 21.368C195.551 21.808 195.475 22.224 195.323 22.616C195.171 23 194.951 23.344 194.663 23.648C194.383 23.952 194.043 24.192 193.643 24.368C193.251 24.536 192.811 24.62 192.323 24.62ZM190.451 21.38C190.451 21.78 190.535 22.14 190.703 22.46C190.871 22.78 191.095 23.032 191.375 23.216C191.655 23.4 191.971 23.492 192.323 23.492C192.667 23.492 192.979 23.4 193.259 23.216C193.547 23.024 193.775 22.768 193.943 22.448C194.111 22.12 194.195 21.76 194.195 21.368C194.195 20.968 194.111 20.608 193.943 20.288C193.775 19.968 193.547 19.716 193.259 19.532C192.979 19.34 192.667 19.244 192.323 19.244C191.971 19.244 191.655 19.34 191.375 19.532C191.095 19.724 190.871 19.98 190.703 20.3C190.535 20.612 190.451 20.972 190.451 21.38ZM196.182 22.064V18.224H197.502V21.8C197.502 22.36 197.602 22.784 197.802 23.072C198.01 23.352 198.31 23.492 198.702 23.492C198.95 23.492 199.19 23.44 199.422 23.336C199.662 23.232 199.878 23.08 200.07 22.88C200.27 22.672 200.43 22.424 200.55 22.136V18.224H201.87V23.012C201.87 23.164 201.898 23.272 201.954 23.336C202.01 23.4 202.102 23.436 202.23 23.444V24.5C202.094 24.524 201.982 24.54 201.894 24.548C201.806 24.556 201.722 24.56 201.642 24.56C201.402 24.56 201.202 24.496 201.042 24.368C200.882 24.232 200.79 24.06 200.766 23.852L200.742 23.228C200.462 23.684 200.098 24.032 199.65 24.272C199.202 24.504 198.71 24.62 198.174 24.62C197.518 24.62 197.022 24.404 196.686 23.972C196.35 23.54 196.182 22.904 196.182 22.064ZM206.603 19.364C206.091 19.372 205.635 19.488 205.235 19.712C204.843 19.936 204.563 20.252 204.395 20.66V24.5H203.075V18.224H204.299V19.628C204.515 19.196 204.799 18.852 205.151 18.596C205.503 18.332 205.875 18.188 206.267 18.164C206.347 18.164 206.411 18.164 206.459 18.164C206.515 18.164 206.563 18.168 206.603 18.176V19.364ZM209.315 24.62C208.787 24.62 208.287 24.536 207.815 24.368C207.343 24.192 206.939 23.932 206.603 23.588L207.095 22.7C207.455 23.02 207.815 23.252 208.175 23.396C208.543 23.54 208.907 23.612 209.267 23.612C209.635 23.612 209.935 23.544 210.167 23.408C210.399 23.264 210.515 23.056 210.515 22.784C210.515 22.584 210.455 22.436 210.335 22.34C210.215 22.244 210.039 22.16 209.807 22.088C209.583 22.016 209.311 21.936 208.991 21.848C208.543 21.712 208.167 21.572 207.863 21.428C207.559 21.276 207.331 21.092 207.179 20.876C207.027 20.66 206.951 20.384 206.951 20.048C206.951 19.64 207.055 19.292 207.263 19.004C207.471 18.716 207.759 18.496 208.127 18.344C208.503 18.192 208.935 18.116 209.423 18.116C209.879 18.116 210.299 18.188 210.683 18.332C211.075 18.468 211.419 18.684 211.715 18.98L211.151 19.856C210.871 19.6 210.583 19.412 210.287 19.292C209.999 19.172 209.687 19.112 209.351 19.112C209.159 19.112 208.975 19.136 208.799 19.184C208.623 19.224 208.475 19.304 208.355 19.424C208.243 19.536 208.187 19.696 208.187 19.904C208.187 20.072 208.235 20.208 208.331 20.312C208.427 20.416 208.571 20.504 208.763 20.576C208.955 20.648 209.191 20.728 209.471 20.816C209.959 20.96 210.375 21.104 210.719 21.248C211.063 21.384 211.327 21.564 211.511 21.788C211.703 22.004 211.799 22.304 211.799 22.688C211.799 23.296 211.571 23.772 211.115 24.116C210.667 24.452 210.067 24.62 209.315 24.62ZM215.341 24.62C214.853 24.62 214.409 24.536 214.009 24.368C213.617 24.192 213.277 23.956 212.989 23.66C212.701 23.356 212.477 23.012 212.317 22.628C212.165 22.236 212.089 21.82 212.089 21.38C212.089 20.788 212.225 20.248 212.497 19.76C212.769 19.264 213.149 18.868 213.637 18.572C214.125 18.268 214.697 18.116 215.353 18.116C216.009 18.116 216.573 18.268 217.045 18.572C217.525 18.868 217.897 19.26 218.161 19.748C218.425 20.236 218.557 20.76 218.557 21.32C218.557 21.416 218.553 21.508 218.545 21.596C218.537 21.676 218.529 21.744 218.521 21.8H213.493C213.517 22.168 213.617 22.492 213.793 22.772C213.977 23.044 214.209 23.26 214.489 23.42C214.769 23.572 215.069 23.648 215.389 23.648C215.741 23.648 216.073 23.56 216.385 23.384C216.705 23.208 216.921 22.976 217.033 22.688L218.161 23.012C218.025 23.316 217.817 23.592 217.537 23.84C217.265 24.08 216.941 24.272 216.565 24.416C216.189 24.552 215.781 24.62 215.341 24.62ZM213.457 20.924H217.249C217.225 20.564 217.121 20.248 216.937 19.976C216.761 19.696 216.533 19.48 216.253 19.328C215.981 19.168 215.677 19.088 215.341 19.088C215.013 19.088 214.709 19.168 214.429 19.328C214.157 19.48 213.933 19.696 213.757 19.976C213.581 20.248 213.481 20.564 213.457 20.924ZM221.639 24.5V18.224H222.959V24.5H221.639ZM221.639 17.192V15.74H222.959V17.192H221.639ZM229.693 24.5H228.373V20.984C228.373 20.4 228.277 19.972 228.085 19.7C227.901 19.428 227.625 19.292 227.257 19.292C227.001 19.292 226.745 19.356 226.489 19.484C226.241 19.612 226.017 19.788 225.817 20.012C225.617 20.228 225.473 20.48 225.385 20.768V24.5H224.065V18.224H225.265V19.484C225.425 19.204 225.633 18.964 225.889 18.764C226.153 18.556 226.449 18.396 226.777 18.284C227.105 18.172 227.453 18.116 227.821 18.116C228.197 18.116 228.505 18.184 228.745 18.32C228.993 18.456 229.185 18.644 229.321 18.884C229.465 19.116 229.561 19.388 229.609 19.7C229.665 20.004 229.693 20.328 229.693 20.672V24.5ZM233.398 24.5V15.98H234.742V24.5H233.398ZM241.648 24.5H240.328V20.984C240.328 20.4 240.232 19.972 240.04 19.7C239.856 19.428 239.58 19.292 239.212 19.292C238.956 19.292 238.7 19.356 238.444 19.484C238.196 19.612 237.972 19.788 237.772 20.012C237.572 20.228 237.428 20.48 237.34 20.768V24.5H236.02V18.224H237.22V19.484C237.38 19.204 237.588 18.964 237.844 18.764C238.108 18.556 238.404 18.396 238.732 18.284C239.06 18.172 239.408 18.116 239.776 18.116C240.152 18.116 240.46 18.184 240.7 18.32C240.948 18.456 241.14 18.644 241.276 18.884C241.42 19.116 241.516 19.388 241.564 19.7C241.62 20.004 241.648 20.328 241.648 20.672V24.5ZM242.304 21.368C242.304 20.768 242.424 20.224 242.664 19.736C242.912 19.24 243.248 18.848 243.672 18.56C244.096 18.264 244.584 18.116 245.136 18.116C245.616 18.116 246.048 18.24 246.432 18.488C246.824 18.736 247.128 19.044 247.344 19.412V15.74H248.664V23.012C248.664 23.164 248.692 23.272 248.748 23.336C248.804 23.4 248.896 23.436 249.024 23.444V24.5C248.776 24.54 248.584 24.56 248.448 24.56C248.2 24.56 247.988 24.488 247.812 24.344C247.644 24.2 247.556 24.028 247.548 23.828L247.536 23.36C247.296 23.76 246.972 24.072 246.564 24.296C246.156 24.512 245.732 24.62 245.292 24.62C244.86 24.62 244.46 24.536 244.092 24.368C243.732 24.2 243.416 23.964 243.144 23.66C242.88 23.356 242.672 23.008 242.52 22.616C242.376 22.224 242.304 21.808 242.304 21.368ZM247.344 22.244V20.6C247.256 20.344 247.112 20.116 246.912 19.916C246.72 19.708 246.5 19.544 246.252 19.424C246.012 19.304 245.772 19.244 245.532 19.244C245.252 19.244 244.996 19.304 244.764 19.424C244.54 19.544 244.344 19.704 244.176 19.904C244.016 20.104 243.892 20.332 243.804 20.588C243.716 20.844 243.672 21.112 243.672 21.392C243.672 21.68 243.72 21.952 243.816 22.208C243.912 22.456 244.048 22.68 244.224 22.88C244.408 23.072 244.616 23.224 244.848 23.336C245.088 23.44 245.348 23.492 245.628 23.492C245.804 23.492 245.98 23.46 246.156 23.396C246.34 23.332 246.512 23.244 246.672 23.132C246.84 23.02 246.98 22.888 247.092 22.736C247.212 22.584 247.296 22.42 247.344 22.244ZM249.861 24.5V18.224H251.181V24.5H249.861ZM249.861 17.192V15.74H251.181V17.192H249.861ZM251.831 22.664C251.831 22.264 251.943 21.916 252.167 21.62C252.399 21.316 252.715 21.084 253.115 20.924C253.515 20.756 253.979 20.672 254.507 20.672C254.787 20.672 255.071 20.692 255.359 20.732C255.655 20.772 255.915 20.836 256.139 20.924V20.528C256.139 20.088 256.007 19.744 255.743 19.496C255.479 19.248 255.099 19.124 254.603 19.124C254.251 19.124 253.919 19.188 253.607 19.316C253.295 19.436 252.963 19.608 252.611 19.832L252.167 18.944C252.583 18.664 252.999 18.456 253.415 18.32C253.839 18.184 254.283 18.116 254.747 18.116C255.587 18.116 256.247 18.34 256.727 18.788C257.215 19.228 257.459 19.856 257.459 20.672V23.012C257.459 23.164 257.483 23.272 257.531 23.336C257.587 23.4 257.679 23.436 257.807 23.444V24.5C257.687 24.524 257.579 24.54 257.483 24.548C257.387 24.556 257.307 24.56 257.243 24.56C256.963 24.56 256.751 24.492 256.607 24.356C256.463 24.22 256.379 24.06 256.355 23.876L256.319 23.516C256.047 23.868 255.699 24.14 255.275 24.332C254.851 24.524 254.423 24.62 253.991 24.62C253.575 24.62 253.203 24.536 252.875 24.368C252.547 24.192 252.291 23.956 252.107 23.66C251.923 23.364 251.831 23.032 251.831 22.664ZM255.827 23.048C255.923 22.944 255.999 22.84 256.055 22.736C256.111 22.632 256.139 22.54 256.139 22.46V21.74C255.915 21.652 255.679 21.588 255.431 21.548C255.183 21.5 254.939 21.476 254.699 21.476C254.219 21.476 253.827 21.572 253.523 21.764C253.227 21.956 253.079 22.22 253.079 22.556C253.079 22.74 253.127 22.916 253.223 23.084C253.327 23.252 253.471 23.388 253.655 23.492C253.847 23.596 254.083 23.648 254.363 23.648C254.651 23.648 254.927 23.592 255.191 23.48C255.455 23.368 255.667 23.224 255.827 23.048ZM258.52 24.5V22.964H259.612V24.5H258.52Z" fill="black" fill-opacity="0.6"/>
<defs>
<clipPath id="clip0_2045_816">
<rect width="18" height="18" fill="white" transform="translate(11 11)"/>
</clipPath>
</defs>
</svg>
