<svg width="24" height="24" viewBox="0 0 24 24" fill="none" xmlns="http://www.w3.org/2000/svg">
<path fill-rule="evenodd" clip-rule="evenodd" d="M12 2.75C6.89137 2.75 2.75 6.89137 2.75 12C2.75 17.1086 6.89137 21.25 12 21.25C17.1086 21.25 21.25 17.1086 21.25 12C21.25 6.89137 17.1086 2.75 12 2.75ZM1.25 12C1.25 6.06294 6.06294 1.25 12 1.25C17.9371 1.25 22.75 6.06294 22.75 12C22.75 17.9371 17.9371 22.75 12 22.75C6.06294 22.75 1.25 17.9371 1.25 12Z" fill="#EA4335"/>
<path fill-rule="evenodd" clip-rule="evenodd" d="M8.96967 8.96967C9.26256 8.67678 9.73744 8.67678 10.0303 8.96967L12 10.9394L13.9697 8.96969C14.2626 8.6768 14.7374 8.6768 15.0303 8.96969C15.3232 9.26258 15.3232 9.73746 15.0303 10.0304L13.0607 12L15.0303 13.9696C15.3232 14.2625 15.3232 14.7374 15.0303 15.0303C14.7374 15.3232 14.2625 15.3232 13.9696 15.0303L12 13.0607L10.0304 15.0303C9.73746 15.3232 9.26258 15.3232 8.96969 15.0303C8.6768 14.7374 8.6768 14.2626 8.96969 13.9697L10.9393 12L8.96967 10.0303C8.67678 9.73744 8.67678 9.26256 8.96967 8.96967Z" fill="#EA4335"/>
</svg>
