<svg width="199" height="32" viewBox="0 0 199 32" fill="none" xmlns="http://www.w3.org/2000/svg">
<rect width="199" height="32" rx="16" fill="black" fill-opacity="0.4"/>
<g clip-path="url(#clip0_2084_149)">
<path d="M15.9999 14.5459V17.6441H20.3053C20.1163 18.6404 19.5489 19.4841 18.698 20.0514L21.2944 22.0659C22.8071 20.6696 23.6798 18.6187 23.6798 16.1823C23.6798 15.6151 23.6289 15.0696 23.5344 14.546L15.9999 14.5459Z" fill="#4285F4"/>
<path d="M11.5165 17.5225L10.9309 17.9707L8.85812 19.5852C10.1745 22.1961 12.8725 23.9998 15.9997 23.9998C18.1597 23.9998 19.9705 23.287 21.2942 22.0653L18.6979 20.0507C17.9851 20.5307 17.076 20.8216 15.9997 20.8216C13.9197 20.8216 12.1525 19.418 11.5197 17.5271L11.5165 17.5225Z" fill="#34A853"/>
<path d="M8.85812 12.4141C8.31269 13.4904 8 14.7049 8 15.9995C8 17.294 8.31269 18.5086 8.85812 19.5849C8.85812 19.5921 11.52 17.5194 11.52 17.5194C11.36 17.0394 11.2654 16.5304 11.2654 15.9994C11.2654 15.4684 11.36 14.9593 11.52 14.4793L8.85812 12.4141Z" fill="#FBBC05"/>
<path d="M15.9999 11.1855C17.1781 11.1855 18.2253 11.5927 19.0617 12.3782L21.3526 10.0873C19.9635 8.79278 18.1599 8 15.9999 8C12.8726 8 10.1745 9.79636 8.85812 12.4146L11.5199 14.48C12.1526 12.5891 13.9199 11.1855 15.9999 11.1855Z" fill="#EA4335"/>
</g>
<path d="M33.032 20V11.48H38.564V12.668H33.644L34.328 11.96V15.872L33.644 15.26H38.348V16.412H33.644L34.328 15.8V20H33.032ZM39.5858 20V13.616H40.8578V20H39.5858ZM39.5618 12.692V11.42H40.8818V12.692H39.5618ZM42.5216 20V13.616H43.6856L43.7336 15.32L43.5776 15.236C43.6496 14.82 43.7856 14.484 43.9856 14.228C44.1856 13.972 44.4296 13.784 44.7176 13.664C45.0056 13.536 45.3176 13.472 45.6536 13.472C46.1336 13.472 46.5296 13.58 46.8416 13.796C47.1616 14.004 47.4016 14.292 47.5616 14.66C47.7296 15.02 47.8136 15.432 47.8136 15.896V20H46.5416V16.28C46.5416 15.904 46.5016 15.588 46.4216 15.332C46.3416 15.076 46.2096 14.88 46.0256 14.744C45.8416 14.608 45.6016 14.54 45.3056 14.54C44.8576 14.54 44.4936 14.688 44.2136 14.984C43.9336 15.28 43.7936 15.712 43.7936 16.28V20H42.5216ZM51.4988 20.144C50.9548 20.144 50.4788 20.008 50.0708 19.736C49.6708 19.464 49.3628 19.08 49.1468 18.584C48.9388 18.08 48.8348 17.488 48.8348 16.808C48.8348 16.128 48.9428 15.54 49.1588 15.044C49.3748 14.54 49.6828 14.152 50.0828 13.88C50.4828 13.608 50.9548 13.472 51.4988 13.472C51.9388 13.472 52.3308 13.564 52.6748 13.748C53.0188 13.932 53.2788 14.188 53.4548 14.516V11.48H54.7268V20H53.5388L53.5028 19.04C53.3268 19.384 53.0588 19.656 52.6988 19.856C52.3468 20.048 51.9468 20.144 51.4988 20.144ZM51.8348 19.04C52.1788 19.04 52.4708 18.952 52.7108 18.776C52.9508 18.6 53.1348 18.344 53.2628 18.008C53.3908 17.672 53.4548 17.272 53.4548 16.808C53.4548 16.328 53.3908 15.924 53.2628 15.596C53.1348 15.26 52.9508 15.008 52.7108 14.84C52.4708 14.664 52.1788 14.576 51.8348 14.576C51.3228 14.576 50.9148 14.776 50.6108 15.176C50.3068 15.568 50.1548 16.112 50.1548 16.808C50.1548 17.496 50.3068 18.04 50.6108 18.44C50.9148 18.84 51.3228 19.04 51.8348 19.04ZM62.1495 20.144C61.7095 20.144 61.3175 20.048 60.9735 19.856C60.6375 19.656 60.3775 19.384 60.1935 19.04L60.1575 20H58.9695V11.48H60.2415V14.516C60.4095 14.236 60.6575 13.992 60.9855 13.784C61.3215 13.576 61.7095 13.472 62.1495 13.472C62.7015 13.472 63.1815 13.608 63.5895 13.88C63.9975 14.152 64.3095 14.54 64.5255 15.044C64.7495 15.54 64.8615 16.128 64.8615 16.808C64.8615 17.488 64.7495 18.08 64.5255 18.584C64.3095 19.08 63.9975 19.464 63.5895 19.736C63.1815 20.008 62.7015 20.144 62.1495 20.144ZM61.9455 19.04C62.4335 19.04 62.8215 18.844 63.1095 18.452C63.3975 18.052 63.5415 17.504 63.5415 16.808C63.5415 16.112 63.3975 15.568 63.1095 15.176C62.8215 14.776 62.4375 14.576 61.9575 14.576C61.5975 14.576 61.2895 14.664 61.0335 14.84C60.7775 15.016 60.5815 15.272 60.4455 15.608C60.3095 15.936 60.2415 16.336 60.2415 16.808C60.2415 17.264 60.3095 17.66 60.4455 17.996C60.5815 18.332 60.7775 18.592 61.0335 18.776C61.2895 18.952 61.5935 19.04 61.9455 19.04ZM68.5411 20.144C67.9171 20.144 67.3771 20.008 66.9211 19.736C66.4731 19.464 66.1251 19.076 65.8771 18.572C65.6371 18.068 65.5171 17.48 65.5171 16.808C65.5171 16.136 65.6371 15.552 65.8771 15.056C66.1251 14.552 66.4731 14.164 66.9211 13.892C67.3691 13.612 67.8971 13.472 68.5051 13.472C69.0811 13.472 69.5891 13.608 70.0291 13.88C70.4691 14.144 70.8091 14.528 71.0491 15.032C71.2971 15.536 71.4211 16.144 71.4211 16.856V17.18H66.8371C66.8691 17.804 67.0331 18.272 67.3291 18.584C67.6331 18.896 68.0411 19.052 68.5531 19.052C68.9291 19.052 69.2411 18.964 69.4891 18.788C69.7371 18.612 69.9091 18.376 70.0051 18.08L71.3251 18.164C71.1571 18.756 70.8251 19.236 70.3291 19.604C69.8411 19.964 69.2451 20.144 68.5411 20.144ZM66.8371 16.22H70.0771C70.0371 15.652 69.8731 15.232 69.5851 14.96C69.3051 14.688 68.9451 14.552 68.5051 14.552C68.0491 14.552 67.6731 14.696 67.3771 14.984C67.0891 15.264 66.9091 15.676 66.8371 16.22ZM74.93 20.144C74.33 20.144 73.822 20.052 73.406 19.868C72.998 19.684 72.682 19.432 72.458 19.112C72.234 18.784 72.106 18.408 72.074 17.984L73.382 17.924C73.446 18.276 73.598 18.556 73.838 18.764C74.078 18.972 74.442 19.076 74.93 19.076C75.33 19.076 75.646 19.012 75.878 18.884C76.11 18.756 76.226 18.552 76.226 18.272C76.226 18.12 76.186 17.992 76.106 17.888C76.034 17.776 75.89 17.684 75.674 17.612C75.458 17.532 75.138 17.456 74.714 17.384C74.082 17.264 73.586 17.124 73.226 16.964C72.866 16.804 72.61 16.6 72.458 16.352C72.306 16.104 72.23 15.804 72.23 15.452C72.23 14.868 72.446 14.392 72.878 14.024C73.318 13.656 73.95 13.472 74.774 13.472C75.326 13.472 75.79 13.568 76.166 13.76C76.542 13.944 76.834 14.196 77.042 14.516C77.258 14.828 77.394 15.18 77.45 15.572L76.142 15.644C76.102 15.42 76.022 15.228 75.902 15.068C75.79 14.9 75.638 14.772 75.446 14.684C75.254 14.588 75.026 14.54 74.762 14.54C74.354 14.54 74.05 14.62 73.85 14.78C73.65 14.94 73.55 15.148 73.55 15.404C73.55 15.596 73.594 15.752 73.682 15.872C73.778 15.992 73.93 16.092 74.138 16.172C74.346 16.244 74.622 16.308 74.966 16.364C75.63 16.476 76.15 16.616 76.526 16.784C76.902 16.944 77.166 17.144 77.318 17.384C77.47 17.624 77.546 17.916 77.546 18.26C77.546 18.66 77.434 19 77.21 19.28C76.986 19.56 76.678 19.776 76.286 19.928C75.894 20.072 75.442 20.144 74.93 20.144ZM80.8069 20C80.1989 20 79.7509 19.86 79.4629 19.58C79.1749 19.3 79.0309 18.864 79.0309 18.272V12.116H80.3029V18.176C80.3029 18.472 80.3669 18.676 80.4949 18.788C80.6229 18.9 80.8189 18.956 81.0829 18.956H81.9949V20H80.8069ZM78.0589 14.66V13.616H81.9949V14.66H78.0589Z" fill="white"/>
<path d="M87.032 20V11.48H88.808L91.34 18.476L93.872 11.48H95.648V20H94.352V13.76L92.06 19.988H90.62L88.328 13.76V20H87.032ZM99.0066 20.144C98.3426 20.144 97.8106 19.992 97.4106 19.688C97.0186 19.384 96.8226 18.956 96.8226 18.404C96.8226 17.852 96.9866 17.424 97.3146 17.12C97.6506 16.808 98.1666 16.584 98.8626 16.448L101.059 16.028C101.059 15.532 100.943 15.164 100.711 14.924C100.479 14.676 100.135 14.552 99.6786 14.552C99.2706 14.552 98.9506 14.644 98.7186 14.828C98.4866 15.004 98.3266 15.268 98.2386 15.62L96.9306 15.536C97.0506 14.896 97.3466 14.392 97.8186 14.024C98.2986 13.656 98.9186 13.472 99.6786 13.472C100.543 13.472 101.199 13.704 101.647 14.168C102.103 14.624 102.331 15.268 102.331 16.1V18.584C102.331 18.736 102.355 18.844 102.403 18.908C102.459 18.964 102.547 18.992 102.667 18.992H102.895V20C102.855 20.008 102.791 20.016 102.703 20.024C102.615 20.032 102.523 20.036 102.427 20.036C102.155 20.036 101.919 19.992 101.719 19.904C101.527 19.816 101.383 19.672 101.287 19.472C101.191 19.264 101.143 18.988 101.143 18.644L101.275 18.704C101.211 18.984 101.071 19.232 100.855 19.448C100.647 19.664 100.379 19.836 100.051 19.964C99.7306 20.084 99.3826 20.144 99.0066 20.144ZM99.2106 19.136C99.5946 19.136 99.9226 19.064 100.195 18.92C100.467 18.768 100.679 18.56 100.831 18.296C100.983 18.032 101.059 17.732 101.059 17.396V16.988L99.1866 17.348C98.8026 17.42 98.5306 17.536 98.3706 17.696C98.2186 17.848 98.1426 18.044 98.1426 18.284C98.1426 18.556 98.2346 18.768 98.4186 18.92C98.6106 19.064 98.8746 19.136 99.2106 19.136ZM103.729 20V13.616H104.893L104.941 15.308L104.833 15.272C104.921 14.696 105.097 14.276 105.361 14.012C105.633 13.748 105.997 13.616 106.453 13.616H107.065V14.756H106.453C106.133 14.756 105.865 14.808 105.649 14.912C105.433 15.016 105.269 15.176 105.157 15.392C105.053 15.608 105.001 15.888 105.001 16.232V20H103.729ZM107.871 20V11.48H109.143V16.772L112.011 13.616H113.619L111.123 16.304L113.715 20H112.251L110.271 17.096L109.143 18.296V20H107.871ZM116.892 20.144C116.268 20.144 115.728 20.008 115.272 19.736C114.824 19.464 114.476 19.076 114.228 18.572C113.988 18.068 113.868 17.48 113.868 16.808C113.868 16.136 113.988 15.552 114.228 15.056C114.476 14.552 114.824 14.164 115.272 13.892C115.72 13.612 116.248 13.472 116.856 13.472C117.432 13.472 117.94 13.608 118.38 13.88C118.82 14.144 119.16 14.528 119.4 15.032C119.648 15.536 119.772 16.144 119.772 16.856V17.18H115.188C115.22 17.804 115.384 18.272 115.68 18.584C115.984 18.896 116.392 19.052 116.904 19.052C117.28 19.052 117.592 18.964 117.84 18.788C118.088 18.612 118.26 18.376 118.356 18.08L119.676 18.164C119.508 18.756 119.176 19.236 118.68 19.604C118.192 19.964 117.596 20.144 116.892 20.144ZM115.188 16.22H118.428C118.388 15.652 118.224 15.232 117.936 14.96C117.656 14.688 117.296 14.552 116.856 14.552C116.4 14.552 116.024 14.696 115.728 14.984C115.44 15.264 115.26 15.676 115.188 16.22ZM123.035 20C122.427 20 121.979 19.86 121.691 19.58C121.403 19.3 121.259 18.864 121.259 18.272V12.116H122.531V18.176C122.531 18.472 122.595 18.676 122.723 18.788C122.851 18.9 123.047 18.956 123.311 18.956H124.223V20H123.035ZM120.287 14.66V13.616H124.223V14.66H120.287ZM125.198 20V13.616H126.47V20H125.198ZM125.174 12.692V11.42H126.494V12.692H125.174ZM128.134 20V13.616H129.298L129.346 15.32L129.19 15.236C129.262 14.82 129.398 14.484 129.598 14.228C129.798 13.972 130.042 13.784 130.33 13.664C130.618 13.536 130.93 13.472 131.266 13.472C131.746 13.472 132.142 13.58 132.454 13.796C132.774 14.004 133.014 14.292 133.174 14.66C133.342 15.02 133.426 15.432 133.426 15.896V20H132.154V16.28C132.154 15.904 132.114 15.588 132.034 15.332C131.954 15.076 131.822 14.88 131.638 14.744C131.454 14.608 131.214 14.54 130.918 14.54C130.47 14.54 130.106 14.688 129.826 14.984C129.546 15.28 129.406 15.712 129.406 16.28V20H128.134ZM137.411 21.944C136.907 21.944 136.463 21.868 136.079 21.716C135.695 21.564 135.379 21.348 135.131 21.068C134.883 20.796 134.715 20.476 134.627 20.108L135.947 20.024C136.035 20.288 136.187 20.496 136.403 20.648C136.627 20.808 136.963 20.888 137.411 20.888C137.939 20.888 138.343 20.776 138.623 20.552C138.911 20.328 139.055 19.988 139.055 19.532V18.608C138.903 18.936 138.659 19.196 138.323 19.388C137.987 19.58 137.611 19.676 137.195 19.676C136.659 19.676 136.183 19.544 135.767 19.28C135.351 19.016 135.027 18.652 134.795 18.188C134.563 17.724 134.447 17.188 134.447 16.58C134.447 15.964 134.559 15.424 134.783 14.96C135.015 14.496 135.335 14.132 135.743 13.868C136.159 13.604 136.627 13.472 137.147 13.472C137.603 13.472 138.003 13.576 138.347 13.784C138.699 13.992 138.951 14.272 139.103 14.624V13.616H140.327V19.496C140.327 20.024 140.207 20.468 139.967 20.828C139.735 21.196 139.399 21.472 138.959 21.656C138.527 21.848 138.011 21.944 137.411 21.944ZM137.399 18.596C137.895 18.596 138.291 18.416 138.587 18.056C138.891 17.696 139.047 17.2 139.055 16.568C139.063 16.152 138.999 15.796 138.863 15.5C138.727 15.196 138.531 14.964 138.275 14.804C138.027 14.636 137.735 14.552 137.399 14.552C136.879 14.552 136.475 14.736 136.187 15.104C135.907 15.464 135.767 15.952 135.767 16.568C135.767 17.192 135.911 17.688 136.199 18.056C136.495 18.416 136.895 18.596 137.399 18.596Z" fill="white"/>
<path d="M148.416 20.192C147.648 20.192 146.972 20.016 146.388 19.664C145.804 19.304 145.348 18.792 145.02 18.128C144.692 17.464 144.528 16.672 144.528 15.752C144.528 14.84 144.688 14.052 145.008 13.388C145.336 12.716 145.792 12.2 146.376 11.84C146.96 11.472 147.644 11.288 148.428 11.288C149.484 11.288 150.304 11.552 150.888 12.08C151.472 12.608 151.852 13.34 152.028 14.276L150.672 14.348C150.56 13.764 150.32 13.308 149.952 12.98C149.584 12.644 149.076 12.476 148.428 12.476C147.908 12.476 147.456 12.608 147.072 12.872C146.696 13.136 146.4 13.512 146.184 14C145.976 14.488 145.872 15.072 145.872 15.752C145.872 16.432 145.976 17.016 146.184 17.504C146.4 17.992 146.7 18.364 147.084 18.62C147.468 18.876 147.912 19.004 148.416 19.004C149.104 19.004 149.636 18.824 150.012 18.464C150.396 18.096 150.636 17.592 150.732 16.952L152.088 17.024C151.984 17.672 151.776 18.232 151.464 18.704C151.152 19.176 150.74 19.544 150.228 19.808C149.716 20.064 149.112 20.192 148.416 20.192ZM155.749 20.144C155.141 20.144 154.609 20.008 154.153 19.736C153.697 19.464 153.345 19.076 153.097 18.572C152.849 18.068 152.725 17.48 152.725 16.808C152.725 16.128 152.849 15.54 153.097 15.044C153.345 14.548 153.697 14.164 154.153 13.892C154.609 13.612 155.141 13.472 155.749 13.472C156.357 13.472 156.889 13.612 157.345 13.892C157.801 14.164 158.153 14.548 158.401 15.044C158.649 15.54 158.773 16.128 158.773 16.808C158.773 17.48 158.649 18.068 158.401 18.572C158.153 19.076 157.801 19.464 157.345 19.736C156.889 20.008 156.357 20.144 155.749 20.144ZM155.749 19.04C156.293 19.04 156.713 18.844 157.009 18.452C157.305 18.052 157.453 17.504 157.453 16.808C157.453 16.112 157.305 15.568 157.009 15.176C156.713 14.776 156.293 14.576 155.749 14.576C155.213 14.576 154.793 14.776 154.489 15.176C154.193 15.568 154.045 16.112 154.045 16.808C154.045 17.504 154.193 18.052 154.489 18.452C154.793 18.844 155.213 19.04 155.749 19.04ZM161.918 20.144C161.278 20.144 160.766 19.932 160.382 19.508C160.006 19.076 159.818 18.48 159.818 17.72V13.616H161.09V17.396C161.09 17.972 161.19 18.396 161.39 18.668C161.59 18.94 161.894 19.076 162.302 19.076C162.766 19.076 163.126 18.928 163.382 18.632C163.646 18.328 163.778 17.904 163.778 17.36V13.616H165.05V20H163.862L163.838 18.332L164.018 18.404C163.906 18.964 163.67 19.396 163.31 19.7C162.95 19.996 162.486 20.144 161.918 20.144ZM166.61 20V13.616H167.774L167.822 15.308L167.714 15.272C167.802 14.696 167.978 14.276 168.242 14.012C168.514 13.748 168.878 13.616 169.334 13.616H169.946V14.756H169.334C169.014 14.756 168.746 14.808 168.53 14.912C168.314 15.016 168.15 15.176 168.038 15.392C167.934 15.608 167.882 15.888 167.882 16.232V20H166.61ZM173.072 20.144C172.472 20.144 171.964 20.052 171.548 19.868C171.14 19.684 170.824 19.432 170.6 19.112C170.376 18.784 170.248 18.408 170.216 17.984L171.524 17.924C171.588 18.276 171.74 18.556 171.98 18.764C172.22 18.972 172.584 19.076 173.072 19.076C173.472 19.076 173.788 19.012 174.02 18.884C174.252 18.756 174.368 18.552 174.368 18.272C174.368 18.12 174.328 17.992 174.248 17.888C174.176 17.776 174.032 17.684 173.816 17.612C173.6 17.532 173.28 17.456 172.856 17.384C172.224 17.264 171.728 17.124 171.368 16.964C171.008 16.804 170.752 16.6 170.6 16.352C170.448 16.104 170.372 15.804 170.372 15.452C170.372 14.868 170.588 14.392 171.02 14.024C171.46 13.656 172.092 13.472 172.916 13.472C173.468 13.472 173.932 13.568 174.308 13.76C174.684 13.944 174.976 14.196 175.184 14.516C175.4 14.828 175.536 15.18 175.592 15.572L174.284 15.644C174.244 15.42 174.164 15.228 174.044 15.068C173.932 14.9 173.78 14.772 173.588 14.684C173.396 14.588 173.168 14.54 172.904 14.54C172.496 14.54 172.192 14.62 171.992 14.78C171.792 14.94 171.692 15.148 171.692 15.404C171.692 15.596 171.736 15.752 171.824 15.872C171.92 15.992 172.072 16.092 172.28 16.172C172.488 16.244 172.764 16.308 173.108 16.364C173.772 16.476 174.292 16.616 174.668 16.784C175.044 16.944 175.308 17.144 175.46 17.384C175.612 17.624 175.688 17.916 175.688 18.26C175.688 18.66 175.576 19 175.352 19.28C175.128 19.56 174.82 19.776 174.428 19.928C174.036 20.072 173.584 20.144 173.072 20.144ZM179.363 20.144C178.739 20.144 178.199 20.008 177.743 19.736C177.295 19.464 176.947 19.076 176.699 18.572C176.459 18.068 176.339 17.48 176.339 16.808C176.339 16.136 176.459 15.552 176.699 15.056C176.947 14.552 177.295 14.164 177.743 13.892C178.191 13.612 178.719 13.472 179.327 13.472C179.903 13.472 180.411 13.608 180.851 13.88C181.291 14.144 181.631 14.528 181.871 15.032C182.119 15.536 182.243 16.144 182.243 16.856V17.18H177.659C177.691 17.804 177.855 18.272 178.151 18.584C178.455 18.896 178.863 19.052 179.375 19.052C179.751 19.052 180.063 18.964 180.311 18.788C180.559 18.612 180.731 18.376 180.827 18.08L182.147 18.164C181.979 18.756 181.647 19.236 181.151 19.604C180.663 19.964 180.067 20.144 179.363 20.144ZM177.659 16.22H180.899C180.859 15.652 180.695 15.232 180.407 14.96C180.127 14.688 179.767 14.552 179.327 14.552C178.871 14.552 178.495 14.696 178.199 14.984C177.911 15.264 177.731 15.676 177.659 16.22Z" fill="white"/>
<defs>
<clipPath id="clip0_2084_149">
<rect width="16" height="16" fill="white" transform="translate(8 8)"/>
</clipPath>
</defs>
</svg>
