<svg width="17" height="17" viewBox="0 0 17 17" fill="none" xmlns="http://www.w3.org/2000/svg">
<path d="M5.84592 8.04652C5.79943 8.09296 5.76255 8.1481 5.73739 8.2088C5.71223 8.2695 5.69928 8.33456 5.69928 8.40027C5.69928 8.46598 5.71223 8.53104 5.73739 8.59174C5.76255 8.65244 5.79943 8.70759 5.84592 8.75402L10.8459 13.754C10.9397 13.8478 11.067 13.9006 11.1997 13.9006C11.3324 13.9006 11.4596 13.8478 11.5534 13.754C11.6472 13.6602 11.7 13.533 11.7 13.4003C11.7 13.2676 11.6472 13.1403 11.5534 13.0465L6.90655 8.40027L11.5534 3.75402C11.6472 3.6602 11.7 3.53295 11.7 3.40027C11.7 3.26759 11.6472 3.14034 11.5534 3.04652C11.4596 2.9527 11.3324 2.89999 11.1997 2.89999C11.067 2.89999 10.9397 2.9527 10.8459 3.04652L5.84592 8.04652Z" fill="black"/>
</svg>
