<svg width="16" height="18" viewBox="0 0 16 18" fill="none" xmlns="http://www.w3.org/2000/svg">
<path d="M12.0503 8.34265C11.9728 8.30549 11.8941 8.26973 11.8143 8.23548C11.6753 5.67546 10.2765 4.20984 7.92768 4.19484C7.91704 4.19478 7.90645 4.19478 7.89581 4.19478C6.49091 4.19478 5.32248 4.79446 4.60331 5.88569L5.89509 6.77183C6.43234 5.95672 7.27549 5.78295 7.89643 5.78295C7.9036 5.78295 7.9108 5.78295 7.9179 5.78302C8.69128 5.78795 9.27487 6.01281 9.65259 6.45131C9.92747 6.77056 10.1113 7.21172 10.2023 7.76848C9.51666 7.65194 8.77509 7.61611 7.98234 7.66156C5.74919 7.79019 4.31354 9.09262 4.40996 10.9024C4.45889 11.8204 4.91622 12.6101 5.69766 13.126C6.35835 13.5622 7.20928 13.7754 8.09365 13.7272C9.26156 13.6631 10.1778 13.2175 10.817 12.4028C11.3024 11.784 11.6094 10.9822 11.745 9.97181C12.3016 10.3077 12.7141 10.7498 12.9419 11.2811C13.3293 12.1844 13.3519 13.6687 12.1407 14.8789C11.0796 15.939 9.804 16.3976 7.87627 16.4118C5.73789 16.3959 4.12067 15.7102 3.0692 14.3735C2.08458 13.1218 1.57572 11.3139 1.55674 9C1.57572 6.68604 2.08458 4.87815 3.0692 3.6265C4.12067 2.28983 5.73787 1.60406 7.87624 1.58817C10.0301 1.60418 11.6755 2.29326 12.7673 3.63637C13.3026 4.29502 13.7062 5.12333 13.9722 6.08909L15.486 5.68521C15.1635 4.49646 14.656 3.4721 13.9655 2.62256C12.5659 0.900626 10.5189 0.0182951 7.88152 0H7.87096C5.2389 0.0182316 3.21488 0.903919 1.85515 2.63243C0.645178 4.1706 0.0210375 6.31085 6.56247e-05 8.99367L0 9L6.56247e-05 9.00633C0.0210375 11.6891 0.645178 13.8294 1.85515 15.3676C3.21488 17.0961 5.2389 17.9818 7.87096 18H7.88152C10.2216 17.9838 11.871 17.3711 13.2298 16.0135C15.0076 14.2374 14.9541 12.0112 14.3681 10.6445C13.9477 9.66441 13.1463 8.86839 12.0503 8.34265ZM8.01005 12.1413C7.0313 12.1964 6.01447 11.7571 5.96434 10.8161C5.92717 10.1184 6.46086 9.33994 8.07011 9.2472C8.25441 9.23657 8.43525 9.23138 8.61291 9.23138C9.19744 9.23138 9.74428 9.28816 10.2414 9.39684C10.056 11.7127 8.96831 12.0887 8.01005 12.1413Z" fill="#111255"/>
</svg>
